NotoAmalgamated-CondensedBoldItalic.ufo
<glyph name="exclam" format="2">
  <advance width="259"/>
  <unicode hex="0021"/>
  <outline>
    <contour>
      <point x="55" y="252" type="line"/>
      <point x="194" y="252" type="line"/>
      <point x="314" y="714" type="line"/>
      <point x="131" y="714" type="line"/>
    </contour>
    <contour>
      <point x="72" y="-12" type="curve" smooth="yes"/>
      <point x="129" y="-12"/>
      <point x="180" y="35"/>
      <point x="180" y="108" type="curve" smooth="yes"/>
      <point x="180" y="150"/>
      <point x="153" y="175"/>
      <point x="109" y="175" type="curve" smooth="yes"/>
      <point x="34" y="175"/>
      <point x="-6" y="118"/>
      <point x="-6" y="56" type="curve" smooth="yes"/>
      <point x="-6" y="11"/>
      <point x="21" y="-12"/>
    </contour>
  </outline>
</glyph>
<glyph name="numbersign" format="2">
  <advance width="528"/>
  <unicode hex="0023"/>
  <outline>
    <contour>
      <point x="21" y="0" type="line"/>
      <point x="138" y="0" type="line"/>
      <point x="198" y="191" type="line"/>
      <point x="261" y="191" type="line"/>
      <point x="201" y="0" type="line"/>
      <point x="318" y="0" type="line"/>
      <point x="379" y="191" type="line"/>
      <point x="477" y="191" type="line"/>
      <point x="498" y="305" type="line"/>
      <point x="414" y="305" type="line"/>
      <point x="447" y="407" type="line"/>
      <point x="539" y="407" type="line"/>
      <point x="561" y="524" type="line"/>
      <point x="482" y="524" type="line"/>
      <point x="543" y="714" type="line"/>
      <point x="424" y="714" type="line"/>
      <point x="364" y="524" type="line"/>
      <point x="302" y="524" type="line"/>
      <point x="363" y="714" type="line"/>
      <point x="245" y="714" type="line"/>
      <point x="185" y="524" type="line"/>
      <point x="88" y="524" type="line"/>
      <point x="67" y="407" type="line"/>
      <point x="150" y="407" type="line"/>
      <point x="116" y="305" type="line"/>
      <point x="25" y="305" type="line"/>
      <point x="4" y="191" type="line"/>
      <point x="81" y="191" type="line"/>
    </contour>
    <contour>
      <point x="234" y="305" type="line"/>
      <point x="267" y="407" type="line"/>
      <point x="329" y="407" type="line"/>
      <point x="296" y="305" type="line"/>
    </contour>
  </outline>
</glyph>
<glyph name="dollar" format="2">
  <advance width="474"/>
  <unicode hex="0024"/>
  <outline>
    <contour>
      <point x="162" y="35" type="curve"/>
      <point x="142" y="-59" type="line"/>
      <point x="193" y="-58" type="line"/>
      <point x="213" y="35" type="line"/>
      <point x="317" y="45"/>
      <point x="419" y="116"/>
      <point x="419" y="264" type="curve" smooth="yes"/>
      <point x="419" y="362"/>
      <point x="351" y="402"/>
      <point x="297" y="434" type="curve"/>
      <point x="323" y="556" type="line"/>
      <point x="356" y="551"/>
      <point x="388" y="534"/>
      <point x="422" y="506" type="curve"/>
      <point x="493" y="644" type="line"/>
      <point x="459" y="667"/>
      <point x="422" y="686"/>
      <point x="352" y="691" type="curve"/>
      <point x="366" y="759" type="line"/>
      <point x="315" y="759" type="line"/>
      <point x="301" y="691" type="line"/>
      <point x="201" y="685"/>
      <point x="95" y="624"/>
      <point x="95" y="471" type="curve" smooth="yes"/>
      <point x="95" y="378"/>
      <point x="164" y="332"/>
      <point x="218" y="302" type="curve"/>
      <point x="191" y="171" type="line"/>
      <point x="142" y="177"/>
      <point x="89" y="208"/>
      <point x="47" y="246" type="curve"/>
      <point x="13" y="83" type="line"/>
      <point x="48" y="58"/>
      <point x="90" y="38"/>
    </contour>
    <contour>
      <point x="243" y="176" type="curve"/>
      <point x="263" y="272" type="line"/>
      <point x="274" y="261"/>
      <point x="281" y="248"/>
      <point x="281" y="231" type="curve" smooth="yes"/>
      <point x="281" y="203"/>
      <point x="265" y="185"/>
    </contour>
    <contour>
      <point x="272" y="555" type="curve"/>
      <point x="253" y="464" type="line"/>
      <point x="240" y="474"/>
      <point x="232" y="486"/>
      <point x="232" y="500" type="curve" smooth="yes"/>
      <point x="232" y="526"/>
      <point x="244" y="547"/>
    </contour>
  </outline>
</glyph>
<glyph name="dollar.serif" format="2">
  <advance width="505"/>
  <unicode hex="0024"/>
  <outline>
    <contour>
      <point x="199" y="39" type="curve"/>
      <point x="174" y="-79" type="line"/>
      <point x="223" y="-79" type="line"/>
      <point x="247" y="38" type="line"/>
      <point x="389" y="40"/>
      <point x="464" y="118"/>
      <point x="464" y="241" type="curve" smooth="yes"/>
      <point x="464" y="318"/>
      <point x="434" y="377"/>
      <point x="362" y="420" type="curve" smooth="yes"/>
      <point x="334" y="436" type="line"/>
      <point x="369" y="617" type="line"/>
      <point x="387" y="593"/>
      <point x="402" y="538"/>
      <point x="400" y="491" type="curve"/>
      <point x="470" y="491"/>
      <point x="525" y="537"/>
      <point x="523" y="596" type="curve" smooth="yes"/>
      <point x="520" y="646"/>
      <point x="477" y="678"/>
      <point x="385" y="686" type="curve"/>
      <point x="402" y="760" type="line"/>
      <point x="352" y="760" type="line"/>
      <point x="337" y="688" type="line"/>
      <point x="206" y="684"/>
      <point x="129" y="613"/>
      <point x="129" y="490" type="curve" smooth="yes"/>
      <point x="129" y="410"/>
      <point x="169" y="361"/>
      <point x="253" y="309" type="curve"/>
      <point x="214" y="107" type="line"/>
      <point x="187" y="127"/>
      <point x="169" y="170"/>
      <point x="172" y="265" type="curve"/>
      <point x="86" y="265"/>
      <point x="50" y="208"/>
      <point x="50" y="148" type="curve" smooth="yes"/>
      <point x="50" y="85"/>
      <point x="99" y="48"/>
    </contour>
    <contour>
      <point x="261" y="97" type="curve"/>
      <point x="296" y="277" type="line"/>
      <point x="325" y="248"/>
      <point x="333" y="223"/>
      <point x="333" y="197" type="curve" smooth="yes"/>
      <point x="333" y="134"/>
      <point x="299" y="96"/>
    </contour>
    <contour>
      <point x="320" y="627" type="curve"/>
      <point x="291" y="468" type="line"/>
      <point x="274" y="489"/>
      <point x="263" y="509"/>
      <point x="263" y="543" type="curve" smooth="yes"/>
      <point x="263" y="599"/>
      <point x="294" y="621"/>
    </contour>
  </outline>
</glyph>
<glyph name="percent" format="2">
  <advance width="791"/>
  <unicode hex="0025"/>
  <outline>
    <contour>
      <point x="149" y="0" type="line"/>
      <point x="273" y="0" type="line"/>
      <point x="675" y="714" type="line"/>
      <point x="551" y="714" type="line"/>
    </contour>
    <contour>
      <point x="176" y="276" type="curve" smooth="yes"/>
      <point x="320" y="276"/>
      <point x="375" y="472"/>
      <point x="375" y="573" type="curve" smooth="yes"/>
      <point x="375" y="679"/>
      <point x="327" y="724"/>
      <point x="254" y="724" type="curve" smooth="yes"/>
      <point x="114" y="724"/>
      <point x="55" y="534"/>
      <point x="55" y="424" type="curve" smooth="yes"/>
      <point x="55" y="324"/>
      <point x="97" y="276"/>
    </contour>
    <contour>
      <point x="191" y="386" type="curve" smooth="yes"/>
      <point x="180" y="386"/>
      <point x="173" y="397"/>
      <point x="173" y="422" type="curve" smooth="yes"/>
      <point x="173" y="478"/>
      <point x="202" y="612"/>
      <point x="239" y="612" type="curve" smooth="yes"/>
      <point x="251" y="612"/>
      <point x="256" y="601"/>
      <point x="256" y="577" type="curve" smooth="yes"/>
      <point x="256" y="521"/>
      <point x="228" y="386"/>
    </contour>
    <contour>
      <point x="573" y="-8" type="curve" smooth="yes"/>
      <point x="714" y="-8"/>
      <point x="771" y="183"/>
      <point x="771" y="289" type="curve" smooth="yes"/>
      <point x="771" y="396"/>
      <point x="723" y="440"/>
      <point x="650" y="440" type="curve" smooth="yes"/>
      <point x="527" y="440"/>
      <point x="452" y="285"/>
      <point x="452" y="140" type="curve" smooth="yes"/>
      <point x="452" y="40"/>
      <point x="493" y="-8"/>
    </contour>
    <contour>
      <point x="588" y="103" type="curve" smooth="yes"/>
      <point x="576" y="103"/>
      <point x="570" y="114"/>
      <point x="570" y="138" type="curve" smooth="yes"/>
      <point x="570" y="174"/>
      <point x="592" y="328"/>
      <point x="635" y="328" type="curve" smooth="yes"/>
      <point x="647" y="328"/>
      <point x="653" y="317"/>
      <point x="653" y="293" type="curve" smooth="yes"/>
      <point x="653" y="233"/>
      <point x="625" y="103"/>
    </contour>
  </outline>
</glyph>
<glyph name="ampersand" format="2">
  <advance width="598"/>
  <unicode hex="0026"/>
  <outline>
    <contour>
      <point x="166" y="-10" type="curve" smooth="yes"/>
      <point x="230" y="-10"/>
      <point x="270" y="3"/>
      <point x="328" y="37" type="curve"/>
      <point x="344" y="0" type="line"/>
      <point x="545" y="0" type="line"/>
      <point x="468" y="151" type="line"/>
      <point x="518" y="216"/>
      <point x="572" y="316"/>
      <point x="603" y="401" type="curve"/>
      <point x="436" y="401" type="line"/>
      <point x="422" y="359"/>
      <point x="407" y="326"/>
      <point x="394" y="301" type="curve"/>
      <point x="356" y="375" type="line"/>
      <point x="442" y="437"/>
      <point x="499" y="508"/>
      <point x="499" y="590" type="curve" smooth="yes"/>
      <point x="499" y="683"/>
      <point x="422" y="723"/>
      <point x="344" y="723" type="curve" smooth="yes"/>
      <point x="219" y="723"/>
      <point x="133" y="630"/>
      <point x="133" y="516" type="curve" smooth="yes"/>
      <point x="133" y="465"/>
      <point x="143" y="428"/>
      <point x="160" y="394" type="curve"/>
      <point x="64" y="339"/>
      <point x="2" y="251"/>
      <point x="2" y="152" type="curve" smooth="yes"/>
      <point x="2" y="50"/>
      <point x="66" y="-10"/>
    </contour>
    <contour>
      <point x="210" y="133" type="curve" smooth="yes"/>
      <point x="186" y="133"/>
      <point x="172" y="150"/>
      <point x="172" y="180" type="curve" smooth="yes"/>
      <point x="172" y="224"/>
      <point x="187" y="263"/>
      <point x="212" y="287" type="curve"/>
      <point x="272" y="157" type="line"/>
      <point x="249" y="141"/>
      <point x="231" y="133"/>
    </contour>
    <contour>
      <point x="300" y="479" type="curve"/>
      <point x="292" y="498"/>
      <point x="288" y="517"/>
      <point x="288" y="542" type="curve" smooth="yes"/>
      <point x="288" y="565"/>
      <point x="298" y="605"/>
      <point x="323" y="605" type="curve" smooth="yes"/>
      <point x="345" y="605"/>
      <point x="348" y="584"/>
      <point x="348" y="568" type="curve" smooth="yes"/>
      <point x="348" y="537"/>
      <point x="326" y="501"/>
    </contour>
  </outline>
</glyph>
<glyph name="ampersand.serif" format="2">
  <advance width="697"/>
  <unicode hex="0026"/>
  <outline>
    <contour>
      <point x="228" y="-10" type="curve" smooth="yes"/>
      <point x="306" y="-10"/>
      <point x="368" y="20"/>
      <point x="416" y="64" type="curve"/>
      <point x="447" y="0" type="line"/>
      <point x="633" y="0" type="line"/>
      <point x="645" y="57" type="line"/>
      <point x="642" y="57" type="line" smooth="yes"/>
      <point x="594" y="57"/>
      <point x="575" y="82"/>
      <point x="552" y="121" type="curve" smooth="yes"/>
      <point x="516" y="183" type="line"/>
      <point x="539" y="226"/>
      <point x="556" y="268"/>
      <point x="573" y="304" type="curve" smooth="yes"/>
      <point x="601" y="364"/>
      <point x="636" y="371"/>
      <point x="673" y="371" type="curve" smooth="yes"/>
      <point x="680" y="371" type="line"/>
      <point x="692" y="428" type="line"/>
      <point x="514" y="428" type="line"/>
      <point x="506" y="390" type="line" smooth="yes"/>
      <point x="498" y="346"/>
      <point x="487" y="298"/>
      <point x="472" y="253" type="curve"/>
      <point x="389" y="404" type="line"/>
      <point x="510" y="464"/>
      <point x="539" y="510"/>
      <point x="539" y="600" type="curve" smooth="yes"/>
      <point x="539" y="670"/>
      <point x="494" y="724"/>
      <point x="392" y="724" type="curve" smooth="yes"/>
      <point x="267" y="724"/>
      <point x="195" y="663"/>
      <point x="195" y="543" type="curve" smooth="yes"/>
      <point x="195" y="499"/>
      <point x="206" y="451"/>
      <point x="227" y="403" type="curve"/>
      <point x="124" y="359"/>
      <point x="33" y="310"/>
      <point x="33" y="169" type="curve" smooth="yes"/>
      <point x="33" y="66"/>
      <point x="93" y="-10"/>
    </contour>
    <contour>
      <point x="273" y="61" type="curve" smooth="yes"/>
      <point x="220" y="61"/>
      <point x="190" y="112"/>
      <point x="190" y="180" type="curve" smooth="yes"/>
      <point x="190" y="246"/>
      <point x="210" y="298"/>
      <point x="262" y="344" type="curve"/>
      <point x="382" y="122" type="line"/>
      <point x="349" y="85"/>
      <point x="313" y="61"/>
    </contour>
    <contour>
      <point x="361" y="455" type="curve"/>
      <point x="345" y="488"/>
      <point x="335" y="519"/>
      <point x="335" y="555" type="curve" smooth="yes"/>
      <point x="335" y="613"/>
      <point x="350" y="660"/>
      <point x="389" y="660" type="curve" smooth="yes"/>
      <point x="416" y="660"/>
      <point x="429" y="635"/>
      <point x="429" y="588" type="curve" smooth="yes"/>
      <point x="429" y="525"/>
      <point x="411" y="490"/>
    </contour>
  </outline>
</glyph>
<glyph name="parenleft" format="2">
  <advance width="282"/>
  <unicode hex="0028"/>
  <outline>
    <contour>
      <point x="42" y="-158" type="curve"/>
      <point x="178" y="-158" type="line"/>
      <point x="160" y="-85"/>
      <point x="156" y="-12"/>
      <point x="156" y="74" type="curve" smooth="yes"/>
      <point x="156" y="301"/>
      <point x="258" y="579"/>
      <point x="368" y="734" type="curve"/>
      <point x="233" y="734" type="line"/>
      <point x="103" y="589"/>
      <point x="11" y="280"/>
      <point x="11" y="68" type="curve" smooth="yes"/>
      <point x="11" y="-5"/>
      <point x="20" y="-107"/>
    </contour>
  </outline>
</glyph>
<glyph name="parenright" format="2">
  <advance width="282"/>
  <unicode hex="0029"/>
  <outline>
    <contour>
      <point x="-81" y="-158" type="curve"/>
      <point x="54" y="-158" type="line"/>
      <point x="179" y="-18"/>
      <point x="275" y="278"/>
      <point x="275" y="507" type="curve" smooth="yes"/>
      <point x="275" y="591"/>
      <point x="271" y="664"/>
      <point x="245" y="734" type="curve"/>
      <point x="108" y="734" type="line"/>
      <point x="127" y="667"/>
      <point x="130" y="582"/>
      <point x="130" y="501" type="curve" smooth="yes"/>
      <point x="130" y="274"/>
      <point x="28" y="-3"/>
    </contour>
  </outline>
</glyph>
<glyph name="asterisk" format="2">
  <advance width="442"/>
  <unicode hex="002A"/>
  <outline>
    <contour>
      <point x="312" y="302" type="line"/>
      <point x="438" y="381" type="line"/>
      <point x="353" y="501" type="line"/>
      <point x="484" y="505" type="line"/>
      <point x="469" y="650" type="line"/>
      <point x="342" y="610" type="line"/>
      <point x="376" y="753" type="line"/>
      <point x="230" y="770" type="line"/>
      <point x="230" y="623" type="line"/>
      <point x="116" y="691" type="line"/>
      <point x="67" y="554" type="line"/>
      <point x="194" y="519" type="line"/>
      <point x="85" y="422" type="line"/>
      <point x="189" y="316" type="line"/>
      <point x="265" y="435" type="line"/>
    </contour>
  </outline>
</glyph>
<glyph name="plus" format="2">
  <advance width="500"/>
  <unicode hex="002B"/>
  <outline>
    <contour>
      <point x="327" y="418" type="line"/>
      <point x="327" y="597" type="line"/>
      <point x="193" y="597" type="line"/>
      <point x="193" y="418" type="line"/>
      <point x="44" y="418" type="line"/>
      <point x="44" y="287" type="line"/>
      <point x="193" y="287" type="line"/>
      <point x="193" y="111" type="line"/>
      <point x="327" y="111" type="line"/>
      <point x="327" y="287" type="line"/>
      <point x="476" y="287" type="line"/>
      <point x="476" y="418" type="line"/>
    </contour>
  </outline>
</glyph>
<glyph name="comma" format="2">
  <advance width="260"/>
  <unicode hex="002C"/>
  <outline>
    <contour>
      <point x="-59" y="-139" type="curve"/>
      <point x="74" y="-139" type="line"/>
      <point x="116" y="-64"/>
      <point x="156" y="28"/>
      <point x="192" y="136" type="curve"/>
      <point x="190" y="146" type="line"/>
      <point x="34" y="146" type="line"/>
      <point x="11" y="60"/>
      <point x="-28" y="-52"/>
    </contour>
  </outline>
</glyph>
<glyph name="hyphen" format="2">
  <advance width="307"/>
  <unicode hex="002D"/>
  <outline>
    <contour>
      <point x="9" y="192" type="line"/>
      <point x="263" y="192" type="line"/>
      <point x="296" y="344" type="line"/>
      <point x="41" y="344" type="line"/>
    </contour>
  </outline>
</glyph>
<glyph name="zero" format="2">
  <advance width="474"/>
  <unicode hex="0030"/>
  <outline>
    <contour>
      <point x="188" y="-10" type="curve" smooth="yes"/>
      <point x="384" y="-10"/>
      <point x="476" y="315"/>
      <point x="476" y="515" type="curve" smooth="yes"/>
      <point x="476" y="661"/>
      <point x="426" y="724"/>
      <point x="318" y="724" type="curve" smooth="yes"/>
      <point x="104" y="724"/>
      <point x="32" y="351"/>
      <point x="32" y="192" type="curve" smooth="yes"/>
      <point x="32" y="53"/>
      <point x="81" y="-10"/>
    </contour>
    <contour>
      <point x="208" y="137" type="curve" smooth="yes"/>
      <point x="192" y="137"/>
      <point x="186" y="153"/>
      <point x="186" y="185" type="curve" smooth="yes"/>
      <point x="186" y="259"/>
      <point x="246" y="577"/>
      <point x="301" y="577" type="curve" smooth="yes"/>
      <point x="317" y="577"/>
      <point x="322" y="561"/>
      <point x="322" y="527" type="curve" smooth="yes"/>
      <point x="322" y="434"/>
      <point x="260" y="137"/>
    </contour>
  </outline>
</glyph>
<glyph name="one" format="2">
  <advance width="474"/>
  <unicode hex="0031"/>
  <outline>
    <contour>
      <point x="238" y="376" type="curve" smooth="yes"/>
      <point x="159" y="0" type="line"/>
      <point x="323" y="0" type="line"/>
      <point x="475" y="714" type="line"/>
      <point x="328" y="714" type="line"/>
      <point x="88" y="487" type="line"/>
      <point x="163" y="384" type="line"/>
      <point x="229" y="447" type="line" smooth="yes"/>
      <point x="242" y="459"/>
      <point x="254" y="473"/>
      <point x="265" y="487" type="curve"/>
      <point x="254" y="449"/>
      <point x="248" y="422"/>
    </contour>
  </outline>
</glyph>
<glyph name="two" format="2">
  <advance width="474"/>
  <unicode hex="0032"/>
  <outline>
    <contour>
      <point x="-28" y="0" type="line"/>
      <point x="361" y="0" type="line"/>
      <point x="392" y="146" type="line"/>
      <point x="194" y="146" type="line"/>
      <point x="194" y="149" type="line"/>
      <point x="312" y="271" type="line" smooth="yes"/>
      <point x="403" y="365"/>
      <point x="470" y="458"/>
      <point x="470" y="572" type="curve" smooth="yes"/>
      <point x="470" y="662"/>
      <point x="404" y="724"/>
      <point x="311" y="724" type="curve" smooth="yes"/>
      <point x="233" y="724"/>
      <point x="164" y="690"/>
      <point x="97" y="609" type="curve"/>
      <point x="150" y="494" type="line"/>
      <point x="184" y="528"/>
      <point x="233" y="578"/>
      <point x="270" y="578" type="curve" smooth="yes"/>
      <point x="291" y="578"/>
      <point x="299" y="562"/>
      <point x="299" y="537" type="curve" smooth="yes"/>
      <point x="299" y="468"/>
      <point x="236" y="387"/>
      <point x="173" y="315" type="curve" smooth="yes"/>
      <point x="-3" y="116" type="line"/>
    </contour>
  </outline>
</glyph>
<glyph name="three" format="2">
  <advance width="474"/>
  <unicode hex="0033"/>
  <outline>
    <contour>
      <point x="144" y="-10" type="curve" smooth="yes"/>
      <point x="306" y="-10"/>
      <point x="420" y="95"/>
      <point x="420" y="239" type="curve" smooth="yes"/>
      <point x="420" y="311"/>
      <point x="386" y="356"/>
      <point x="320" y="373" type="curve"/>
      <point x="320" y="376" type="line"/>
      <point x="415" y="411"/>
      <point x="480" y="486"/>
      <point x="480" y="583" type="curve" smooth="yes"/>
      <point x="480" y="688"/>
      <point x="397" y="724"/>
      <point x="309" y="724" type="curve" smooth="yes"/>
      <point x="241" y="724"/>
      <point x="185" y="710"/>
      <point x="117" y="660" type="curve"/>
      <point x="147" y="533" type="line"/>
      <point x="195" y="567"/>
      <point x="238" y="580"/>
      <point x="266" y="580" type="curve" smooth="yes"/>
      <point x="295" y="580"/>
      <point x="308" y="567"/>
      <point x="308" y="539" type="curve" smooth="yes"/>
      <point x="308" y="467"/>
      <point x="258" y="435"/>
      <point x="185" y="435" type="curve" smooth="yes"/>
      <point x="145" y="435" type="line"/>
      <point x="116" y="296" type="line"/>
      <point x="155" y="296" type="line" smooth="yes"/>
      <point x="221" y="296"/>
      <point x="246" y="271"/>
      <point x="246" y="231" type="curve" smooth="yes"/>
      <point x="246" y="167"/>
      <point x="207" y="134"/>
      <point x="146" y="134" type="curve" smooth="yes"/>
      <point x="109" y="134"/>
      <point x="43" y="146"/>
      <point x="-3" y="184" type="curve"/>
      <point x="-3" y="28" type="line"/>
      <point x="50" y="-1"/>
      <point x="83" y="-10"/>
    </contour>
  </outline>
</glyph>
<glyph name="four" format="2">
  <advance width="474"/>
  <unicode hex="0034"/>
  <outline>
    <contour>
      <point x="172" y="0" type="line"/>
      <point x="334" y="0" type="line"/>
      <point x="363" y="138" type="line"/>
      <point x="427" y="138" type="line"/>
      <point x="456" y="275" type="line"/>
      <point x="392" y="275" type="line"/>
      <point x="485" y="714" type="line"/>
      <point x="329" y="714" type="line"/>
      <point x="20" y="270" type="line"/>
      <point x="-8" y="138" type="line"/>
      <point x="201" y="138" type="line"/>
    </contour>
    <contour>
      <point x="145" y="275" type="line"/>
      <point x="251" y="435" type="line" smooth="yes"/>
      <point x="255" y="440"/>
      <point x="259" y="448"/>
      <point x="275" y="479" type="curve"/>
      <point x="278" y="479" type="line"/>
      <point x="274" y="463"/>
      <point x="265" y="437"/>
      <point x="262" y="423" type="curve" smooth="yes"/>
      <point x="230" y="275" type="line"/>
    </contour>
  </outline>
</glyph>
<glyph name="five" format="2">
  <advance width="474"/>
  <unicode hex="0035"/>
  <outline>
    <contour>
      <point x="161" y="-10" type="curve" smooth="yes"/>
      <point x="368" y="-10"/>
      <point x="430" y="164"/>
      <point x="430" y="295" type="curve" smooth="yes"/>
      <point x="430" y="405"/>
      <point x="379" y="468"/>
      <point x="303" y="468" type="curve" smooth="yes"/>
      <point x="291" y="468"/>
      <point x="275" y="467"/>
      <point x="254" y="462" type="curve"/>
      <point x="282" y="567" type="line"/>
      <point x="458" y="567" type="line"/>
      <point x="489" y="714" type="line"/>
      <point x="172" y="714" type="line"/>
      <point x="76" y="346" type="line"/>
      <point x="121" y="308" type="line"/>
      <point x="147" y="319"/>
      <point x="171" y="327"/>
      <point x="195" y="327" type="curve" smooth="yes"/>
      <point x="236" y="327"/>
      <point x="256" y="304"/>
      <point x="256" y="262" type="curve" smooth="yes"/>
      <point x="256" y="200"/>
      <point x="221" y="134"/>
      <point x="161" y="134" type="curve" smooth="yes"/>
      <point x="109" y="134"/>
      <point x="56" y="154"/>
      <point x="19" y="186" type="curve"/>
      <point x="19" y="19" type="line"/>
      <point x="53" y="1"/>
      <point x="98" y="-10"/>
    </contour>
  </outline>
</glyph>
<glyph name="six" format="2">
  <advance width="474"/>
  <unicode hex="0036"/>
  <outline>
    <contour>
      <point x="209" y="-10" type="curve" smooth="yes"/>
      <point x="378" y="-10"/>
      <point x="449" y="176"/>
      <point x="449" y="306" type="curve" smooth="yes"/>
      <point x="449" y="404"/>
      <point x="419" y="476"/>
      <point x="336" y="476" type="curve" smooth="yes"/>
      <point x="293" y="476"/>
      <point x="255" y="453"/>
      <point x="228" y="415" type="curve"/>
      <point x="226" y="415" type="line"/>
      <point x="258" y="522"/>
      <point x="313" y="584"/>
      <point x="395" y="584" type="curve" smooth="yes"/>
      <point x="421" y="584"/>
      <point x="448" y="580"/>
      <point x="477" y="572" type="curve"/>
      <point x="507" y="715" type="line"/>
      <point x="475" y="721"/>
      <point x="442" y="724"/>
      <point x="394" y="724" type="curve" smooth="yes"/>
      <point x="313" y="724"/>
      <point x="245" y="689"/>
      <point x="191" y="635" type="curve" smooth="yes"/>
      <point x="85" y="529"/>
      <point x="32" y="346"/>
      <point x="32" y="208" type="curve" smooth="yes"/>
      <point x="32" y="74"/>
      <point x="81" y="-10"/>
    </contour>
    <contour>
      <point x="216" y="134" type="curve" smooth="yes"/>
      <point x="202" y="134"/>
      <point x="194" y="153"/>
      <point x="194" y="190" type="curve" smooth="yes"/>
      <point x="194" y="227"/>
      <point x="206" y="291"/>
      <point x="229" y="318" type="curve" smooth="yes"/>
      <point x="237" y="329"/>
      <point x="248" y="336"/>
      <point x="259" y="336" type="curve" smooth="yes"/>
      <point x="274" y="336"/>
      <point x="281" y="321"/>
      <point x="281" y="292" type="curve" smooth="yes"/>
      <point x="281" y="250"/>
      <point x="265" y="134"/>
    </contour>
  </outline>
</glyph>
<glyph name="seven" format="2">
  <advance width="474"/>
  <unicode hex="0037"/>
  <outline>
    <contour>
      <point x="27" y="0" type="line"/>
      <point x="198" y="0" type="line"/>
      <point x="504" y="603" type="line"/>
      <point x="528" y="713" type="line"/>
      <point x="133" y="713" type="line"/>
      <point x="102" y="566" type="line"/>
      <point x="330" y="566" type="line"/>
    </contour>
  </outline>
</glyph>
<glyph name="eight" format="2">
  <advance width="474"/>
  <unicode hex="0038"/>
  <outline>
    <contour>
      <point x="198" y="-10" type="curve" smooth="yes"/>
      <point x="330" y="-10"/>
      <point x="426" y="101"/>
      <point x="426" y="220" type="curve" smooth="yes"/>
      <point x="426" y="279"/>
      <point x="407" y="328"/>
      <point x="354" y="376" type="curve"/>
      <point x="437" y="426"/>
      <point x="487" y="494"/>
      <point x="487" y="578" type="curve" smooth="yes"/>
      <point x="487" y="675"/>
      <point x="422" y="724"/>
      <point x="323" y="724" type="curve" smooth="yes"/>
      <point x="186" y="724"/>
      <point x="103" y="631"/>
      <point x="103" y="507" type="curve" smooth="yes"/>
      <point x="103" y="462"/>
      <point x="119" y="412"/>
      <point x="155" y="373" type="curve"/>
      <point x="60" y="313"/>
      <point x="9" y="243"/>
      <point x="9" y="152" type="curve" smooth="yes"/>
      <point x="9" y="49"/>
      <point x="79" y="-10"/>
    </contour>
    <contour>
      <point x="203" y="122" type="curve" smooth="yes"/>
      <point x="181" y="122"/>
      <point x="168" y="138"/>
      <point x="168" y="165" type="curve" smooth="yes"/>
      <point x="168" y="218"/>
      <point x="200" y="264"/>
      <point x="237" y="292" type="curve"/>
      <point x="259" y="266"/>
      <point x="270" y="238"/>
      <point x="270" y="211" type="curve" smooth="yes"/>
      <point x="270" y="167"/>
      <point x="247" y="122"/>
    </contour>
    <contour>
      <point x="276" y="458" type="curve"/>
      <point x="265" y="473"/>
      <point x="256" y="496"/>
      <point x="256" y="517" type="curve" smooth="yes"/>
      <point x="256" y="560"/>
      <point x="273" y="592"/>
      <point x="300" y="592" type="curve" smooth="yes"/>
      <point x="318" y="592"/>
      <point x="329" y="582"/>
      <point x="329" y="555" type="curve" smooth="yes"/>
      <point x="329" y="519"/>
      <point x="313" y="486"/>
    </contour>
  </outline>
</glyph>
<glyph name="nine" format="2">
  <advance width="474"/>
  <unicode hex="0039"/>
  <outline>
    <contour>
      <point x="122" y="-10" type="curve" smooth="yes"/>
      <point x="285" y="-10"/>
      <point x="379" y="123"/>
      <point x="429" y="259" type="curve" smooth="yes"/>
      <point x="464" y="355"/>
      <point x="477" y="453"/>
      <point x="477" y="506" type="curve" smooth="yes"/>
      <point x="477" y="644"/>
      <point x="419" y="724"/>
      <point x="307" y="724" type="curve" smooth="yes"/>
      <point x="130" y="724"/>
      <point x="60" y="525"/>
      <point x="60" y="396" type="curve" smooth="yes"/>
      <point x="60" y="307"/>
      <point x="90" y="238"/>
      <point x="173" y="238" type="curve" smooth="yes"/>
      <point x="215" y="238"/>
      <point x="252" y="262"/>
      <point x="281" y="299" type="curve"/>
      <point x="283" y="299" type="line"/>
      <point x="250" y="192"/>
      <point x="196" y="130"/>
      <point x="114" y="130" type="curve" smooth="yes"/>
      <point x="79" y="130"/>
      <point x="41" y="135"/>
      <point x="12" y="145" type="curve"/>
      <point x="12" y="2" type="line"/>
      <point x="44" y="-5"/>
      <point x="76" y="-10"/>
    </contour>
    <contour>
      <point x="250" y="378" type="curve" smooth="yes"/>
      <point x="235" y="378"/>
      <point x="228" y="393"/>
      <point x="228" y="422" type="curve" smooth="yes"/>
      <point x="228" y="463"/>
      <point x="248" y="580"/>
      <point x="293" y="580" type="curve" smooth="yes"/>
      <point x="307" y="580"/>
      <point x="315" y="562"/>
      <point x="315" y="524" type="curve" smooth="yes"/>
      <point x="315" y="492"/>
      <point x="306" y="442"/>
      <point x="289" y="410" type="curve" smooth="yes"/>
      <point x="279" y="391"/>
      <point x="266" y="378"/>
    </contour>
  </outline>
</glyph>
<glyph name="colon" format="2">
  <advance width="267"/>
  <unicode hex="003A"/>
  <outline>
    <contour>
      <point x="160" y="374" type="curve" smooth="yes"/>
      <point x="216" y="374"/>
      <point x="267" y="421"/>
      <point x="267" y="494" type="curve" smooth="yes"/>
      <point x="267" y="536"/>
      <point x="240" y="561"/>
      <point x="196" y="561" type="curve" smooth="yes"/>
      <point x="121" y="561"/>
      <point x="82" y="503"/>
      <point x="82" y="442" type="curve" smooth="yes"/>
      <point x="82" y="396"/>
      <point x="109" y="374"/>
    </contour>
    <contour>
      <point x="77" y="-12" type="curve" smooth="yes"/>
      <point x="133" y="-12"/>
      <point x="185" y="35"/>
      <point x="185" y="108" type="curve" smooth="yes"/>
      <point x="185" y="150"/>
      <point x="158" y="175"/>
      <point x="113" y="175" type="curve" smooth="yes"/>
      <point x="39" y="175"/>
      <point x="-1" y="118"/>
      <point x="-1" y="56" type="curve" smooth="yes"/>
      <point x="-1" y="11"/>
      <point x="26" y="-12"/>
    </contour>
  </outline>
</glyph>
<glyph name="semicolon" format="2">
  <advance width="267"/>
  <unicode hex="003B"/>
  <outline>
    <contour>
      <point x="-59" y="-139" type="curve"/>
      <point x="73" y="-139" type="line"/>
      <point x="116" y="-64"/>
      <point x="155" y="28"/>
      <point x="192" y="136" type="curve"/>
      <point x="189" y="146" type="line"/>
      <point x="33" y="146" type="line"/>
      <point x="6" y="45"/>
      <point x="-25" y="-48"/>
    </contour>
    <contour>
      <point x="160" y="374" type="curve" smooth="yes"/>
      <point x="216" y="374"/>
      <point x="267" y="421"/>
      <point x="267" y="494" type="curve" smooth="yes"/>
      <point x="267" y="536"/>
      <point x="240" y="561"/>
      <point x="196" y="561" type="curve" smooth="yes"/>
      <point x="121" y="561"/>
      <point x="82" y="503"/>
      <point x="82" y="442" type="curve" smooth="yes"/>
      <point x="82" y="396"/>
      <point x="109" y="374"/>
    </contour>
  </outline>
</glyph>
<glyph name="greater" format="2">
  <advance width="500"/>
  <unicode hex="003E"/>
  <outline>
    <contour>
      <point x="44" y="256" type="line"/>
      <point x="44" y="112" type="line"/>
      <point x="481" y="319" type="line"/>
      <point x="481" y="403" type="line"/>
      <point x="44" y="609" type="line"/>
      <point x="44" y="464" type="line"/>
      <point x="290" y="361" type="line"/>
    </contour>
  </outline>
</glyph>
<glyph name="question" format="2">
  <advance width="376"/>
  <unicode hex="003F"/>
  <outline>
    <contour>
      <point x="91" y="252" type="curve"/>
      <point x="230" y="252" type="line"/>
      <point x="243" y="312"/>
      <point x="254" y="325"/>
      <point x="297" y="362" type="curve" smooth="yes"/>
      <point x="361" y="417"/>
      <point x="423" y="488"/>
      <point x="423" y="586" type="curve" smooth="yes"/>
      <point x="423" y="672"/>
      <point x="370" y="724"/>
      <point x="269" y="724" type="curve" smooth="yes"/>
      <point x="209" y="724"/>
      <point x="145" y="701"/>
      <point x="82" y="653" type="curve"/>
      <point x="101" y="528" type="line"/>
      <point x="139" y="554"/>
      <point x="182" y="580"/>
      <point x="224" y="580" type="curve" smooth="yes"/>
      <point x="248" y="580"/>
      <point x="264" y="564"/>
      <point x="264" y="541" type="curve" smooth="yes"/>
      <point x="264" y="505"/>
      <point x="250" y="491"/>
      <point x="174" y="421" type="curve" smooth="yes"/>
      <point x="126" y="377"/>
      <point x="105" y="341"/>
    </contour>
    <contour>
      <point x="109" y="-12" type="curve" smooth="yes"/>
      <point x="165" y="-12"/>
      <point x="216" y="35"/>
      <point x="216" y="108" type="curve" smooth="yes"/>
      <point x="216" y="150"/>
      <point x="189" y="175"/>
      <point x="145" y="175" type="curve" smooth="yes"/>
      <point x="70" y="175"/>
      <point x="30" y="118"/>
      <point x="30" y="56" type="curve" smooth="yes"/>
      <point x="30" y="11"/>
      <point x="57" y="-12"/>
    </contour>
  </outline>
</glyph>
<glyph name="at" format="2">
  <advance width="706"/>
  <unicode hex="0040"/>
  <outline>
    <contour>
      <point x="301" y="-75" type="curve" smooth="yes"/>
      <point x="360" y="-75"/>
      <point x="437" y="-57"/>
      <point x="501" y="-27" type="curve"/>
      <point x="501" y="68" type="line"/>
      <point x="425" y="34"/>
      <point x="363" y="21"/>
      <point x="298" y="21" type="curve" smooth="yes"/>
      <point x="182" y="21"/>
      <point x="129" y="89"/>
      <point x="129" y="192" type="curve" smooth="yes"/>
      <point x="129" y="409"/>
      <point x="256" y="628"/>
      <point x="449" y="628" type="curve" smooth="yes"/>
      <point x="544" y="628"/>
      <point x="602" y="571"/>
      <point x="602" y="458" type="curve" smooth="yes"/>
      <point x="602" y="388"/>
      <point x="576" y="208"/>
      <point x="504" y="208" type="curve" smooth="yes"/>
      <point x="497" y="208"/>
      <point x="493" y="214"/>
      <point x="493" y="229" type="curve" smooth="yes"/>
      <point x="493" y="234"/>
      <point x="494" y="243"/>
      <point x="496" y="250" type="curve"/>
      <point x="559" y="513" type="line"/>
      <point x="524" y="532"/>
      <point x="477" y="544"/>
      <point x="415" y="544" type="curve" smooth="yes"/>
      <point x="263" y="544"/>
      <point x="191" y="354"/>
      <point x="191" y="239" type="curve" smooth="yes"/>
      <point x="191" y="157"/>
      <point x="226" y="114"/>
      <point x="304" y="114" type="curve" smooth="yes"/>
      <point x="334" y="114"/>
      <point x="369" y="135"/>
      <point x="400" y="174" type="curve"/>
      <point x="403" y="174" type="line"/>
      <point x="414" y="136"/>
      <point x="435" y="114"/>
      <point x="498" y="114" type="curve" smooth="yes"/>
      <point x="626" y="114"/>
      <point x="708" y="311"/>
      <point x="708" y="468" type="curve" smooth="yes"/>
      <point x="708" y="625"/>
      <point x="604" y="723"/>
      <point x="458" y="723" type="curve" smooth="yes"/>
      <point x="200" y="723"/>
      <point x="22" y="467"/>
      <point x="22" y="182" type="curve" smooth="yes"/>
      <point x="22" y="21"/>
      <point x="121" y="-75"/>
    </contour>
    <contour>
      <point x="331" y="208" type="curve" smooth="yes"/>
      <point x="316" y="208"/>
      <point x="307" y="221"/>
      <point x="307" y="250" type="curve" smooth="yes"/>
      <point x="307" y="325"/>
      <point x="346" y="449"/>
      <point x="405" y="449" type="curve" smooth="yes"/>
      <point x="417" y="449"/>
      <point x="423" y="448"/>
      <point x="431" y="445" type="curve"/>
      <point x="399" y="317" type="line" smooth="yes"/>
      <point x="381" y="246"/>
      <point x="358" y="208"/>
    </contour>
  </outline>
</glyph>
<glyph name="at.serif" format="2">
  <advance width="752"/>
  <unicode hex="0040"/>
  <outline>
    <contour>
      <point x="352" y="-142" type="curve" smooth="yes"/>
      <point x="451" y="-142"/>
      <point x="546" y="-100"/>
      <point x="605" y="-45" type="curve"/>
      <point x="586" y="-7" type="line"/>
      <point x="530" y="-52"/>
      <point x="449" y="-92"/>
      <point x="368" y="-92" type="curve" smooth="yes"/>
      <point x="231" y="-92"/>
      <point x="122" y="-2"/>
      <point x="122" y="220" type="curve" smooth="yes"/>
      <point x="122" y="494"/>
      <point x="283" y="663"/>
      <point x="440" y="663" type="curve" smooth="yes"/>
      <point x="563" y="663"/>
      <point x="653" y="577"/>
      <point x="653" y="404" type="curve" smooth="yes"/>
      <point x="653" y="235"/>
      <point x="601" y="137"/>
      <point x="559" y="137" type="curve" smooth="yes"/>
      <point x="549" y="137"/>
      <point x="532" y="145"/>
      <point x="532" y="195" type="curve" smooth="yes"/>
      <point x="532" y="212"/>
      <point x="536" y="252"/>
      <point x="540" y="272" type="curve" smooth="yes"/>
      <point x="588" y="520" type="line"/>
      <point x="568" y="520" type="line"/>
      <point x="522" y="499" type="line"/>
      <point x="504" y="515"/>
      <point x="476" y="529"/>
      <point x="436" y="529" type="curve" smooth="yes"/>
      <point x="266" y="529"/>
      <point x="195" y="346"/>
      <point x="195" y="237" type="curve" smooth="yes"/>
      <point x="195" y="128"/>
      <point x="252" y="77"/>
      <point x="321" y="77" type="curve" smooth="yes"/>
      <point x="379" y="77"/>
      <point x="415" y="120"/>
      <point x="440" y="172" type="curve"/>
      <point x="445" y="172" type="line"/>
      <point x="463" y="102"/>
      <point x="497" y="77"/>
      <point x="545" y="77" type="curve" smooth="yes"/>
      <point x="640" y="77"/>
      <point x="734" y="200"/>
      <point x="734" y="408" type="curve" smooth="yes"/>
      <point x="734" y="581"/>
      <point x="635" y="714"/>
      <point x="448" y="714" type="curve" smooth="yes"/>
      <point x="212" y="714"/>
      <point x="28" y="506"/>
      <point x="28" y="232" type="curve" smooth="yes"/>
      <point x="28" y="-18"/>
      <point x="179" y="-142"/>
    </contour>
    <contour>
      <point x="357" y="137" type="curve" smooth="yes"/>
      <point x="333" y="137"/>
      <point x="318" y="170"/>
      <point x="318" y="227" type="curve" smooth="yes"/>
      <point x="318" y="304"/>
      <point x="354" y="484"/>
      <point x="425" y="484" type="curve" smooth="yes"/>
      <point x="440" y="484"/>
      <point x="460" y="475"/>
      <point x="466" y="456" type="curve"/>
      <point x="424" y="253" type="line" smooth="yes"/>
      <point x="413" y="196"/>
      <point x="395" y="137"/>
    </contour>
  </outline>
</glyph>
<glyph name="A" format="2">
  <advance width="532"/>
  <unicode hex="0041"/>
  <anchor x="210" y="0" name="bottom"/>
  <anchor x="355" y="717" name="top"/>
  <anchor x="607" y="714" name="topright"/>
  <outline>
    <contour>
      <point x="-58" y="0" type="line"/>
      <point x="125" y="0" type="line"/>
      <point x="178" y="139" type="line"/>
      <point x="300" y="139" type="line"/>
      <point x="296" y="0" type="line"/>
      <point x="474" y="0" type="line"/>
      <point x="463" y="717" type="line"/>
      <point x="250" y="717" type="line"/>
    </contour>
    <contour>
      <point x="233" y="284" type="line"/>
      <point x="295" y="472" type="line" smooth="yes"/>
      <point x="306" y="505"/>
      <point x="314" y="533"/>
      <point x="320" y="568" type="curve"/>
      <point x="323" y="568" type="line"/>
      <point x="319" y="531"/>
      <point x="318" y="501"/>
      <point x="317" y="469" type="curve" smooth="yes"/>
      <point x="309" y="284" type="line"/>
    </contour>
  </outline>
</glyph>
<glyph name="A.serif" format="2">
  <advance width="650"/>
  <unicode hex="0041"/>
  <anchor x="268" y="0" name="bottom"/>
  <anchor x="420" y="714" name="top"/>
  <anchor x="725" y="714" name="topright"/>
  <outline>
    <contour>
      <point x="-35" y="0" type="line"/>
      <point x="187" y="0" type="line"/>
      <point x="200" y="57" type="line"/>
      <point x="187" y="57" type="line" smooth="yes"/>
      <point x="157" y="57"/>
      <point x="142" y="67"/>
      <point x="142" y="91" type="curve" smooth="yes"/>
      <point x="142" y="105"/>
      <point x="148" y="123"/>
      <point x="160" y="149" type="curve" smooth="yes"/>
      <point x="311" y="473" type="line" smooth="yes"/>
      <point x="340" y="536"/>
      <point x="353" y="562"/>
      <point x="370" y="610" type="curve"/>
      <point x="369" y="562"/>
      <point x="371" y="523"/>
      <point x="373" y="464" type="curve" smooth="yes"/>
      <point x="386" y="127" type="line" smooth="yes"/>
      <point x="386" y="120"/>
      <point x="387" y="112"/>
      <point x="387" y="105" type="curve" smooth="yes"/>
      <point x="387" y="69"/>
      <point x="365" y="57"/>
      <point x="329" y="57" type="curve" smooth="yes"/>
      <point x="310" y="57" type="line"/>
      <point x="297" y="0" type="line"/>
      <point x="609" y="0" type="line"/>
      <point x="623" y="57" type="line"/>
      <point x="604" y="57" type="line" smooth="yes"/>
      <point x="569" y="57"/>
      <point x="559" y="99"/>
      <point x="557" y="147" type="curve"/>
      <point x="519" y="714" type="line"/>
      <point x="363" y="714" type="line"/>
      <point x="70" y="135" type="line" smooth="yes"/>
      <point x="39" y="72"/>
      <point x="27" y="57"/>
      <point x="-2" y="57" type="curve" smooth="yes"/>
      <point x="-21" y="57" type="line"/>
    </contour>
    <contour>
      <point x="169" y="234" type="line"/>
      <point x="473" y="234" type="line"/>
      <point x="475" y="298" type="line"/>
      <point x="171" y="298" type="line"/>
    </contour>
  </outline>
</glyph>
<glyph name="B" format="2">
  <advance width="517"/>
  <unicode hex="0042"/>
  <anchor x="216" y="0" name="bottom"/>
  <anchor x="354" y="714" name="top"/>
  <anchor x="592" y="714" name="topright"/>
  <outline>
    <contour>
      <point x="-5" y="0" type="line"/>
      <point x="223" y="0" type="line" smooth="yes"/>
      <point x="388" y="0"/>
      <point x="473" y="118"/>
      <point x="473" y="240" type="curve" smooth="yes"/>
      <point x="473" y="304"/>
      <point x="445" y="351"/>
      <point x="402" y="370" type="curve"/>
      <point x="402" y="374" type="line"/>
      <point x="489" y="404"/>
      <point x="530" y="477"/>
      <point x="530" y="560" type="curve" smooth="yes"/>
      <point x="530" y="677"/>
      <point x="437" y="714"/>
      <point x="340" y="714" type="curve" smooth="yes"/>
      <point x="146" y="714" type="line"/>
    </contour>
    <contour>
      <point x="222" y="141" type="curve" smooth="yes"/>
      <point x="192" y="141" type="line"/>
      <point x="226" y="303" type="line"/>
      <point x="257" y="303" type="line" smooth="yes"/>
      <point x="286" y="303"/>
      <point x="301" y="285"/>
      <point x="301" y="250" type="curve" smooth="yes"/>
      <point x="301" y="193"/>
      <point x="275" y="141"/>
    </contour>
    <contour>
      <point x="281" y="436" type="curve" smooth="yes"/>
      <point x="254" y="436" type="line"/>
      <point x="284" y="576" type="line"/>
      <point x="308" y="576" type="line" smooth="yes"/>
      <point x="338" y="576"/>
      <point x="353" y="561"/>
      <point x="353" y="532" type="curve" smooth="yes"/>
      <point x="353" y="485"/>
      <point x="325" y="436"/>
    </contour>
  </outline>
</glyph>
<glyph name="B.serif" format="2">
  <advance width="575"/>
  <unicode hex="0042"/>
  <anchor x="231" y="0" name="bottom"/>
  <anchor x="383" y="714" name="top"/>
  <anchor x="650" y="714" name="topright"/>
  <outline>
    <contour>
      <point x="-21" y="0" type="line"/>
      <point x="253" y="0" type="line" smooth="yes"/>
      <point x="453" y="0"/>
      <point x="558" y="60"/>
      <point x="558" y="234" type="curve" smooth="yes"/>
      <point x="558" y="312"/>
      <point x="520" y="362"/>
      <point x="464" y="374" type="curve"/>
      <point x="465" y="378" type="line"/>
      <point x="544" y="400"/>
      <point x="605" y="458"/>
      <point x="605" y="568" type="curve" smooth="yes"/>
      <point x="605" y="664"/>
      <point x="542" y="714"/>
      <point x="420" y="714" type="curve" smooth="yes"/>
      <point x="129" y="714" type="line"/>
      <point x="117" y="657" type="line"/>
      <point x="127" y="657" type="line" smooth="yes"/>
      <point x="163" y="657"/>
      <point x="184" y="652"/>
      <point x="184" y="627" type="curve" smooth="yes"/>
      <point x="184" y="621"/>
      <point x="180" y="606"/>
      <point x="177" y="591" type="curve" smooth="yes"/>
      <point x="77" y="112" type="line" smooth="yes"/>
      <point x="67" y="64"/>
      <point x="36" y="57"/>
      <point x="3" y="57" type="curve" smooth="yes"/>
      <point x="-7" y="57" type="line"/>
    </contour>
    <contour>
      <point x="273" y="65" type="curve" smooth="yes"/>
      <point x="238" y="65" type="line"/>
      <point x="295" y="341" type="line"/>
      <point x="331" y="341" type="line" smooth="yes"/>
      <point x="365" y="341"/>
      <point x="382" y="310"/>
      <point x="382" y="250" type="curve" smooth="yes"/>
      <point x="382" y="137"/>
      <point x="356" y="65"/>
    </contour>
    <contour>
      <point x="341" y="407" type="curve" smooth="yes"/>
      <point x="310" y="407" type="line"/>
      <point x="358" y="649" type="line"/>
      <point x="382" y="649" type="line" smooth="yes"/>
      <point x="409" y="649"/>
      <point x="423" y="624"/>
      <point x="423" y="573" type="curve" smooth="yes"/>
      <point x="423" y="477"/>
      <point x="401" y="407"/>
    </contour>
  </outline>
</glyph>
<glyph name="C" format="2">
  <advance width="471"/>
  <unicode hex="0043"/>
  <anchor x="214" y="0" name="bottom"/>
  <anchor x="365" y="714" name="top"/>
  <anchor x="546" y="714" name="topright"/>
  <outline>
    <contour>
      <point x="218" y="-10" type="curve" smooth="yes"/>
      <point x="274" y="-10"/>
      <point x="341" y="1"/>
      <point x="392" y="27" type="curve"/>
      <point x="392" y="175" type="line"/>
      <point x="351" y="154"/>
      <point x="308" y="137"/>
      <point x="264" y="137" type="curve" smooth="yes"/>
      <point x="230" y="137"/>
      <point x="211" y="162"/>
      <point x="211" y="227" type="curve" smooth="yes"/>
      <point x="211" y="315"/>
      <point x="259" y="578"/>
      <point x="368" y="578" type="curve" smooth="yes"/>
      <point x="396" y="578"/>
      <point x="423" y="566"/>
      <point x="455" y="541" type="curve"/>
      <point x="533" y="673" type="line"/>
      <point x="483" y="711"/>
      <point x="421" y="724"/>
      <point x="361" y="724" type="curve" smooth="yes"/>
      <point x="157" y="724"/>
      <point x="34" y="455"/>
      <point x="34" y="219" type="curve" smooth="yes"/>
      <point x="34" y="80"/>
      <point x="97" y="-10"/>
    </contour>
  </outline>
</glyph>
<glyph name="C.serif" format="2">
  <advance width="575"/>
  <unicode hex="0043"/>
  <anchor x="301" y="0" name="bottom"/>
  <anchor x="453" y="714" name="top"/>
  <anchor x="650" y="714" name="topright"/>
  <outline>
    <contour>
      <point x="327" y="-10" type="curve" smooth="yes"/>
      <point x="454" y="-10"/>
      <point x="541" y="67"/>
      <point x="541" y="138" type="curve" smooth="yes"/>
      <point x="541" y="153"/>
      <point x="531" y="166"/>
      <point x="525" y="172" type="curve"/>
      <point x="497" y="127"/>
      <point x="452" y="81"/>
      <point x="378" y="81" type="curve" smooth="yes"/>
      <point x="292" y="81"/>
      <point x="248" y="140"/>
      <point x="248" y="253" type="curve" smooth="yes"/>
      <point x="248" y="411"/>
      <point x="322" y="662"/>
      <point x="435" y="662" type="curve" smooth="yes"/>
      <point x="485" y="662"/>
      <point x="489" y="570"/>
      <point x="487" y="513" type="curve"/>
      <point x="572" y="513"/>
      <point x="638" y="548"/>
      <point x="638" y="619" type="curve" smooth="yes"/>
      <point x="638" y="684"/>
      <point x="588" y="729"/>
      <point x="471" y="729" type="curve" smooth="yes"/>
      <point x="233" y="729"/>
      <point x="69" y="488"/>
      <point x="69" y="245" type="curve" smooth="yes"/>
      <point x="69" y="83"/>
      <point x="164" y="-10"/>
    </contour>
  </outline>
</glyph>
<glyph name="D" format="2">
  <advance width="543"/>
  <unicode hex="0044"/>
  <anchor x="216" y="0" name="bottom"/>
  <anchor x="309" y="357" name="center"/>
  <anchor x="367" y="714" name="top"/>
  <anchor x="618" y="714" name="topright"/>
  <outline>
    <contour>
      <point x="-5" y="0" type="line"/>
      <point x="178" y="0" type="line" smooth="yes"/>
      <point x="434" y="0"/>
      <point x="544" y="264"/>
      <point x="544" y="487" type="curve" smooth="yes"/>
      <point x="544" y="628"/>
      <point x="463" y="714"/>
      <point x="310" y="714" type="curve" smooth="yes"/>
      <point x="146" y="714" type="line"/>
    </contour>
    <contour>
      <point x="203" y="148" type="curve" smooth="yes"/>
      <point x="193" y="148" type="line"/>
      <point x="282" y="567" type="line"/>
      <point x="296" y="567" type="line" smooth="yes"/>
      <point x="344" y="567"/>
      <point x="368" y="536"/>
      <point x="368" y="469" type="curve" smooth="yes"/>
      <point x="368" y="370"/>
      <point x="324" y="148"/>
    </contour>
  </outline>
</glyph>
<glyph name="D.serif" format="2">
  <advance width="659"/>
  <unicode hex="0044"/>
  <anchor x="273" y="0" name="bottom"/>
  <anchor x="368" y="357" name="center"/>
  <anchor x="425" y="714" name="top"/>
  <anchor x="734" y="714" name="topright"/>
  <outline>
    <contour>
      <point x="-21" y="0" type="line"/>
      <point x="293" y="0" type="line" smooth="yes"/>
      <point x="533" y="0"/>
      <point x="672" y="216"/>
      <point x="672" y="458" type="curve" smooth="yes"/>
      <point x="672" y="624"/>
      <point x="579" y="714"/>
      <point x="420" y="714" type="curve" smooth="yes"/>
      <point x="130" y="714" type="line"/>
      <point x="117" y="657" type="line"/>
      <point x="127" y="657" type="line" smooth="yes"/>
      <point x="164" y="657"/>
      <point x="184" y="652"/>
      <point x="184" y="627" type="curve" smooth="yes"/>
      <point x="184" y="618"/>
      <point x="179" y="603"/>
      <point x="175" y="584" type="curve" smooth="yes"/>
      <point x="77" y="112" type="line" smooth="yes"/>
      <point x="67" y="64"/>
      <point x="36" y="57"/>
      <point x="4" y="57" type="curve" smooth="yes"/>
      <point x="-8" y="57" type="line"/>
    </contour>
    <contour>
      <point x="245" y="66" type="curve" smooth="yes"/>
      <point x="238" y="66" type="line"/>
      <point x="358" y="649" type="line"/>
      <point x="367" y="649" type="line" smooth="yes"/>
      <point x="444" y="649"/>
      <point x="491" y="592"/>
      <point x="491" y="467" type="curve" smooth="yes"/>
      <point x="491" y="239"/>
      <point x="399" y="66"/>
    </contour>
  </outline>
</glyph>
<glyph name="E" format="2">
  <advance width="419"/>
  <unicode hex="0045"/>
  <anchor x="154" y="0" name="bottom"/>
  <anchor x="305" y="714" name="top"/>
  <anchor x="494" y="714" name="topright"/>
  <outline>
    <contour>
      <point x="-5" y="0" type="line"/>
      <point x="319" y="0" type="line"/>
      <point x="350" y="146" type="line"/>
      <point x="192" y="146" type="line"/>
      <point x="225" y="297" type="line"/>
      <point x="370" y="297" type="line"/>
      <point x="401" y="441" type="line"/>
      <point x="255" y="441" type="line"/>
      <point x="283" y="570" type="line"/>
      <point x="440" y="570" type="line"/>
      <point x="470" y="714" type="line"/>
      <point x="146" y="714" type="line"/>
    </contour>
  </outline>
</glyph>
<glyph name="E.serif" format="2">
  <advance width="542"/>
  <unicode hex="0045"/>
  <anchor x="214" y="0" name="bottom"/>
  <anchor x="366" y="714" name="top"/>
  <anchor x="617" y="714" name="topright"/>
  <outline>
    <contour>
      <point x="-21" y="0" type="line"/>
      <point x="476" y="0" type="line"/>
      <point x="523" y="190" type="line"/>
      <point x="451" y="190" type="line"/>
      <point x="436" y="147" type="line" smooth="yes"/>
      <point x="421" y="103"/>
      <point x="392" y="65"/>
      <point x="341" y="65" type="curve" smooth="yes"/>
      <point x="237" y="65" type="line"/>
      <point x="294" y="341" type="line"/>
      <point x="469" y="341" type="line"/>
      <point x="484" y="405" type="line"/>
      <point x="310" y="405" type="line"/>
      <point x="360" y="649" type="line"/>
      <point x="442" y="649" type="line" smooth="yes"/>
      <point x="482" y="649"/>
      <point x="498" y="621"/>
      <point x="498" y="587" type="curve" smooth="yes"/>
      <point x="498" y="579"/>
      <point x="492" y="533"/>
      <point x="491" y="524" type="curve"/>
      <point x="563" y="524" type="line"/>
      <point x="601" y="714" type="line"/>
      <point x="129" y="714" type="line"/>
      <point x="117" y="657" type="line"/>
      <point x="127" y="657" type="line" smooth="yes"/>
      <point x="162" y="657"/>
      <point x="185" y="651"/>
      <point x="185" y="626" type="curve" smooth="yes"/>
      <point x="185" y="617"/>
      <point x="182" y="602"/>
      <point x="179" y="590" type="curve" smooth="yes"/>
      <point x="77" y="114" type="line" smooth="yes"/>
      <point x="67" y="65"/>
      <point x="36" y="57"/>
      <point x="3" y="57" type="curve" smooth="yes"/>
      <point x="-7" y="57" type="line"/>
    </contour>
  </outline>
</glyph>
<glyph name="F" format="2">
  <advance width="407"/>
  <unicode hex="0046"/>
  <anchor x="148" y="0" name="bottom"/>
  <anchor x="299" y="714" name="top"/>
  <anchor x="482" y="714" name="topright"/>
  <outline>
    <contour>
      <point x="-5" y="0" type="line"/>
      <point x="162" y="0" type="line"/>
      <point x="219" y="273" type="line"/>
      <point x="363" y="273" type="line"/>
      <point x="394" y="417" type="line"/>
      <point x="250" y="417" type="line"/>
      <point x="283" y="570" type="line"/>
      <point x="439" y="570" type="line"/>
      <point x="469" y="714" type="line"/>
      <point x="146" y="714" type="line"/>
    </contour>
  </outline>
</glyph>
<glyph name="F.serif" format="2">
  <advance width="530"/>
  <unicode hex="0046"/>
  <anchor x="142" y="0" name="bottom"/>
  <anchor x="360" y="714" name="top"/>
  <anchor x="605" y="714" name="topright"/>
  <outline>
    <contour>
      <point x="-21" y="0" type="line"/>
      <point x="294" y="0" type="line"/>
      <point x="308" y="57" type="line"/>
      <point x="289" y="57" type="line" smooth="yes"/>
      <point x="262" y="57"/>
      <point x="243" y="61"/>
      <point x="243" y="85" type="curve" smooth="yes"/>
      <point x="243" y="94"/>
      <point x="244" y="101"/>
      <point x="248" y="119" type="curve" smooth="yes"/>
      <point x="291" y="319" type="line"/>
      <point x="481" y="319" type="line"/>
      <point x="496" y="382" type="line"/>
      <point x="305" y="382" type="line"/>
      <point x="360" y="649" type="line"/>
      <point x="450" y="649" type="line" smooth="yes"/>
      <point x="493" y="649"/>
      <point x="508" y="622"/>
      <point x="508" y="587" type="curve" smooth="yes"/>
      <point x="508" y="579"/>
      <point x="504" y="547"/>
      <point x="502" y="524" type="curve"/>
      <point x="574" y="524" type="line"/>
      <point x="612" y="714" type="line"/>
      <point x="129" y="714" type="line"/>
      <point x="117" y="657" type="line"/>
      <point x="127" y="657" type="line" smooth="yes"/>
      <point x="160" y="657"/>
      <point x="184" y="653"/>
      <point x="184" y="626" type="curve" smooth="yes"/>
      <point x="184" y="612"/>
      <point x="176" y="578"/>
      <point x="172" y="557" type="curve" smooth="yes"/>
      <point x="77" y="114" type="line"/>
      <point x="69" y="65"/>
      <point x="36" y="57"/>
      <point x="3" y="57" type="curve" smooth="yes"/>
      <point x="-7" y="57" type="line"/>
    </contour>
  </outline>
</glyph>
<glyph name="G" format="2">
  <advance width="548"/>
  <unicode hex="0047"/>
  <anchor x="218" y="0" name="bottom"/>
  <anchor x="369" y="714" name="top"/>
  <anchor x="623" y="714" name="topright"/>
  <outline>
    <contour>
      <point x="256" y="-10" type="curve" smooth="yes"/>
      <point x="303" y="-10"/>
      <point x="378" y="5"/>
      <point x="454" y="35" type="curve"/>
      <point x="535" y="418" type="line"/>
      <point x="301" y="418" type="line"/>
      <point x="272" y="276" type="line"/>
      <point x="341" y="276" type="line"/>
      <point x="313" y="143" type="line"/>
      <point x="298" y="139"/>
      <point x="283" y="137"/>
      <point x="270" y="137" type="curve" smooth="yes"/>
      <point x="231" y="137"/>
      <point x="211" y="172"/>
      <point x="211" y="240" type="curve" smooth="yes"/>
      <point x="211" y="380"/>
      <point x="281" y="578"/>
      <point x="389" y="578" type="curve" smooth="yes"/>
      <point x="431" y="578"/>
      <point x="472" y="563"/>
      <point x="508" y="537" type="curve"/>
      <point x="579" y="678" type="line"/>
      <point x="541" y="705"/>
      <point x="475" y="724"/>
      <point x="406" y="724" type="curve" smooth="yes"/>
      <point x="150" y="724"/>
      <point x="36" y="448"/>
      <point x="36" y="223" type="curve" smooth="yes"/>
      <point x="36" y="76"/>
      <point x="105" y="-10"/>
    </contour>
  </outline>
</glyph>
<glyph name="G.serif" format="2">
  <advance width="704"/>
  <unicode hex="0047"/>
  <anchor x="315" y="0" name="bottom"/>
  <anchor x="477" y="714" name="top"/>
  <anchor x="779" y="714" name="topright"/>
  <outline>
    <contour>
      <point x="322" y="-10" type="curve" smooth="yes"/>
      <point x="409" y="-10"/>
      <point x="473" y="5"/>
      <point x="548" y="36" type="curve"/>
      <point x="589" y="231" type="line" smooth="yes"/>
      <point x="599" y="281"/>
      <point x="632" y="288"/>
      <point x="671" y="288" type="curve" smooth="yes"/>
      <point x="675" y="288" type="line"/>
      <point x="687" y="345" type="line"/>
      <point x="366" y="345" type="line"/>
      <point x="353" y="288" type="line"/>
      <point x="367" y="288" type="line" smooth="yes"/>
      <point x="403" y="288"/>
      <point x="424" y="283"/>
      <point x="424" y="257" type="curve" smooth="yes"/>
      <point x="424" y="252"/>
      <point x="421" y="239"/>
      <point x="417" y="220" type="curve" smooth="yes"/>
      <point x="384" y="76" type="line"/>
      <point x="368" y="68"/>
      <point x="348" y="62"/>
      <point x="329" y="62" type="curve" smooth="yes"/>
      <point x="268" y="62"/>
      <point x="244" y="128"/>
      <point x="244" y="223" type="curve" smooth="yes"/>
      <point x="244" y="445"/>
      <point x="339" y="656"/>
      <point x="455" y="656" type="curve" smooth="yes"/>
      <point x="512" y="656"/>
      <point x="534" y="589"/>
      <point x="531" y="503" type="curve"/>
      <point x="615" y="503"/>
      <point x="683" y="541"/>
      <point x="683" y="604" type="curve" smooth="yes"/>
      <point x="683" y="663"/>
      <point x="615" y="724"/>
      <point x="484" y="724" type="curve" smooth="yes"/>
      <point x="237" y="724"/>
      <point x="69" y="505"/>
      <point x="69" y="244" type="curve" smooth="yes"/>
      <point x="69" y="88"/>
      <point x="155" y="-10"/>
    </contour>
  </outline>
</glyph>
<glyph name="H" format="2">
  <advance width="563"/>
  <unicode hex="0048"/>
  <anchor x="226" y="0" name="bottom"/>
  <anchor x="319" y="357" name="center"/>
  <anchor x="377" y="714" name="top"/>
  <anchor x="638" y="714" name="topright"/>
  <outline>
    <contour>
      <point x="-5" y="0" type="line"/>
      <point x="162" y="0" type="line"/>
      <point x="225" y="298" type="line"/>
      <point x="348" y="298" type="line"/>
      <point x="285" y="0" type="line"/>
      <point x="452" y="0" type="line"/>
      <point x="604" y="714" type="line"/>
      <point x="437" y="714" type="line"/>
      <point x="379" y="444" type="line"/>
      <point x="256" y="444" type="line"/>
      <point x="313" y="714" type="line"/>
      <point x="146" y="714" type="line"/>
    </contour>
  </outline>
</glyph>
<glyph name="H.serif" format="2">
  <advance width="688"/>
  <unicode hex="0048"/>
  <anchor x="287" y="0" name="bottom"/>
  <anchor x="363" y="357" name="center"/>
  <anchor x="439" y="714" name="top"/>
  <anchor x="763" y="714" name="topright"/>
  <outline>
    <contour>
      <point x="-21" y="0" type="line"/>
      <point x="291" y="0" type="line"/>
      <point x="304" y="57" type="line"/>
      <point x="293" y="57" type="line" smooth="yes"/>
      <point x="252" y="57"/>
      <point x="243" y="65"/>
      <point x="243" y="84" type="curve" smooth="yes"/>
      <point x="243" y="93"/>
      <point x="245" y="103"/>
      <point x="248" y="116" type="curve" smooth="yes"/>
      <point x="295" y="340" type="line"/>
      <point x="460" y="340" type="line"/>
      <point x="414" y="114" type="line" smooth="yes"/>
      <point x="404" y="64"/>
      <point x="375" y="57"/>
      <point x="346" y="57" type="curve" smooth="yes"/>
      <point x="336" y="57" type="line"/>
      <point x="322" y="0" type="line"/>
      <point x="635" y="0" type="line"/>
      <point x="648" y="57" type="line"/>
      <point x="637" y="57" type="line" smooth="yes"/>
      <point x="588" y="57"/>
      <point x="579" y="69"/>
      <point x="579" y="84" type="curve" smooth="yes"/>
      <point x="579" y="93"/>
      <point x="582" y="103"/>
      <point x="585" y="119" type="curve" smooth="yes"/>
      <point x="685" y="600" type="line" smooth="yes"/>
      <point x="695" y="650"/>
      <point x="729" y="657"/>
      <point x="763" y="657" type="curve" smooth="yes"/>
      <point x="773" y="657" type="line"/>
      <point x="786" y="714" type="line"/>
      <point x="473" y="714" type="line"/>
      <point x="460" y="657" type="line"/>
      <point x="471" y="657" type="line" smooth="yes"/>
      <point x="513" y="657"/>
      <point x="522" y="647"/>
      <point x="522" y="632" type="curve" smooth="yes"/>
      <point x="522" y="622"/>
      <point x="519" y="612"/>
      <point x="515" y="595" type="curve" smooth="yes"/>
      <point x="474" y="405" type="line"/>
      <point x="310" y="405" type="line"/>
      <point x="349" y="600" type="line" smooth="yes"/>
      <point x="359" y="650"/>
      <point x="388" y="657"/>
      <point x="419" y="657" type="curve" smooth="yes"/>
      <point x="429" y="657" type="line"/>
      <point x="442" y="714" type="line"/>
      <point x="129" y="714" type="line"/>
      <point x="117" y="657" type="line"/>
      <point x="127" y="657" type="line" smooth="yes"/>
      <point x="177" y="657"/>
      <point x="185" y="648"/>
      <point x="185" y="632" type="curve" smooth="yes"/>
      <point x="185" y="624"/>
      <point x="182" y="611"/>
      <point x="178" y="589" type="curve" smooth="yes"/>
      <point x="77" y="112" type="line" smooth="yes"/>
      <point x="67" y="64"/>
      <point x="36" y="57"/>
      <point x="3" y="57" type="curve" smooth="yes"/>
      <point x="-7" y="57" type="line"/>
    </contour>
  </outline>
</glyph>
<glyph name="I" format="2">
  <advance width="373"/>
  <unicode hex="0049"/>
  <anchor x="131" y="0" name="bottom"/>
  <anchor x="278" y="714" name="top"/>
  <anchor x="448" y="714" name="topright"/>
  <outline>
    <contour>
      <point x="-37" y="0" type="line"/>
      <point x="297" y="0" type="line"/>
      <point x="315" y="86" type="line"/>
      <point x="239" y="126" type="line"/>
      <point x="337" y="588" type="line"/>
      <point x="430" y="628" type="line"/>
      <point x="448" y="714" type="line"/>
      <point x="114" y="714" type="line"/>
      <point x="96" y="628" type="line"/>
      <point x="170" y="588" type="line"/>
      <point x="72" y="126" type="line"/>
      <point x="-19" y="86" type="line"/>
    </contour>
  </outline>
</glyph>
<glyph name="I.serif" format="2">
  <advance width="353"/>
  <unicode hex="0049"/>
  <anchor x="120" y="0" name="bottom"/>
  <anchor x="272" y="714" name="top"/>
  <anchor x="428" y="714" name="topright"/>
  <outline>
    <contour>
      <point x="-21" y="0" type="line"/>
      <point x="300" y="0" type="line"/>
      <point x="313" y="57" type="line"/>
      <point x="302" y="57" type="line" smooth="yes"/>
      <point x="268" y="57"/>
      <point x="243" y="61"/>
      <point x="243" y="87" type="curve" smooth="yes"/>
      <point x="243" y="99"/>
      <point x="248" y="113"/>
      <point x="253" y="136" type="curve" smooth="yes"/>
      <point x="351" y="600" type="line" smooth="yes"/>
      <point x="361" y="650"/>
      <point x="392" y="657"/>
      <point x="428" y="657" type="curve" smooth="yes"/>
      <point x="439" y="657" type="line"/>
      <point x="451" y="714" type="line"/>
      <point x="129" y="714" type="line"/>
      <point x="117" y="657" type="line"/>
      <point x="127" y="657" type="line" smooth="yes"/>
      <point x="162" y="657"/>
      <point x="185" y="653"/>
      <point x="185" y="627" type="curve" smooth="yes"/>
      <point x="185" y="621"/>
      <point x="184" y="610"/>
      <point x="179" y="589" type="curve" smooth="yes"/>
      <point x="77" y="112" type="line" smooth="yes"/>
      <point x="67" y="64"/>
      <point x="36" y="57"/>
      <point x="3" y="57" type="curve" smooth="yes"/>
      <point x="-7" y="57" type="line"/>
    </contour>
  </outline>
</glyph>
<glyph name="J" format="2">
  <advance width="275"/>
  <unicode hex="004A"/>
  <anchor x="-64" y="-224" name="bottom"/>
  <anchor x="233" y="714" name="top"/>
  <anchor x="350" y="714" name="topright"/>
  <outline>
    <contour>
      <point x="-64" y="-224" type="curve" smooth="yes"/>
      <point x="49" y="-224"/>
      <point x="132" y="-155"/>
      <point x="170" y="23" type="curve" smooth="yes"/>
      <point x="316" y="714" type="line"/>
      <point x="149" y="714" type="line"/>
      <point x="7" y="47" type="line" smooth="yes"/>
      <point x="-3" y="-2"/>
      <point x="-20" y="-80"/>
      <point x="-74" y="-80" type="curve" smooth="yes"/>
      <point x="-91" y="-80"/>
      <point x="-108" y="-75"/>
      <point x="-127" y="-66" type="curve"/>
      <point x="-158" y="-212" type="line"/>
      <point x="-133" y="-220"/>
      <point x="-106" y="-224"/>
    </contour>
  </outline>
</glyph>
<glyph name="J.serif" format="2">
  <advance width="360"/>
  <unicode hex="004A"/>
  <anchor x="-65" y="-240" name="bottom"/>
  <anchor x="275" y="714" name="top"/>
  <anchor x="435" y="714" name="topright"/>
  <outline>
    <contour>
      <point x="-65" y="-240" type="curve" smooth="yes"/>
      <point x="64" y="-240"/>
      <point x="189" y="-179"/>
      <point x="226" y="-1" type="curve" smooth="yes"/>
      <point x="353" y="600" type="line" smooth="yes"/>
      <point x="363" y="650"/>
      <point x="396" y="657"/>
      <point x="432" y="657" type="curve" smooth="yes"/>
      <point x="442" y="657" type="line"/>
      <point x="454" y="714" type="line"/>
      <point x="132" y="714" type="line"/>
      <point x="120" y="657" type="line"/>
      <point x="131" y="657" type="line" smooth="yes"/>
      <point x="164" y="657"/>
      <point x="188" y="653"/>
      <point x="188" y="627" type="curve" smooth="yes"/>
      <point x="188" y="621"/>
      <point x="186" y="611"/>
      <point x="184" y="604" type="curve" smooth="yes"/>
      <point x="57" y="-1" type="line" smooth="yes"/>
      <point x="26" y="-144"/>
      <point x="-17" y="-180"/>
      <point x="-74" y="-180" type="curve" smooth="yes"/>
      <point x="-90" y="-180"/>
      <point x="-112" y="-176"/>
      <point x="-126" y="-171" type="curve"/>
      <point x="-140" y="-229" type="line"/>
      <point x="-118" y="-236"/>
      <point x="-97" y="-240"/>
    </contour>
  </outline>
</glyph>
<glyph name="K" format="2">
  <advance width="512"/>
  <unicode hex="004B"/>
  <anchor x="200" y="0" name="bottom"/>
  <anchor x="351" y="714" name="top"/>
  <anchor x="587" y="714" name="topright"/>
  <outline>
    <contour>
      <point x="-5" y="0" type="line"/>
      <point x="162" y="0" type="line"/>
      <point x="213" y="242" type="line"/>
      <point x="242" y="260" type="line"/>
      <point x="278" y="0" type="line"/>
      <point x="462" y="0" type="line"/>
      <point x="389" y="377" type="line"/>
      <point x="615" y="714" type="line"/>
      <point x="431" y="714" type="line"/>
      <point x="288" y="495" type="line"/>
      <point x="253" y="427" type="line"/>
      <point x="313" y="714" type="line"/>
      <point x="146" y="714" type="line"/>
    </contour>
  </outline>
</glyph>
<glyph name="K.serif" format="2">
  <advance width="635"/>
  <unicode hex="004B"/>
  <anchor x="261" y="0" name="bottom"/>
  <anchor x="413" y="714" name="top"/>
  <anchor x="710" y="714" name="topright"/>
  <outline>
    <contour>
      <point x="-21" y="0" type="line"/>
      <point x="300" y="0" type="line"/>
      <point x="313" y="57" type="line"/>
      <point x="302" y="57" type="line" smooth="yes"/>
      <point x="268" y="57"/>
      <point x="243" y="61"/>
      <point x="243" y="87" type="curve" smooth="yes"/>
      <point x="243" y="93"/>
      <point x="245" y="102"/>
      <point x="248" y="115" type="curve" smooth="yes"/>
      <point x="287" y="294" type="line"/>
      <point x="369" y="371" type="line"/>
      <point x="293" y="366" type="line"/>
      <point x="345" y="172" type="line" smooth="yes"/>
      <point x="382" y="34"/>
      <point x="412" y="0"/>
      <point x="527" y="0" type="curve" smooth="yes"/>
      <point x="597" y="0" type="line"/>
      <point x="609" y="57" type="line"/>
      <point x="606" y="57" type="line" smooth="yes"/>
      <point x="570" y="57"/>
      <point x="559" y="85"/>
      <point x="535" y="166" type="curve" smooth="yes"/>
      <point x="443" y="475" type="line"/>
      <point x="391" y="391" type="line"/>
      <point x="574" y="579" type="line" smooth="yes"/>
      <point x="628" y="635"/>
      <point x="665" y="658"/>
      <point x="713" y="658" type="curve"/>
      <point x="727" y="714" type="line"/>
      <point x="470" y="714" type="line"/>
      <point x="456" y="658" type="line"/>
      <point x="483" y="658"/>
      <point x="491" y="648"/>
      <point x="491" y="632" type="curve" smooth="yes"/>
      <point x="491" y="611"/>
      <point x="487" y="581"/>
      <point x="441" y="529" type="curve" smooth="yes"/>
      <point x="308" y="377" type="line"/>
      <point x="349" y="600" type="line" smooth="yes"/>
      <point x="359" y="650"/>
      <point x="388" y="657"/>
      <point x="419" y="657" type="curve" smooth="yes"/>
      <point x="429" y="657" type="line"/>
      <point x="442" y="714" type="line"/>
      <point x="129" y="714" type="line"/>
      <point x="117" y="657" type="line"/>
      <point x="127" y="657" type="line" smooth="yes"/>
      <point x="161" y="657"/>
      <point x="185" y="653"/>
      <point x="185" y="627" type="curve" smooth="yes"/>
      <point x="185" y="621"/>
      <point x="182" y="612"/>
      <point x="178" y="589" type="curve" smooth="yes"/>
      <point x="77" y="112" type="line" smooth="yes"/>
      <point x="67" y="64"/>
      <point x="35" y="57"/>
      <point x="3" y="57" type="curve" smooth="yes"/>
      <point x="-7" y="57" type="line"/>
    </contour>
  </outline>
</glyph>
<glyph name="L" format="2">
  <advance width="400"/>
  <unicode hex="004C"/>
  <anchor x="144" y="0" name="bottom"/>
  <anchor x="237" y="357" name="center"/>
  <anchor x="295" y="714" name="top"/>
  <anchor x="439" y="714" name="topright"/>
  <outline>
    <contour>
      <point x="-5" y="0" type="line"/>
      <point x="330" y="0" type="line"/>
      <point x="360" y="146" type="line"/>
      <point x="192" y="146" type="line"/>
      <point x="313" y="714" type="line"/>
      <point x="146" y="714" type="line"/>
    </contour>
  </outline>
</glyph>
<glyph name="L.serif" format="2">
  <advance width="556"/>
  <unicode hex="004C"/>
  <anchor x="221" y="0" name="bottom"/>
  <anchor x="316" y="357" name="center"/>
  <anchor x="373" y="714" name="top"/>
  <anchor x="631" y="714" name="topright"/>
  <outline>
    <contour>
      <point x="-21" y="0" type="line"/>
      <point x="494" y="0" type="line"/>
      <point x="550" y="226" type="line"/>
      <point x="490" y="226" type="line"/>
      <point x="477" y="181" type="line" smooth="yes"/>
      <point x="451" y="96"/>
      <point x="421" y="65"/>
      <point x="353" y="65" type="curve" smooth="yes"/>
      <point x="239" y="65" type="line"/>
      <point x="348" y="599" type="line" smooth="yes"/>
      <point x="358" y="649"/>
      <point x="391" y="657"/>
      <point x="427" y="657" type="curve" smooth="yes"/>
      <point x="438" y="657" type="line"/>
      <point x="451" y="714" type="line"/>
      <point x="129" y="714" type="line"/>
      <point x="116" y="657" type="line"/>
      <point x="127" y="657" type="line" smooth="yes"/>
      <point x="161" y="657"/>
      <point x="184" y="653"/>
      <point x="184" y="627" type="curve" smooth="yes"/>
      <point x="184" y="618"/>
      <point x="181" y="606"/>
      <point x="177" y="589" type="curve" smooth="yes"/>
      <point x="77" y="112" type="line" smooth="yes"/>
      <point x="67" y="64"/>
      <point x="35" y="57"/>
      <point x="2" y="57" type="curve" smooth="yes"/>
      <point x="-9" y="57" type="line"/>
    </contour>
  </outline>
</glyph>
<glyph name="M" format="2">
  <advance width="742"/>
  <unicode hex="004D"/>
  <anchor x="315" y="0" name="bottom"/>
  <anchor x="466" y="714" name="top"/>
  <anchor x="817" y="714" name="topright"/>
  <outline>
    <contour>
      <point x="-5" y="0" type="line"/>
      <point x="152" y="0" type="line"/>
      <point x="213" y="286" type="line" smooth="yes"/>
      <point x="220" y="318"/>
      <point x="225" y="354"/>
      <point x="231" y="394" type="curve"/>
      <point x="234" y="394" type="line"/>
      <point x="242" y="0" type="line"/>
      <point x="378" y="0" type="line"/>
      <point x="554" y="400" type="line"/>
      <point x="557" y="400" type="line"/>
      <point x="550" y="374"/>
      <point x="542" y="349"/>
      <point x="537" y="323" type="curve" smooth="yes"/>
      <point x="468" y="0" type="line"/>
      <point x="630" y="0" type="line"/>
      <point x="782" y="714" type="line"/>
      <point x="551" y="714" type="line"/>
      <point x="376" y="302" type="line"/>
      <point x="373" y="302" type="line"/>
      <point x="363" y="714" type="line"/>
      <point x="146" y="714" type="line"/>
    </contour>
  </outline>
</glyph>
<glyph name="N" format="2">
  <advance width="605"/>
  <unicode hex="004E"/>
  <anchor x="247" y="0" name="bottom"/>
  <anchor x="398" y="714" name="top"/>
  <anchor x="680" y="714" name="topright"/>
  <outline>
    <contour>
      <point x="-5" y="0" type="line"/>
      <point x="151" y="0" type="line"/>
      <point x="209" y="271" type="line" smooth="yes"/>
      <point x="216" y="305"/>
      <point x="224" y="359"/>
      <point x="233" y="421" type="curve"/>
      <point x="235" y="421" type="line"/>
      <point x="309" y="0" type="line"/>
      <point x="495" y="0" type="line"/>
      <point x="646" y="714" type="line"/>
      <point x="489" y="714" type="line"/>
      <point x="432" y="447" type="line" smooth="yes"/>
      <point x="425" y="412"/>
      <point x="416" y="359"/>
      <point x="408" y="306" type="curve"/>
      <point x="405" y="306" type="line"/>
      <point x="331" y="714" type="line"/>
      <point x="146" y="714" type="line"/>
    </contour>
  </outline>
</glyph>
<glyph name="O" format="2">
  <advance width="574"/>
  <unicode hex="004F"/>
  <anchor x="231" y="0" name="bottom"/>
  <anchor x="324" y="357" name="center"/>
  <anchor x="382" y="714" name="top"/>
  <anchor x="649" y="714" name="topright"/>
  <outline>
    <contour>
      <point x="243" y="-10" type="curve" smooth="yes"/>
      <point x="480" y="-10"/>
      <point x="574" y="292"/>
      <point x="574" y="484" type="curve" smooth="yes"/>
      <point x="574" y="642"/>
      <point x="513" y="725"/>
      <point x="369" y="725" type="curve" smooth="yes"/>
      <point x="154" y="725"/>
      <point x="35" y="457"/>
      <point x="35" y="232" type="curve" smooth="yes"/>
      <point x="35" y="65"/>
      <point x="101" y="-10"/>
    </contour>
    <contour>
      <point x="255" y="139" type="curve" smooth="yes"/>
      <point x="226" y="139"/>
      <point x="210" y="156"/>
      <point x="210" y="231" type="curve" smooth="yes"/>
      <point x="210" y="347"/>
      <point x="263" y="579"/>
      <point x="355" y="579" type="curve" smooth="yes"/>
      <point x="384" y="579"/>
      <point x="400" y="550"/>
      <point x="400" y="489" type="curve" smooth="yes"/>
      <point x="400" y="373"/>
      <point x="347" y="139"/>
    </contour>
  </outline>
</glyph>
<glyph name="O.serif" format="2">
  <advance width="684"/>
  <unicode hex="004F"/>
  <anchor x="285" y="0" name="bottom"/>
  <anchor x="380" y="357" name="center"/>
  <anchor x="437" y="714" name="top"/>
  <anchor x="759" y="714" name="topright"/>
  <outline>
    <contour>
      <point x="300" y="-11" type="curve" smooth="yes"/>
      <point x="557" y="-11"/>
      <point x="686" y="280"/>
      <point x="686" y="466" type="curve" smooth="yes"/>
      <point x="686" y="645"/>
      <point x="580" y="725"/>
      <point x="454" y="725" type="curve" smooth="yes"/>
      <point x="205" y="725"/>
      <point x="69" y="445"/>
      <point x="69" y="250" type="curve" smooth="yes"/>
      <point x="69" y="80"/>
      <point x="168" y="-11"/>
    </contour>
    <contour>
      <point x="329" y="59" type="curve" smooth="yes"/>
      <point x="280" y="59"/>
      <point x="242" y="109"/>
      <point x="242" y="224" type="curve" smooth="yes"/>
      <point x="242" y="374"/>
      <point x="305" y="656"/>
      <point x="425" y="656" type="curve" smooth="yes"/>
      <point x="479" y="656"/>
      <point x="513" y="605"/>
      <point x="513" y="491" type="curve" smooth="yes"/>
      <point x="513" y="341"/>
      <point x="452" y="59"/>
    </contour>
  </outline>
</glyph>
<glyph name="P" format="2">
  <advance width="482"/>
  <unicode hex="0050"/>
  <anchor x="185" y="0" name="bottom"/>
  <anchor x="336" y="714" name="top"/>
  <anchor x="557" y="714" name="topright"/>
  <outline>
    <contour>
      <point x="-5" y="0" type="line"/>
      <point x="162" y="0" type="line"/>
      <point x="212" y="237" type="line"/>
      <point x="251" y="237" type="line" smooth="yes"/>
      <point x="437" y="237"/>
      <point x="512" y="406"/>
      <point x="512" y="543" type="curve" smooth="yes"/>
      <point x="512" y="645"/>
      <point x="457" y="714"/>
      <point x="321" y="714" type="curve" smooth="yes"/>
      <point x="146" y="714" type="line"/>
    </contour>
    <contour>
      <point x="254" y="381" type="curve" smooth="yes"/>
      <point x="242" y="381" type="line"/>
      <point x="283" y="570" type="line"/>
      <point x="292" y="570" type="line" smooth="yes"/>
      <point x="324" y="570"/>
      <point x="340" y="560"/>
      <point x="340" y="521" type="curve" smooth="yes"/>
      <point x="340" y="439"/>
      <point x="307" y="381"/>
    </contour>
  </outline>
</glyph>
<glyph name="P.serif" format="2">
  <advance width="573"/>
  <unicode hex="0050"/>
  <anchor x="142" y="0" name="bottom"/>
  <anchor x="382" y="714" name="top"/>
  <anchor x="648" y="714" name="topright"/>
  <outline>
    <contour>
      <point x="-21" y="0" type="line"/>
      <point x="315" y="0" type="line"/>
      <point x="329" y="57" type="line"/>
      <point x="302" y="57" type="line" smooth="yes"/>
      <point x="268" y="57"/>
      <point x="242" y="61"/>
      <point x="242" y="87" type="curve" smooth="yes"/>
      <point x="242" y="95"/>
      <point x="246" y="107"/>
      <point x="250" y="123" type="curve" smooth="yes"/>
      <point x="283" y="271" type="line"/>
      <point x="346" y="271" type="line" smooth="yes"/>
      <point x="512" y="271"/>
      <point x="606" y="384"/>
      <point x="606" y="528" type="curve" smooth="yes"/>
      <point x="606" y="650"/>
      <point x="521" y="714"/>
      <point x="385" y="714" type="curve" smooth="yes"/>
      <point x="129" y="714" type="line"/>
      <point x="116" y="657" type="line"/>
      <point x="127" y="657" type="line" smooth="yes"/>
      <point x="161" y="657"/>
      <point x="184" y="653"/>
      <point x="184" y="627" type="curve" smooth="yes"/>
      <point x="184" y="620"/>
      <point x="182" y="610"/>
      <point x="177" y="589" type="curve" smooth="yes"/>
      <point x="77" y="112" type="line" smooth="yes"/>
      <point x="67" y="64"/>
      <point x="35" y="57"/>
      <point x="2" y="57" type="curve" smooth="yes"/>
      <point x="-9" y="57" type="line"/>
    </contour>
    <contour>
      <point x="323" y="333" type="curve" smooth="yes"/>
      <point x="296" y="333" type="line"/>
      <point x="365" y="651" type="line"/>
      <point x="374" y="651" type="line" smooth="yes"/>
      <point x="402" y="651"/>
      <point x="430" y="629"/>
      <point x="430" y="542" type="curve" smooth="yes"/>
      <point x="430" y="433"/>
      <point x="392" y="333"/>
    </contour>
  </outline>
</glyph>
<glyph name="Q" format="2">
  <advance width="574"/>
  <unicode hex="0051"/>
  <anchor x="195" y="-170" name="bottom"/>
  <anchor x="382" y="714" name="top"/>
  <anchor x="649" y="714" name="topright"/>
  <outline>
    <contour>
      <point x="207" y="-8" type="curve"/>
      <point x="250" y="-170" type="line"/>
      <point x="442" y="-170" type="line"/>
      <point x="374" y="26" type="line"/>
      <point x="515" y="112"/>
      <point x="574" y="332"/>
      <point x="574" y="484" type="curve"/>
      <point x="574" y="642"/>
      <point x="513" y="725"/>
      <point x="369" y="725" type="curve" smooth="yes"/>
      <point x="154" y="725"/>
      <point x="35" y="457"/>
      <point x="35" y="232" type="curve" smooth="yes"/>
      <point x="35" y="86"/>
      <point x="85" y="11"/>
      <point x="192" y="-6" type="curve" smooth="yes"/>
      <point x="197" y="-7"/>
      <point x="202" y="-8"/>
    </contour>
    <contour>
      <point x="255" y="139" type="curve" smooth="yes"/>
      <point x="226" y="139"/>
      <point x="210" y="156"/>
      <point x="210" y="231" type="curve" smooth="yes"/>
      <point x="210" y="347"/>
      <point x="263" y="579"/>
      <point x="355" y="579" type="curve" smooth="yes"/>
      <point x="384" y="579"/>
      <point x="400" y="550"/>
      <point x="400" y="489" type="curve" smooth="yes"/>
      <point x="400" y="373"/>
      <point x="347" y="139"/>
    </contour>
  </outline>
</glyph>
<glyph name="Q.serif" format="2">
  <advance width="676"/>
  <unicode hex="0051"/>
  <anchor x="231" y="-237" name="bottom"/>
  <anchor x="433" y="714" name="top"/>
  <anchor x="751" y="714" name="topright"/>
  <outline>
    <contour>
      <point x="407" y="-237" type="curve" smooth="yes"/>
      <point x="433" y="-237"/>
      <point x="454" y="-234"/>
      <point x="490" y="-219" type="curve"/>
      <point x="483" y="-173" type="line"/>
      <point x="479" y="-175"/>
      <point x="476" y="-176"/>
      <point x="473" y="-176" type="curve" smooth="yes"/>
      <point x="445" y="-176"/>
      <point x="408" y="-146"/>
      <point x="407" y="2" type="curve"/>
      <point x="590" y="65"/>
      <point x="684" y="304"/>
      <point x="684" y="466" type="curve" smooth="yes"/>
      <point x="684" y="645"/>
      <point x="579" y="725"/>
      <point x="453" y="725" type="curve" smooth="yes"/>
      <point x="204" y="725"/>
      <point x="68" y="445"/>
      <point x="68" y="249" type="curve" smooth="yes"/>
      <point x="68" y="110"/>
      <point x="131" y="24"/>
      <point x="225" y="-2" type="curve"/>
      <point x="226" y="-181"/>
      <point x="327" y="-237"/>
    </contour>
    <contour>
      <point x="327" y="59" type="curve" smooth="yes"/>
      <point x="278" y="59"/>
      <point x="240" y="109"/>
      <point x="240" y="224" type="curve" smooth="yes"/>
      <point x="240" y="374"/>
      <point x="303" y="656"/>
      <point x="424" y="656" type="curve" smooth="yes"/>
      <point x="477" y="656"/>
      <point x="511" y="605"/>
      <point x="511" y="491" type="curve" smooth="yes"/>
      <point x="511" y="341"/>
      <point x="450" y="59"/>
    </contour>
  </outline>
</glyph>
<glyph name="R" format="2">
  <advance width="505"/>
  <unicode hex="0052"/>
  <anchor x="197" y="0" name="bottom"/>
  <anchor x="348" y="714" name="top"/>
  <anchor x="580" y="714" name="topright"/>
  <outline>
    <contour>
      <point x="-5" y="0" type="line"/>
      <point x="162" y="0" type="line"/>
      <point x="217" y="265" type="line"/>
      <point x="228" y="265" type="line"/>
      <point x="276" y="0" type="line"/>
      <point x="461" y="0" type="line"/>
      <point x="385" y="300" type="line"/>
      <point x="467" y="337"/>
      <point x="519" y="423"/>
      <point x="519" y="545" type="curve" smooth="yes"/>
      <point x="519" y="654"/>
      <point x="454" y="714"/>
      <point x="307" y="714" type="curve" smooth="yes"/>
      <point x="146" y="714" type="line"/>
    </contour>
    <contour>
      <point x="261" y="400" type="curve" smooth="yes"/>
      <point x="247" y="400" type="line"/>
      <point x="283" y="574" type="line"/>
      <point x="294" y="574" type="line" smooth="yes"/>
      <point x="326" y="574"/>
      <point x="342" y="556"/>
      <point x="342" y="522" type="curve" smooth="yes"/>
      <point x="342" y="466"/>
      <point x="317" y="400"/>
    </contour>
  </outline>
</glyph>
<glyph name="R.serif" format="2">
  <advance width="609"/>
  <unicode hex="0052"/>
  <anchor x="248" y="0" name="bottom"/>
  <anchor x="400" y="714" name="top"/>
  <anchor x="684" y="714" name="topright"/>
  <outline>
    <contour>
      <point x="-21" y="0" type="line"/>
      <point x="315" y="0" type="line"/>
      <point x="329" y="57" type="line"/>
      <point x="302" y="57" type="line" smooth="yes"/>
      <point x="268" y="57"/>
      <point x="242" y="61"/>
      <point x="242" y="87" type="curve" smooth="yes"/>
      <point x="242" y="94"/>
      <point x="245" y="106"/>
      <point x="251" y="133" type="curve" smooth="yes"/>
      <point x="288" y="308" type="line"/>
      <point x="322" y="308" type="line"/>
      <point x="368" y="113" type="line" smooth="yes"/>
      <point x="391" y="17"/>
      <point x="458" y="0"/>
      <point x="583" y="0" type="curve" smooth="yes"/>
      <point x="598" y="0" type="line"/>
      <point x="611" y="57" type="line"/>
      <point x="606" y="57" type="line" smooth="yes"/>
      <point x="576" y="57"/>
      <point x="556" y="88"/>
      <point x="530" y="176" type="curve"/>
      <point x="481" y="343" type="line"/>
      <point x="550" y="363"/>
      <point x="630" y="417"/>
      <point x="630" y="557" type="curve" smooth="yes"/>
      <point x="630" y="663"/>
      <point x="565" y="714"/>
      <point x="435" y="714" type="curve" smooth="yes"/>
      <point x="129" y="714" type="line"/>
      <point x="116" y="657" type="line"/>
      <point x="127" y="657" type="line" smooth="yes"/>
      <point x="161" y="657"/>
      <point x="184" y="653"/>
      <point x="184" y="627" type="curve" smooth="yes"/>
      <point x="184" y="621"/>
      <point x="182" y="612"/>
      <point x="177" y="589" type="curve" smooth="yes"/>
      <point x="77" y="114" type="line" smooth="yes"/>
      <point x="67" y="65"/>
      <point x="35" y="57"/>
      <point x="2" y="57" type="curve" smooth="yes"/>
      <point x="-9" y="57" type="line"/>
    </contour>
    <contour>
      <point x="339" y="370" type="curve" smooth="yes"/>
      <point x="300" y="370" type="line"/>
      <point x="363" y="651" type="line"/>
      <point x="392" y="651" type="line" smooth="yes"/>
      <point x="427" y="651"/>
      <point x="444" y="625"/>
      <point x="444" y="555" type="curve" smooth="yes"/>
      <point x="444" y="421"/>
      <point x="397" y="370"/>
    </contour>
  </outline>
</glyph>
<glyph name="S" format="2">
  <advance width="435"/>
  <unicode hex="0053"/>
  <anchor x="162" y="0" name="bottom"/>
  <anchor x="313" y="714" name="top"/>
  <anchor x="510" y="714" name="topright"/>
  <outline>
    <contour>
      <point x="152" y="-10" type="curve" smooth="yes"/>
      <point x="322" y="-10"/>
      <point x="401" y="110"/>
      <point x="401" y="233" type="curve" smooth="yes"/>
      <point x="401" y="314"/>
      <point x="379" y="369"/>
      <point x="317" y="417" type="curve" smooth="yes"/>
      <point x="263" y="458"/>
      <point x="255" y="482"/>
      <point x="255" y="507" type="curve" smooth="yes"/>
      <point x="255" y="552"/>
      <point x="284" y="570"/>
      <point x="314" y="570" type="curve" smooth="yes"/>
      <point x="340" y="570"/>
      <point x="376" y="552"/>
      <point x="416" y="520" type="curve"/>
      <point x="490" y="670" type="line"/>
      <point x="440" y="707"/>
      <point x="377" y="724"/>
      <point x="323" y="724" type="curve" smooth="yes"/>
      <point x="157" y="724"/>
      <point x="79" y="619"/>
      <point x="79" y="491" type="curve" smooth="yes"/>
      <point x="79" y="407"/>
      <point x="105" y="357"/>
      <point x="167" y="305" type="curve" smooth="yes"/>
      <point x="214" y="265"/>
      <point x="224" y="243"/>
      <point x="224" y="213" type="curve" smooth="yes"/>
      <point x="224" y="157"/>
      <point x="183" y="147"/>
      <point x="153" y="147" type="curve" smooth="yes"/>
      <point x="107" y="147"/>
      <point x="52" y="177"/>
      <point x="18" y="207" type="curve"/>
      <point x="-18" y="37" type="line"/>
      <point x="28" y="1"/>
      <point x="81" y="-10"/>
    </contour>
  </outline>
</glyph>
<glyph name="S.serif" format="2">
  <advance width="509"/>
  <unicode hex="0053"/>
  <anchor x="198" y="0" name="bottom"/>
  <anchor x="350" y="714" name="top"/>
  <anchor x="584" y="714" name="topright"/>
  <outline>
    <contour>
      <point x="236" y="-10" type="curve" smooth="yes"/>
      <point x="381" y="-10"/>
      <point x="479" y="77"/>
      <point x="479" y="228" type="curve" smooth="yes"/>
      <point x="479" y="309"/>
      <point x="444" y="374"/>
      <point x="366" y="425" type="curve" smooth="yes"/>
      <point x="294" y="472"/>
      <point x="256" y="494"/>
      <point x="256" y="559" type="curve" smooth="yes"/>
      <point x="256" y="626"/>
      <point x="289" y="659"/>
      <point x="330" y="659" type="curve" smooth="yes"/>
      <point x="393" y="659"/>
      <point x="409" y="579"/>
      <point x="407" y="517" type="curve"/>
      <point x="502" y="517"/>
      <point x="541" y="552"/>
      <point x="541" y="614" type="curve" smooth="yes"/>
      <point x="541" y="674"/>
      <point x="484" y="724"/>
      <point x="347" y="724" type="curve" smooth="yes"/>
      <point x="205" y="724"/>
      <point x="109" y="634"/>
      <point x="109" y="499" type="curve" smooth="yes"/>
      <point x="109" y="405"/>
      <point x="150" y="347"/>
      <point x="242" y="287" type="curve" smooth="yes"/>
      <point x="314" y="240"/>
      <point x="335" y="206"/>
      <point x="335" y="155" type="curve" smooth="yes"/>
      <point x="335" y="105"/>
      <point x="305" y="57"/>
      <point x="254" y="57" type="curve" smooth="yes"/>
      <point x="190" y="57"/>
      <point x="157" y="103"/>
      <point x="162" y="237" type="curve"/>
      <point x="76" y="237"/>
      <point x="22" y="203"/>
      <point x="22" y="132" type="curve" smooth="yes"/>
      <point x="22" y="50"/>
      <point x="91" y="-10"/>
    </contour>
  </outline>
</glyph>
<glyph name="T" format="2">
  <advance width="429"/>
  <unicode hex="0054"/>
  <anchor x="159" y="0" name="bottom"/>
  <anchor x="252" y="357" name="center"/>
  <anchor x="310" y="714" name="top"/>
  <anchor x="504" y="714" name="topright"/>
  <outline>
    <contour>
      <point x="73" y="0" type="line"/>
      <point x="240" y="0" type="line"/>
      <point x="360" y="567" type="line"/>
      <point x="476" y="567" type="line"/>
      <point x="507" y="714" type="line"/>
      <point x="109" y="714" type="line"/>
      <point x="78" y="567" type="line"/>
      <point x="193" y="567" type="line"/>
    </contour>
  </outline>
</glyph>
<glyph name="T.serif" format="2">
  <advance width="562"/>
  <unicode hex="0054"/>
  <anchor x="224" y="0" name="bottom"/>
  <anchor x="319" y="357" name="center"/>
  <anchor x="376" y="714" name="top"/>
  <anchor x="637" y="714" name="topright"/>
  <outline>
    <contour>
      <point x="94" y="0" type="line"/>
      <point x="399" y="0" type="line"/>
      <point x="412" y="57" type="line"/>
      <point x="409" y="57" type="line" smooth="yes"/>
      <point x="375" y="57"/>
      <point x="349" y="61"/>
      <point x="349" y="87" type="curve" smooth="yes"/>
      <point x="349" y="94"/>
      <point x="352" y="103"/>
      <point x="356" y="124" type="curve" smooth="yes"/>
      <point x="467" y="649" type="line"/>
      <point x="519" y="649" type="line" smooth="yes"/>
      <point x="558" y="649"/>
      <point x="577" y="636"/>
      <point x="577" y="602" type="curve" smooth="yes"/>
      <point x="577" y="593"/>
      <point x="567" y="526"/>
      <point x="565" y="513" type="curve"/>
      <point x="630" y="513" type="line"/>
      <point x="669" y="714" type="line"/>
      <point x="118" y="714" type="line"/>
      <point x="70" y="513" type="line"/>
      <point x="135" y="513" type="line"/>
      <point x="149" y="556" type="line" smooth="yes"/>
      <point x="169" y="619"/>
      <point x="188" y="649"/>
      <point x="240" y="649" type="curve" smooth="yes"/>
      <point x="293" y="649" type="line"/>
      <point x="184" y="114" type="line" smooth="yes"/>
      <point x="174" y="65"/>
      <point x="142" y="57"/>
      <point x="110" y="57" type="curve" smooth="yes"/>
      <point x="106" y="57" type="line"/>
    </contour>
  </outline>
</glyph>
<glyph name="U" format="2">
  <advance width="544"/>
  <unicode hex="0055"/>
  <anchor x="216" y="0" name="bottom"/>
  <anchor x="367" y="714" name="top"/>
  <anchor x="619" y="714" name="topright"/>
  <outline>
    <contour>
      <point x="220" y="-10" type="curve" smooth="yes"/>
      <point x="373" y="-10"/>
      <point x="451" y="70"/>
      <point x="483" y="221" type="curve" smooth="yes"/>
      <point x="588" y="714" type="line"/>
      <point x="421" y="714" type="line"/>
      <point x="321" y="247" type="line" smooth="yes"/>
      <point x="304" y="167"/>
      <point x="282" y="139"/>
      <point x="243" y="139" type="curve" smooth="yes"/>
      <point x="218" y="139"/>
      <point x="205" y="155"/>
      <point x="205" y="193" type="curve" smooth="yes"/>
      <point x="205" y="207"/>
      <point x="207" y="226"/>
      <point x="212" y="246" type="curve" smooth="yes"/>
      <point x="311" y="714" type="line"/>
      <point x="144" y="714" type="line"/>
      <point x="45" y="249" type="line" smooth="yes"/>
      <point x="39" y="219"/>
      <point x="35" y="187"/>
      <point x="35" y="164" type="curve" smooth="yes"/>
      <point x="35" y="55"/>
      <point x="105" y="-10"/>
    </contour>
  </outline>
</glyph>
<glyph name="U.serif" format="2">
  <advance width="623"/>
  <unicode hex="0055"/>
  <anchor x="255" y="0" name="bottom"/>
  <anchor x="407" y="714" name="top"/>
  <anchor x="698" y="714" name="topright"/>
  <outline>
    <contour>
      <point x="291" y="-10" type="curve" smooth="yes"/>
      <point x="435" y="-10"/>
      <point x="522" y="72"/>
      <point x="553" y="226" type="curve" smooth="yes"/>
      <point x="629" y="600" type="line" smooth="yes"/>
      <point x="639" y="650"/>
      <point x="672" y="657"/>
      <point x="706" y="657" type="curve" smooth="yes"/>
      <point x="717" y="657" type="line"/>
      <point x="730" y="714" type="line"/>
      <point x="507" y="714" type="line"/>
      <point x="495" y="657" type="line"/>
      <point x="505" y="657" type="line" smooth="yes"/>
      <point x="539" y="657"/>
      <point x="563" y="653"/>
      <point x="563" y="627" type="curve" smooth="yes"/>
      <point x="563" y="621"/>
      <point x="561" y="607"/>
      <point x="558" y="595" type="curve" smooth="yes"/>
      <point x="487" y="259" type="line" smooth="yes"/>
      <point x="463" y="149"/>
      <point x="430" y="65"/>
      <point x="340" y="65" type="curve" smooth="yes"/>
      <point x="285" y="65"/>
      <point x="258" y="96"/>
      <point x="258" y="158" type="curve" smooth="yes"/>
      <point x="258" y="190"/>
      <point x="267" y="230"/>
      <point x="272" y="251" type="curve" smooth="yes"/>
      <point x="348" y="602" type="line" smooth="yes"/>
      <point x="358" y="650"/>
      <point x="390" y="657"/>
      <point x="426" y="657" type="curve" smooth="yes"/>
      <point x="437" y="657" type="line"/>
      <point x="450" y="714" type="line"/>
      <point x="126" y="714" type="line"/>
      <point x="114" y="657" type="line"/>
      <point x="124" y="657" type="line" smooth="yes"/>
      <point x="158" y="657"/>
      <point x="182" y="653"/>
      <point x="182" y="627" type="curve" smooth="yes"/>
      <point x="182" y="621"/>
      <point x="179" y="612"/>
      <point x="174" y="589" type="curve" smooth="yes"/>
      <point x="101" y="252" type="line" smooth="yes"/>
      <point x="96" y="228"/>
      <point x="89" y="180"/>
      <point x="89" y="155" type="curve" smooth="yes"/>
      <point x="89" y="50"/>
      <point x="160" y="-10"/>
    </contour>
  </outline>
</glyph>
<glyph name="V" format="2">
  <advance width="519"/>
  <unicode hex="0056"/>
  <anchor x="204" y="0" name="bottom"/>
  <anchor x="355" y="714" name="top"/>
  <anchor x="594" y="714" name="topright"/>
  <outline>
    <contour>
      <point x="107" y="0" type="line"/>
      <point x="299" y="0" type="line"/>
      <point x="611" y="714" type="line"/>
      <point x="432" y="714" type="line"/>
      <point x="287" y="350" type="line" smooth="yes"/>
      <point x="270" y="308"/>
      <point x="258" y="269"/>
      <point x="248" y="228" type="curve"/>
      <point x="246" y="228" type="line"/>
      <point x="252" y="279"/>
      <point x="255" y="311"/>
      <point x="256" y="352" type="curve" smooth="yes"/>
      <point x="265" y="714" type="line"/>
      <point x="93" y="714" type="line"/>
    </contour>
  </outline>
</glyph>
<glyph name="V.serif" format="2">
  <advance width="589"/>
  <unicode hex="0056"/>
  <anchor x="240" y="0" name="bottom"/>
  <anchor x="392" y="714" name="top"/>
  <anchor x="668" y="714" name="topright"/>
  <outline>
    <contour>
      <point x="159" y="611" type="curve" smooth="yes"/>
      <point x="203" y="0" type="line"/>
      <point x="305" y="0" type="line"/>
      <point x="599" y="594" type="line" smooth="yes"/>
      <point x="627" y="649"/>
      <point x="635" y="657"/>
      <point x="666" y="657" type="curve" smooth="yes"/>
      <point x="690" y="657" type="line"/>
      <point x="702" y="714" type="line"/>
      <point x="479" y="714" type="line"/>
      <point x="468" y="657" type="line"/>
      <point x="486" y="657" type="line" smooth="yes"/>
      <point x="517" y="657"/>
      <point x="534" y="653"/>
      <point x="534" y="634" type="curve" smooth="yes"/>
      <point x="534" y="623"/>
      <point x="531" y="609"/>
      <point x="518" y="584" type="curve" smooth="yes"/>
      <point x="398" y="329" type="line" smooth="yes"/>
      <point x="371" y="273"/>
      <point x="352" y="212"/>
      <point x="342" y="177" type="curve"/>
      <point x="343" y="203"/>
      <point x="346" y="266"/>
      <point x="345" y="315" type="curve" smooth="yes"/>
      <point x="333" y="587" type="line" smooth="yes"/>
      <point x="333" y="592"/>
      <point x="332" y="602"/>
      <point x="332" y="608" type="curve" smooth="yes"/>
      <point x="332" y="653"/>
      <point x="354" y="657"/>
      <point x="390" y="657" type="curve" smooth="yes"/>
      <point x="409" y="657" type="line"/>
      <point x="422" y="714" type="line"/>
      <point x="109" y="714" type="line"/>
      <point x="97" y="657" type="line"/>
      <point x="108" y="657" type="line" smooth="yes"/>
      <point x="131" y="657"/>
      <point x="156" y="652"/>
    </contour>
  </outline>
</glyph>
<glyph name="W" format="2">
  <advance width="744"/>
  <unicode hex="0057"/>
  <anchor x="316" y="0" name="bottom"/>
  <anchor x="467" y="714" name="top"/>
  <anchor x="819" y="714" name="topright"/>
  <outline>
    <contour>
      <point x="66" y="0" type="line"/>
      <point x="253" y="0" type="line"/>
      <point x="353" y="262" type="line" smooth="yes"/>
      <point x="365" y="291"/>
      <point x="375" y="321"/>
      <point x="385" y="351" type="curve"/>
      <point x="387" y="351" type="line"/>
      <point x="383" y="316"/>
      <point x="380" y="280"/>
      <point x="380" y="252" type="curve" smooth="yes"/>
      <point x="375" y="0" type="line"/>
      <point x="565" y="0" type="line"/>
      <point x="837" y="714" type="line"/>
      <point x="669" y="714" type="line"/>
      <point x="559" y="417" type="line"/>
      <point x="540" y="365"/>
      <point x="526" y="329"/>
      <point x="516" y="295" type="curve"/>
      <point x="514" y="295" type="line"/>
      <point x="517" y="338"/>
      <point x="519" y="366"/>
      <point x="521" y="416" type="curve" smooth="yes"/>
      <point x="532" y="714" type="line"/>
      <point x="396" y="714" type="line"/>
      <point x="275" y="416" type="line" smooth="yes"/>
      <point x="258" y="373"/>
      <point x="243" y="334"/>
      <point x="228" y="294" type="curve"/>
      <point x="227" y="294" type="line"/>
      <point x="231" y="324"/>
      <point x="235" y="365"/>
      <point x="238" y="418" type="curve" smooth="yes"/>
      <point x="254" y="714" type="line"/>
      <point x="93" y="714" type="line"/>
    </contour>
  </outline>
</glyph>
<glyph name="W.serif" format="2">
  <advance width="887"/>
  <unicode hex="0057"/>
  <anchor x="387" y="0" name="bottom"/>
  <anchor x="539" y="714" name="top"/>
  <anchor x="962" y="714" name="topright"/>
  <outline>
    <contour>
      <point x="156" y="611" type="curve" smooth="yes"/>
      <point x="178" y="0" type="line"/>
      <point x="304" y="0" type="line"/>
      <point x="500" y="449" type="line"/>
      <point x="558" y="0" type="line"/>
      <point x="667" y="0" type="line"/>
      <point x="906" y="586" type="line" smooth="yes"/>
      <point x="930" y="644"/>
      <point x="943" y="657"/>
      <point x="975" y="657" type="curve" smooth="yes"/>
      <point x="998" y="657" type="line"/>
      <point x="1010" y="714" type="line"/>
      <point x="785" y="714" type="line"/>
      <point x="773" y="657" type="line"/>
      <point x="792" y="657" type="line" smooth="yes"/>
      <point x="822" y="657"/>
      <point x="835" y="654"/>
      <point x="835" y="637" type="curve" smooth="yes"/>
      <point x="835" y="625"/>
      <point x="830" y="602"/>
      <point x="823" y="584" type="curve" smooth="yes"/>
      <point x="747" y="376" type="line" smooth="yes"/>
      <point x="723" y="316"/>
      <point x="698" y="244"/>
      <point x="691" y="196" type="curve"/>
      <point x="691" y="227"/>
      <point x="690" y="268"/>
      <point x="683" y="312" type="curve" smooth="yes"/>
      <point x="624" y="707" type="line"/>
      <point x="555" y="707" type="line"/>
      <point x="370" y="300" type="line" smooth="yes"/>
      <point x="353" y="263"/>
      <point x="336" y="234"/>
      <point x="330" y="199" type="curve"/>
      <point x="331" y="245"/>
      <point x="330" y="348"/>
      <point x="330" y="380" type="curve"/>
      <point x="326" y="574" type="line" smooth="yes"/>
      <point x="326" y="595"/>
      <point x="325" y="608"/>
      <point x="326" y="618" type="curve" smooth="yes"/>
      <point x="327" y="653"/>
      <point x="348" y="657"/>
      <point x="383" y="657" type="curve" smooth="yes"/>
      <point x="402" y="657" type="line"/>
      <point x="415" y="714" type="line"/>
      <point x="106" y="714" type="line"/>
      <point x="94" y="657" type="line"/>
      <point x="105" y="657" type="line" smooth="yes"/>
      <point x="128" y="657"/>
      <point x="154" y="652"/>
    </contour>
  </outline>
</glyph>
<glyph name="X" format="2">
  <advance width="500"/>
  <unicode hex="0058"/>
  <anchor x="194" y="0" name="bottom"/>
  <anchor x="345" y="714" name="top"/>
  <anchor x="575" y="714" name="topright"/>
  <outline>
    <contour>
      <point x="-59" y="0" type="line"/>
      <point x="120" y="0" type="line"/>
      <point x="234" y="188" type="line"/>
      <point x="263" y="0" type="line"/>
      <point x="444" y="0" type="line"/>
      <point x="359" y="363" type="line"/>
      <point x="574" y="714" type="line"/>
      <point x="394" y="714" type="line"/>
      <point x="299" y="536" type="line"/>
      <point x="276" y="714" type="line"/>
      <point x="101" y="714" type="line"/>
      <point x="171" y="357" type="line"/>
    </contour>
  </outline>
</glyph>
<glyph name="X.serif" format="2">
  <advance width="651"/>
  <unicode hex="0058"/>
  <anchor x="269" y="0" name="bottom"/>
  <anchor x="421" y="714" name="top"/>
  <anchor x="726" y="714" name="topright"/>
  <outline>
    <contour>
      <point x="-29" y="0" type="line"/>
      <point x="187" y="0" type="line"/>
      <point x="201" y="57" type="line"/>
      <point x="194" y="57" type="line" smooth="yes"/>
      <point x="165" y="57"/>
      <point x="158" y="67"/>
      <point x="158" y="85" type="curve" smooth="yes"/>
      <point x="158" y="105"/>
      <point x="170" y="129"/>
      <point x="193" y="154" type="curve" smooth="yes"/>
      <point x="362" y="348" type="line"/>
      <point x="293" y="334" type="line"/>
      <point x="342" y="191" type="line" smooth="yes"/>
      <point x="356" y="152"/>
      <point x="360" y="117"/>
      <point x="360" y="98" type="curve" smooth="yes"/>
      <point x="360" y="70"/>
      <point x="350" y="57"/>
      <point x="317" y="57" type="curve" smooth="yes"/>
      <point x="301" y="57" type="line"/>
      <point x="290" y="0" type="line"/>
      <point x="603" y="0" type="line"/>
      <point x="616" y="57" type="line"/>
      <point x="606" y="57" type="line" smooth="yes"/>
      <point x="586" y="57"/>
      <point x="565" y="69"/>
      <point x="552" y="110" type="curve" smooth="yes"/>
      <point x="449" y="429" type="line"/>
      <point x="403" y="335" type="line"/>
      <point x="620" y="588" type="line" smooth="yes"/>
      <point x="665" y="641"/>
      <point x="684" y="657"/>
      <point x="715" y="657" type="curve" smooth="yes"/>
      <point x="723" y="657" type="line"/>
      <point x="735" y="714" type="line"/>
      <point x="534" y="714" type="line"/>
      <point x="522" y="657" type="line"/>
      <point x="524" y="657" type="line" smooth="yes"/>
      <point x="549" y="657"/>
      <point x="562" y="649"/>
      <point x="562" y="633" type="curve" smooth="yes"/>
      <point x="562" y="612"/>
      <point x="549" y="590"/>
      <point x="534" y="573" type="curve" smooth="yes"/>
      <point x="382" y="395" type="line"/>
      <point x="456" y="402" type="line"/>
      <point x="403" y="569" type="line" smooth="yes"/>
      <point x="394" y="595"/>
      <point x="391" y="614"/>
      <point x="391" y="626" type="curve" smooth="yes"/>
      <point x="391" y="646"/>
      <point x="402" y="657"/>
      <point x="430" y="657" type="curve" smooth="yes"/>
      <point x="449" y="657" type="line"/>
      <point x="461" y="714" type="line"/>
      <point x="146" y="714" type="line"/>
      <point x="133" y="657" type="line"/>
      <point x="138" y="657" type="line" smooth="yes"/>
      <point x="169" y="657"/>
      <point x="184" y="654"/>
      <point x="199" y="606" type="curve" smooth="yes"/>
      <point x="298" y="311" type="line"/>
      <point x="340" y="410" type="line"/>
      <point x="95" y="129" type="line" smooth="yes"/>
      <point x="49" y="75"/>
      <point x="29" y="57"/>
      <point x="-4" y="57" type="curve" smooth="yes"/>
      <point x="-16" y="57" type="line"/>
    </contour>
  </outline>
</glyph>
<glyph name="Y" format="2">
  <advance width="489"/>
  <unicode hex="0059"/>
  <anchor x="189" y="0" name="bottom"/>
  <anchor x="340" y="714" name="top"/>
  <anchor x="564" y="714" name="topright"/>
  <outline>
    <contour>
      <point x="103" y="0" type="line"/>
      <point x="270" y="0" type="line"/>
      <point x="328" y="274" type="line"/>
      <point x="581" y="714" type="line"/>
      <point x="402" y="714" type="line"/>
      <point x="286" y="485" type="line"/>
      <point x="267" y="714" type="line"/>
      <point x="93" y="714" type="line"/>
      <point x="159" y="268" type="line"/>
    </contour>
  </outline>
</glyph>
<glyph name="Y.serif" format="2">
  <advance width="615"/>
  <unicode hex="0059"/>
  <anchor x="251" y="0" name="bottom"/>
  <anchor x="403" y="714" name="top"/>
  <anchor x="690" y="714" name="topright"/>
  <outline>
    <contour>
      <point x="95" y="0" type="line"/>
      <point x="438" y="0" type="line"/>
      <point x="452" y="57" type="line"/>
      <point x="431" y="57" type="line" smooth="yes"/>
      <point x="397" y="57"/>
      <point x="372" y="61"/>
      <point x="372" y="87" type="curve" smooth="yes"/>
      <point x="372" y="93"/>
      <point x="374" y="100"/>
      <point x="377" y="116" type="curve" smooth="yes"/>
      <point x="400" y="232" type="line"/>
      <point x="609" y="570" type="line" smooth="yes"/>
      <point x="656" y="646"/>
      <point x="663" y="657"/>
      <point x="694" y="657" type="curve" smooth="yes"/>
      <point x="709" y="657" type="line"/>
      <point x="722" y="714" type="line"/>
      <point x="497" y="714" type="line"/>
      <point x="483" y="657" type="line"/>
      <point x="488" y="657" type="line" smooth="yes"/>
      <point x="530" y="657"/>
      <point x="546" y="648"/>
      <point x="546" y="626" type="curve" smooth="yes"/>
      <point x="546" y="606"/>
      <point x="539" y="588"/>
      <point x="525" y="564" type="curve" smooth="yes"/>
      <point x="436" y="412" type="line" smooth="yes"/>
      <point x="407" y="363"/>
      <point x="380" y="315"/>
      <point x="372" y="289" type="curve"/>
      <point x="371" y="348"/>
      <point x="364" y="408"/>
      <point x="356" y="463" type="curve" smooth="yes"/>
      <point x="346" y="532" type="line" smooth="yes"/>
      <point x="341" y="569"/>
      <point x="337" y="600"/>
      <point x="337" y="621" type="curve" smooth="yes"/>
      <point x="337" y="644"/>
      <point x="346" y="657"/>
      <point x="374" y="657" type="curve" smooth="yes"/>
      <point x="408" y="657" type="line"/>
      <point x="420" y="714" type="line"/>
      <point x="113" y="714" type="line"/>
      <point x="101" y="657" type="line"/>
      <point x="112" y="657" type="line" smooth="yes"/>
      <point x="143" y="657"/>
      <point x="151" y="644"/>
      <point x="158" y="604" type="curve" smooth="yes"/>
      <point x="226" y="239" type="line"/>
      <point x="204" y="116" type="line" smooth="yes"/>
      <point x="196" y="67"/>
      <point x="165" y="57"/>
      <point x="132" y="57" type="curve" smooth="yes"/>
      <point x="107" y="57" type="line"/>
    </contour>
  </outline>
</glyph>
<glyph name="Z" format="2">
  <advance width="438"/>
  <unicode hex="005A"/>
  <anchor x="163" y="0" name="bottom"/>
  <anchor x="314" y="714" name="top"/>
  <anchor x="513" y="714" name="topright"/>
  <outline>
    <contour>
      <point x="-39" y="0" type="line"/>
      <point x="362" y="0" type="line"/>
      <point x="393" y="146" type="line"/>
      <point x="181" y="146" type="line"/>
      <point x="484" y="597" type="line"/>
      <point x="508" y="714" type="line"/>
      <point x="117" y="714" type="line"/>
      <point x="87" y="570" type="line"/>
      <point x="287" y="570" type="line"/>
      <point x="-15" y="117" type="line"/>
    </contour>
  </outline>
</glyph>
<glyph name="Z.serif" format="2">
  <advance width="589"/>
  <unicode hex="005A"/>
  <anchor x="238" y="0" name="bottom"/>
  <anchor x="390" y="714" name="top"/>
  <anchor x="664" y="714" name="topright"/>
  <outline>
    <contour>
      <point x="10" y="0" type="line"/>
      <point x="514" y="0" type="line"/>
      <point x="566" y="217" type="line"/>
      <point x="492" y="217" type="line"/>
      <point x="484" y="183" type="line" smooth="yes"/>
      <point x="461" y="93"/>
      <point x="417" y="65"/>
      <point x="358" y="65" type="curve" smooth="yes"/>
      <point x="228" y="65" type="line"/>
      <point x="647" y="660" type="line"/>
      <point x="658" y="714" type="line"/>
      <point x="178" y="714" type="line"/>
      <point x="124" y="497" type="line"/>
      <point x="198" y="497" type="line"/>
      <point x="216" y="560" type="line" smooth="yes"/>
      <point x="235" y="628"/>
      <point x="273" y="649"/>
      <point x="322" y="649" type="curve" smooth="yes"/>
      <point x="437" y="649" type="line"/>
      <point x="20" y="53" type="line"/>
    </contour>
  </outline>
</glyph>
<glyph name="bracketleft" format="2">
  <advance width="287"/>
  <unicode hex="005B"/>
  <outline>
    <contour>
      <point x="-50" y="-168" type="line"/>
      <point x="177" y="-168" type="line"/>
      <point x="204" y="-44" type="line"/>
      <point x="120" y="-44" type="line"/>
      <point x="259" y="610" type="line"/>
      <point x="343" y="610" type="line"/>
      <point x="369" y="734" type="line"/>
      <point x="142" y="734" type="line"/>
    </contour>
  </outline>
</glyph>
<glyph name="bracketright" format="2">
  <advance width="287"/>
  <unicode hex="005D"/>
  <outline>
    <contour>
      <point x="-78" y="-168" type="line"/>
      <point x="149" y="-168" type="line"/>
      <point x="341" y="734" type="line"/>
      <point x="113" y="734" type="line"/>
      <point x="87" y="610" type="line"/>
      <point x="171" y="610" type="line"/>
      <point x="31" y="-44" type="line"/>
      <point x="-52" y="-44" type="line"/>
    </contour>
  </outline>
</glyph>
<glyph name="underscore" format="2">
  <advance width="385"/>
  <unicode hex="005F"/>
  <outline>
    <contour>
      <point x="-99" y="-185" type="line"/>
      <point x="289" y="-185" type="line"/>
      <point x="315" y="-65" type="line"/>
      <point x="-74" y="-65" type="line"/>
    </contour>
  </outline>
</glyph>
<glyph name="grave" format="2">
  <advance width="330"/>
  <unicode hex="0060"/>
  <anchor x="278" y="530" name="_top"/>
  <outline>
    <contour>
      <point x="238" y="606" type="curve"/>
      <point x="360" y="606" type="line"/>
      <point x="361" y="619" type="line"/>
      <point x="342" y="680"/>
      <point x="330" y="728"/>
      <point x="322" y="766" type="curve"/>
      <point x="144" y="766" type="line"/>
      <point x="144" y="757" type="line"/>
      <point x="162" y="720"/>
      <point x="214" y="639"/>
    </contour>
  </outline>
</glyph>
<glyph name="grave.serif" format="2">
  <advance width="329"/>
  <unicode hex="0060"/>
  <outline>
    <contour>
      <point x="297" y="606" type="curve"/>
      <point x="361" y="606" type="line"/>
      <point x="364" y="619" type="line"/>
      <point x="347" y="647"/>
      <point x="314" y="716"/>
      <point x="302" y="766" type="curve"/>
      <point x="147" y="766" type="line"/>
      <point x="144" y="756" type="line"/>
      <point x="164" y="719"/>
      <point x="240" y="638"/>
    </contour>
  </outline>
</glyph>
<glyph name="a.serif" format="2">
  <advance width="607"/>
  <unicode hex="0061"/>
  <anchor x="247" y="0" name="bottom"/>
  <anchor x="361" y="536" name="top"/>
  <anchor x="644" y="536" name="topright"/>
  <outline>
    <contour>
      <point x="157" y="-10" type="curve" smooth="yes"/>
      <point x="251" y="-10"/>
      <point x="283" y="38"/>
      <point x="326" y="123" type="curve"/>
      <point x="330" y="123" type="line"/>
      <point x="326" y="102"/>
      <point x="324" y="86"/>
      <point x="324" y="71" type="curve" smooth="yes"/>
      <point x="324" y="16"/>
      <point x="361" y="-10"/>
      <point x="416" y="-10" type="curve" smooth="yes"/>
      <point x="490" y="-10"/>
      <point x="527" y="24"/>
      <point x="559" y="50" type="curve"/>
      <point x="540" y="94" type="line"/>
      <point x="525" y="83"/>
      <point x="519" y="75"/>
      <point x="506" y="75" type="curve" smooth="yes"/>
      <point x="490" y="75"/>
      <point x="478" y="89"/>
      <point x="478" y="119" type="curve" smooth="yes"/>
      <point x="478" y="146"/>
      <point x="492" y="203"/>
      <point x="497" y="226" type="curve" smooth="yes"/>
      <point x="562" y="535" type="line"/>
      <point x="502" y="535" type="line"/>
      <point x="451" y="512" type="line"/>
      <point x="425" y="527"/>
      <point x="366" y="546"/>
      <point x="320" y="546" type="curve" smooth="yes"/>
      <point x="139" y="546"/>
      <point x="37" y="318"/>
      <point x="37" y="161" type="curve" smooth="yes"/>
      <point x="37" y="64"/>
      <point x="79" y="-10"/>
    </contour>
    <contour>
      <point x="232" y="76" type="curve" smooth="yes"/>
      <point x="213" y="76"/>
      <point x="198" y="95"/>
      <point x="198" y="157" type="curve" smooth="yes"/>
      <point x="198" y="265"/>
      <point x="249" y="475"/>
      <point x="336" y="475" type="curve" smooth="yes"/>
      <point x="353" y="475"/>
      <point x="369" y="467"/>
      <point x="378" y="450" type="curve"/>
      <point x="344" y="288" type="line" smooth="yes"/>
      <point x="323" y="184"/>
      <point x="273" y="76"/>
    </contour>
  </outline>
</glyph>
<glyph name="b" format="2">
  <advance width="487"/>
  <unicode hex="0062"/>
  <anchor x="188" y="0" name="bottom"/>
  <anchor x="348" y="760" name="top"/>
  <anchor x="572" y="760" name="topright"/>
  <outline>
    <contour>
      <point x="249" y="-10" type="curve" smooth="yes"/>
      <point x="400" y="-10"/>
      <point x="475" y="243"/>
      <point x="475" y="399" type="curve" smooth="yes"/>
      <point x="475" y="500"/>
      <point x="430" y="563"/>
      <point x="363" y="563" type="curve" smooth="yes"/>
      <point x="319" y="563"/>
      <point x="286" y="550"/>
      <point x="252" y="506" type="curve"/>
      <point x="250" y="506" type="line"/>
      <point x="261" y="543"/>
      <point x="271" y="579"/>
      <point x="274" y="596" type="curve" smooth="yes"/>
      <point x="309" y="760" type="line"/>
      <point x="149" y="760" type="line"/>
      <point x="-13" y="0" type="line"/>
      <point x="117" y="0" type="line"/>
      <point x="146" y="57" type="line"/>
      <point x="149" y="57" type="line"/>
      <point x="170" y="14"/>
      <point x="203" y="-10"/>
    </contour>
    <contour>
      <point x="222" y="125" type="curve" smooth="yes"/>
      <point x="202" y="125"/>
      <point x="192" y="142"/>
      <point x="192" y="179" type="curve" smooth="yes"/>
      <point x="192" y="257"/>
      <point x="226" y="424"/>
      <point x="285" y="424" type="curve" smooth="yes"/>
      <point x="301" y="424"/>
      <point x="309" y="406"/>
      <point x="309" y="369" type="curve" smooth="yes"/>
      <point x="309" y="294"/>
      <point x="265" y="125"/>
    </contour>
  </outline>
</glyph>
<glyph name="b.serif" format="2">
  <advance width="560"/>
  <unicode hex="0062"/>
  <anchor x="230" y="0" name="bottom"/>
  <anchor x="392" y="760" name="top"/>
  <anchor x="649" y="760" name="topright"/>
  <outline>
    <contour>
      <point x="252" y="-10" type="curve" smooth="yes"/>
      <point x="433" y="-10"/>
      <point x="548" y="214"/>
      <point x="548" y="376" type="curve" smooth="yes"/>
      <point x="548" y="487"/>
      <point x="492" y="546"/>
      <point x="421" y="546" type="curve" smooth="yes"/>
      <point x="345" y="546"/>
      <point x="299" y="500"/>
      <point x="255" y="401" type="curve"/>
      <point x="251" y="401" type="line"/>
      <point x="260" y="434"/>
      <point x="308" y="555"/>
      <point x="316" y="595" type="curve" smooth="yes"/>
      <point x="351" y="760" type="line"/>
      <point x="115" y="760" type="line"/>
      <point x="103" y="703" type="line"/>
      <point x="133" y="703" type="line" smooth="yes"/>
      <point x="156" y="703"/>
      <point x="163" y="697"/>
      <point x="163" y="679" type="curve" smooth="yes"/>
      <point x="163" y="656"/>
      <point x="159" y="643"/>
      <point x="151" y="606" type="curve" smooth="yes"/>
      <point x="22" y="-3" type="line"/>
      <point x="86" y="-3" type="line"/>
      <point x="143" y="26" type="line"/>
      <point x="164" y="6"/>
      <point x="204" y="-10"/>
    </contour>
    <contour>
      <point x="249" y="61" type="curve" smooth="yes"/>
      <point x="230" y="61"/>
      <point x="216" y="72"/>
      <point x="207" y="86" type="curve"/>
      <point x="246" y="271" type="line" smooth="yes"/>
      <point x="257" y="320"/>
      <point x="302" y="460"/>
      <point x="353" y="460" type="curve" smooth="yes"/>
      <point x="371" y="460"/>
      <point x="386" y="436"/>
      <point x="386" y="372" type="curve" smooth="yes"/>
      <point x="386" y="270"/>
      <point x="336" y="61"/>
    </contour>
  </outline>
</glyph>
<glyph name="c" format="2">
  <advance width="398"/>
  <unicode hex="0063"/>
  <anchor x="140" y="0" name="bottom"/>
  <anchor x="258" y="553" name="top"/>
  <anchor x="437" y="553" name="topright"/>
  <outline>
    <contour>
      <point x="177" y="-10" type="curve" smooth="yes"/>
      <point x="234" y="-10"/>
      <point x="294" y="13"/>
      <point x="330" y="40" type="curve"/>
      <point x="330" y="176" type="line"/>
      <point x="287" y="144"/>
      <point x="250" y="128"/>
      <point x="220" y="128" type="curve" smooth="yes"/>
      <point x="195" y="128"/>
      <point x="183" y="151"/>
      <point x="183" y="195" type="curve" smooth="yes"/>
      <point x="183" y="259"/>
      <point x="209" y="425"/>
      <point x="290" y="425" type="curve" smooth="yes"/>
      <point x="314" y="425"/>
      <point x="343" y="412"/>
      <point x="363" y="394" type="curve"/>
      <point x="428" y="520" type="line"/>
      <point x="387" y="549"/>
      <point x="343" y="563"/>
      <point x="288" y="563" type="curve" smooth="yes"/>
      <point x="89" y="563"/>
      <point x="18" y="336"/>
      <point x="18" y="170" type="curve" smooth="yes"/>
      <point x="18" y="60"/>
      <point x="75" y="-10"/>
    </contour>
  </outline>
</glyph>
<glyph name="c.serif" format="2">
  <advance width="462"/>
  <unicode hex="0063"/>
  <anchor x="204" y="0" name="bottom"/>
  <anchor x="328" y="536" name="top"/>
  <anchor x="499" y="536" name="topright"/>
  <outline>
    <contour>
      <point x="235" y="-10" type="curve" smooth="yes"/>
      <point x="358" y="-10"/>
      <point x="414" y="53"/>
      <point x="414" y="109" type="curve" smooth="yes"/>
      <point x="414" y="130"/>
      <point x="407" y="147"/>
      <point x="399" y="156" type="curve"/>
      <point x="375" y="114"/>
      <point x="344" y="71"/>
      <point x="285" y="71" type="curve" smooth="yes"/>
      <point x="229" y="71"/>
      <point x="200" y="114"/>
      <point x="200" y="200" type="curve" smooth="yes"/>
      <point x="200" y="330"/>
      <point x="254" y="482"/>
      <point x="300" y="482" type="curve" smooth="yes"/>
      <point x="335" y="482"/>
      <point x="354" y="421"/>
      <point x="351" y="347" type="curve"/>
      <point x="448" y="347"/>
      <point x="479" y="395"/>
      <point x="479" y="441" type="curve" smooth="yes"/>
      <point x="479" y="499"/>
      <point x="439" y="546"/>
      <point x="344" y="546" type="curve" smooth="yes"/>
      <point x="146" y="546"/>
      <point x="38" y="336"/>
      <point x="38" y="187" type="curve" smooth="yes"/>
      <point x="38" y="55"/>
      <point x="124" y="-10"/>
    </contour>
  </outline>
</glyph>
<glyph name="d" format="2">
  <advance width="487"/>
  <unicode hex="0064"/>
  <anchor x="188" y="0" name="bottom"/>
  <anchor x="300" y="265" name="center"/>
  <anchor x="349" y="760" name="top"/>
  <anchor x="572" y="760" name="topright"/>
  <outline>
    <contour>
      <point x="129" y="-10" type="curve" smooth="yes"/>
      <point x="180" y="-10"/>
      <point x="206" y="14"/>
      <point x="245" y="57" type="curve"/>
      <point x="249" y="57" type="line"/>
      <point x="253" y="0" type="line"/>
      <point x="383" y="0" type="line"/>
      <point x="545" y="760" type="line"/>
      <point x="385" y="760" type="line"/>
      <point x="348" y="588" type="line" smooth="yes"/>
      <point x="344" y="571"/>
      <point x="339" y="538"/>
      <point x="335" y="500" type="curve"/>
      <point x="332" y="500" type="line"/>
      <point x="311" y="546"/>
      <point x="269" y="563"/>
      <point x="223" y="563" type="curve" smooth="yes"/>
      <point x="82" y="563"/>
      <point x="14" y="291"/>
      <point x="14" y="156" type="curve" smooth="yes"/>
      <point x="14" y="54"/>
      <point x="58" y="-10"/>
    </contour>
    <contour>
      <point x="201" y="125" type="curve" smooth="yes"/>
      <point x="187" y="125"/>
      <point x="179" y="144"/>
      <point x="179" y="181" type="curve" smooth="yes"/>
      <point x="179" y="229"/>
      <point x="209" y="424"/>
      <point x="266" y="424" type="curve" smooth="yes"/>
      <point x="286" y="424"/>
      <point x="296" y="407"/>
      <point x="296" y="370" type="curve" smooth="yes"/>
      <point x="296" y="295"/>
      <point x="260" y="125"/>
    </contour>
  </outline>
</glyph>
<glyph name="d.serif" format="2">
  <advance width="606"/>
  <unicode hex="0064"/>
  <anchor x="246" y="0" name="bottom"/>
  <anchor x="360" y="268" name="center"/>
  <anchor x="408" y="760" name="top"/>
  <anchor x="661" y="760" name="topright"/>
  <outline>
    <contour>
      <point x="162" y="-10" type="curve" smooth="yes"/>
      <point x="231" y="-10"/>
      <point x="277" y="26"/>
      <point x="325" y="129" type="curve"/>
      <point x="330" y="129" type="line"/>
      <point x="328" y="120"/>
      <point x="326" y="106"/>
      <point x="326" y="97" type="curve" smooth="yes"/>
      <point x="326" y="15"/>
      <point x="362" y="-10"/>
      <point x="416" y="-10" type="curve" smooth="yes"/>
      <point x="486" y="-10"/>
      <point x="525" y="22"/>
      <point x="559" y="52" type="curve"/>
      <point x="540" y="94" type="line"/>
      <point x="534" y="86"/>
      <point x="519" y="75"/>
      <point x="506" y="75" type="curve" smooth="yes"/>
      <point x="489" y="75"/>
      <point x="477" y="87"/>
      <point x="477" y="114" type="curve" smooth="yes"/>
      <point x="477" y="136"/>
      <point x="486" y="180"/>
      <point x="494" y="215" type="curve" smooth="yes"/>
      <point x="610" y="760" type="line"/>
      <point x="372" y="760" type="line"/>
      <point x="361" y="703" type="line"/>
      <point x="382" y="703" type="line" smooth="yes"/>
      <point x="413" y="703"/>
      <point x="421" y="695"/>
      <point x="421" y="678" type="curve" smooth="yes"/>
      <point x="421" y="659"/>
      <point x="417" y="641"/>
      <point x="412" y="621" type="curve" smooth="yes"/>
      <point x="404" y="583" type="line" smooth="yes"/>
      <point x="401" y="571"/>
      <point x="394" y="538"/>
      <point x="392" y="521" type="curve"/>
      <point x="371" y="536"/>
      <point x="341" y="546"/>
      <point x="309" y="546" type="curve" smooth="yes"/>
      <point x="139" y="546"/>
      <point x="37" y="318"/>
      <point x="37" y="160" type="curve" smooth="yes"/>
      <point x="37" y="69"/>
      <point x="72" y="-10"/>
    </contour>
    <contour>
      <point x="232" y="76" type="curve" smooth="yes"/>
      <point x="212" y="76"/>
      <point x="198" y="96"/>
      <point x="198" y="157" type="curve" smooth="yes"/>
      <point x="198" y="264"/>
      <point x="251" y="475"/>
      <point x="332" y="475" type="curve" smooth="yes"/>
      <point x="347" y="475"/>
      <point x="367" y="466"/>
      <point x="378" y="450" type="curve"/>
      <point x="344" y="288" type="line" smooth="yes"/>
      <point x="322" y="182"/>
      <point x="273" y="76"/>
    </contour>
  </outline>
</glyph>
<glyph name="e" format="2">
  <advance width="461"/>
  <unicode hex="0065"/>
  <anchor x="175" y="0" name="bottom"/>
  <anchor x="287" y="530" name="top"/>
  <anchor x="497" y="530" name="topright"/>
  <outline>
    <contour>
      <point x="199" y="-10" type="curve" smooth="yes"/>
      <point x="257" y="-10"/>
      <point x="313" y="1"/>
      <point x="372" y="40" type="curve"/>
      <point x="372" y="159" type="line"/>
      <point x="317" y="128"/>
      <point x="284" y="119"/>
      <point x="236" y="119" type="curve" smooth="yes"/>
      <point x="195" y="119"/>
      <point x="174" y="138"/>
      <point x="174" y="193" type="curve" smooth="yes"/>
      <point x="174" y="202"/>
      <point x="175" y="214"/>
      <point x="177" y="225" type="curve"/>
      <point x="187" y="225" type="line" smooth="yes"/>
      <point x="345" y="225"/>
      <point x="455" y="285"/>
      <point x="455" y="419" type="curve" smooth="yes"/>
      <point x="455" y="506"/>
      <point x="390" y="562"/>
      <point x="297" y="562" type="curve" smooth="yes"/>
      <point x="97" y="562"/>
      <point x="17" y="349"/>
      <point x="17" y="176" type="curve" smooth="yes"/>
      <point x="17" y="60"/>
      <point x="86" y="-10"/>
    </contour>
    <contour>
      <point x="203" y="339" type="curve"/>
      <point x="201" y="339" type="line"/>
      <point x="220" y="408"/>
      <point x="246" y="437"/>
      <point x="274" y="437" type="curve" smooth="yes"/>
      <point x="294" y="437"/>
      <point x="309" y="423"/>
      <point x="309" y="403" type="curve" smooth="yes"/>
      <point x="309" y="366"/>
      <point x="288" y="339"/>
    </contour>
  </outline>
</glyph>
<glyph name="e.serif" format="2">
  <advance width="468"/>
  <unicode hex="0065"/>
  <anchor x="197" y="0" name="bottom"/>
  <anchor x="341" y="536" name="top"/>
  <anchor x="515" y="536" name="topright"/>
  <outline>
    <contour>
      <point x="233" y="-10" type="curve" smooth="yes"/>
      <point x="359" y="-10"/>
      <point x="418" y="60"/>
      <point x="418" y="115" type="curve" smooth="yes"/>
      <point x="418" y="132"/>
      <point x="414" y="147"/>
      <point x="407" y="155" type="curve"/>
      <point x="383" y="113"/>
      <point x="337" y="71"/>
      <point x="283" y="71" type="curve" smooth="yes"/>
      <point x="226" y="71"/>
      <point x="199" y="109"/>
      <point x="199" y="177" type="curve" smooth="yes"/>
      <point x="199" y="197"/>
      <point x="201" y="211"/>
      <point x="203" y="223" type="curve"/>
      <point x="235" y="223" type="line" smooth="yes"/>
      <point x="381" y="223"/>
      <point x="491" y="321"/>
      <point x="491" y="432" type="curve" smooth="yes"/>
      <point x="491" y="504"/>
      <point x="443" y="546"/>
      <point x="359" y="546" type="curve" smooth="yes"/>
      <point x="153" y="546"/>
      <point x="38" y="338"/>
      <point x="38" y="187" type="curve" smooth="yes"/>
      <point x="38" y="53"/>
      <point x="126" y="-10"/>
    </contour>
    <contour>
      <point x="215" y="284" type="curve" smooth="yes"/>
      <point x="209" y="284" type="line"/>
      <point x="222" y="378"/>
      <point x="267" y="482"/>
      <point x="311" y="482" type="curve" smooth="yes"/>
      <point x="331" y="482"/>
      <point x="343" y="459"/>
      <point x="343" y="424" type="curve" smooth="yes"/>
      <point x="343" y="340"/>
      <point x="285" y="284"/>
    </contour>
  </outline>
</glyph>
<glyph name="f" format="2">
  <advance width="309"/>
  <unicode hex="0066"/>
  <anchor x="-36" y="-240" name="bottom"/>
  <anchor x="301" y="765" name="top"/>
  <anchor x="435" y="765" name="topright"/>
  <outline>
    <contour>
      <point x="-36" y="-240" type="curve" smooth="yes"/>
      <point x="84" y="-240"/>
      <point x="127" y="-170"/>
      <point x="153" y="-45" type="curve" smooth="yes"/>
      <point x="253" y="420" type="line"/>
      <point x="334" y="420" type="line"/>
      <point x="361" y="553" type="line"/>
      <point x="280" y="553" type="line"/>
      <point x="288" y="587" type="line"/>
      <point x="293" y="609"/>
      <point x="303" y="630"/>
      <point x="327" y="630" type="curve" smooth="yes"/>
      <point x="338" y="630"/>
      <point x="355" y="625"/>
      <point x="369" y="617" type="curve"/>
      <point x="423" y="737" type="line"/>
      <point x="382" y="758"/>
      <point x="342" y="765"/>
      <point x="303" y="765" type="curve" smooth="yes"/>
      <point x="175" y="765"/>
      <point x="142" y="654"/>
      <point x="127" y="582" type="curve" smooth="yes"/>
      <point x="119" y="548" type="line"/>
      <point x="55" y="503" type="line"/>
      <point x="38" y="420" type="line"/>
      <point x="92" y="420" type="line"/>
      <point x="-3" y="-32" type="line" smooth="yes"/>
      <point x="-10" y="-67"/>
      <point x="-17" y="-100"/>
      <point x="-60" y="-100" type="curve" smooth="yes"/>
      <point x="-72" y="-100"/>
      <point x="-98" y="-96"/>
      <point x="-110" y="-90" type="curve"/>
      <point x="-110" y="-229" type="line"/>
      <point x="-83" y="-239"/>
      <point x="-60" y="-240"/>
    </contour>
  </outline>
</glyph>
<glyph name="f.serif" format="2">
  <advance width="394"/>
  <unicode hex="0066"/>
  <anchor x="-70" y="-240" name="bottom"/>
  <anchor x="394" y="770" name="top"/>
  <anchor x="561" y="770" name="topright"/>
  <outline>
    <contour>
      <point x="-70" y="-240" type="curve" smooth="yes"/>
      <point x="16" y="-240"/>
      <point x="168" y="-191"/>
      <point x="213" y="25" type="curve" smooth="yes"/>
      <point x="305" y="464" type="line"/>
      <point x="420" y="464" type="line"/>
      <point x="436" y="536" type="line"/>
      <point x="322" y="536" type="line"/>
      <point x="335" y="600" type="line" smooth="yes"/>
      <point x="350" y="680"/>
      <point x="359" y="703"/>
      <point x="387" y="703" type="curve" smooth="yes"/>
      <point x="416" y="703"/>
      <point x="423" y="654"/>
      <point x="422" y="607" type="curve"/>
      <point x="501" y="607"/>
      <point x="543" y="635"/>
      <point x="543" y="680" type="curve" smooth="yes"/>
      <point x="543" y="730"/>
      <point x="493" y="770"/>
      <point x="397" y="770" type="curve" smooth="yes"/>
      <point x="269" y="770"/>
      <point x="197" y="705"/>
      <point x="165" y="575" type="curve" smooth="yes"/>
      <point x="155" y="536" type="line"/>
      <point x="76" y="515" type="line"/>
      <point x="63" y="464" type="line"/>
      <point x="137" y="464" type="line"/>
      <point x="39" y="-9" type="line" smooth="yes"/>
      <point x="12" y="-142"/>
      <point x="-17" y="-177"/>
      <point x="-70" y="-177" type="curve" smooth="yes"/>
      <point x="-82" y="-177"/>
      <point x="-98" y="-173"/>
      <point x="-107" y="-170" type="curve"/>
      <point x="-122" y="-232" type="line"/>
      <point x="-111" y="-236"/>
      <point x="-86" y="-240"/>
    </contour>
  </outline>
</glyph>
<glyph name="g" format="2">
  <advance width="487"/>
  <unicode hex="0067"/>
  <anchor x="137" y="-240" name="bottom"/>
  <anchor x="297" y="553" name="top"/>
  <anchor x="523" y="547" name="topright"/>
  <outline>
    <contour>
      <point x="133" y="-240" type="curve" smooth="yes"/>
      <point x="261" y="-240"/>
      <point x="345" y="-181"/>
      <point x="377" y="-30" type="curve"/>
      <point x="501" y="553" type="line"/>
      <point x="361" y="553" type="line"/>
      <point x="338" y="487" type="line"/>
      <point x="336" y="487" type="line"/>
      <point x="320" y="541"/>
      <point x="294" y="563"/>
      <point x="239" y="563" type="curve" smooth="yes"/>
      <point x="85" y="563"/>
      <point x="13" y="292"/>
      <point x="13" y="148" type="curve" smooth="yes"/>
      <point x="13" y="48"/>
      <point x="58" y="-10"/>
      <point x="125" y="-10" type="curve" smooth="yes"/>
      <point x="169" y="-10"/>
      <point x="201" y="3"/>
      <point x="235" y="47" type="curve"/>
      <point x="238" y="47" type="line"/>
      <point x="230" y="22"/>
      <point x="224" y="0"/>
      <point x="220" y="-17" type="curve"/>
      <point x="216" y="-34" type="line"/>
      <point x="205" y="-77"/>
      <point x="179" y="-107"/>
      <point x="128" y="-107" type="curve" smooth="yes"/>
      <point x="76" y="-107"/>
      <point x="7" y="-86"/>
      <point x="-28" y="-65" type="curve"/>
      <point x="-28" y="-206" type="line"/>
      <point x="10" y="-226"/>
      <point x="68" y="-240"/>
    </contour>
    <contour>
      <point x="203" y="129" type="curve" smooth="yes"/>
      <point x="187" y="129"/>
      <point x="179" y="147"/>
      <point x="179" y="184" type="curve" smooth="yes"/>
      <point x="179" y="232"/>
      <point x="208" y="424"/>
      <point x="265" y="424" type="curve" smooth="yes"/>
      <point x="285" y="424"/>
      <point x="296" y="408"/>
      <point x="296" y="381" type="curve" smooth="yes"/>
      <point x="296" y="312"/>
      <point x="263" y="129"/>
    </contour>
  </outline>
</glyph>
<glyph name="g.serif" format="2">
  <advance width="492"/>
  <unicode hex="0067"/>
  <anchor x="138" y="-240" name="bottom"/>
  <anchor x="303" y="536" name="top"/>
  <anchor x="529" y="536" name="topright"/>
  <outline>
    <contour>
      <point x="128" y="-240" type="curve" smooth="yes"/>
      <point x="303" y="-240"/>
      <point x="412" y="-154"/>
      <point x="412" y="-28" type="curve" smooth="yes"/>
      <point x="412" y="52"/>
      <point x="366" y="93"/>
      <point x="290" y="101" type="curve" smooth="yes"/>
      <point x="188" y="113" type="line" smooth="yes"/>
      <point x="162" y="116"/>
      <point x="142" y="120"/>
      <point x="142" y="141" type="curve" smooth="yes"/>
      <point x="142" y="155"/>
      <point x="162" y="180"/>
      <point x="191" y="191" type="curve"/>
      <point x="204" y="188"/>
      <point x="215" y="187"/>
      <point x="233" y="187" type="curve" smooth="yes"/>
      <point x="380" y="187"/>
      <point x="447" y="304"/>
      <point x="447" y="404" type="curve" smooth="yes"/>
      <point x="447" y="432"/>
      <point x="440" y="460"/>
      <point x="427" y="481" type="curve"/>
      <point x="441" y="490"/>
      <point x="450" y="495"/>
      <point x="466" y="495" type="curve" smooth="yes"/>
      <point x="490" y="495"/>
      <point x="497" y="482"/>
      <point x="495" y="451" type="curve"/>
      <point x="541" y="451"/>
      <point x="553" y="495"/>
      <point x="553" y="528" type="curve" smooth="yes"/>
      <point x="553" y="557"/>
      <point x="536" y="581"/>
      <point x="499" y="581" type="curve" smooth="yes"/>
      <point x="458" y="581"/>
      <point x="427" y="551"/>
      <point x="398" y="514" type="curve"/>
      <point x="374" y="536"/>
      <point x="338" y="546"/>
      <point x="300" y="546" type="curve" smooth="yes"/>
      <point x="149" y="546"/>
      <point x="73" y="419"/>
      <point x="73" y="323" type="curve" smooth="yes"/>
      <point x="73" y="270"/>
      <point x="92" y="231"/>
      <point x="126" y="210" type="curve"/>
      <point x="66" y="182"/>
      <point x="24" y="136"/>
      <point x="24" y="85" type="curve" smooth="yes"/>
      <point x="24" y="47"/>
      <point x="44" y="22"/>
      <point x="64" y="8" type="curve"/>
      <point x="-3" y="-6"/>
      <point x="-69" y="-49"/>
      <point x="-69" y="-119" type="curve" smooth="yes"/>
      <point x="-69" y="-191"/>
      <point x="-17" y="-240"/>
    </contour>
    <contour>
      <point x="142" y="-176" type="curve" smooth="yes"/>
      <point x="73" y="-176"/>
      <point x="57" y="-146"/>
      <point x="57" y="-113" type="curve" smooth="yes"/>
      <point x="57" y="-69"/>
      <point x="89" y="-31"/>
      <point x="129" y="-23" type="curve"/>
      <point x="195" y="-31" type="line" smooth="yes"/>
      <point x="253" y="-37"/>
      <point x="273" y="-53"/>
      <point x="273" y="-86" type="curve" smooth="yes"/>
      <point x="273" y="-133"/>
      <point x="230" y="-176"/>
    </contour>
    <contour>
      <point x="232" y="255" type="curve" smooth="yes"/>
      <point x="212" y="255"/>
      <point x="201" y="271"/>
      <point x="201" y="310" type="curve" smooth="yes"/>
      <point x="201" y="382"/>
      <point x="236" y="478"/>
      <point x="277" y="478" type="curve" smooth="yes"/>
      <point x="297" y="478"/>
      <point x="308" y="461"/>
      <point x="308" y="425" type="curve" smooth="yes"/>
      <point x="308" y="352"/>
      <point x="276" y="255"/>
    </contour>
  </outline>
</glyph>
<glyph name="h" format="2">
  <advance width="491"/>
  <unicode hex="0068"/>
  <anchor x="190" y="0" name="bottom"/>
  <anchor x="302" y="265" name="center"/>
  <anchor x="351" y="760" name="top"/>
  <anchor x="546" y="760" name="topright"/>
  <outline>
    <contour>
      <point x="-13" y="0" type="line"/>
      <point x="148" y="0" type="line"/>
      <point x="213" y="310" type="line" smooth="yes"/>
      <point x="232" y="398"/>
      <point x="256" y="419"/>
      <point x="275" y="419" type="curve" smooth="yes"/>
      <point x="297" y="419"/>
      <point x="304" y="402"/>
      <point x="304" y="384" type="curve" smooth="yes"/>
      <point x="304" y="360"/>
      <point x="300" y="335"/>
      <point x="294" y="308" type="curve" smooth="yes"/>
      <point x="229" y="0" type="line"/>
      <point x="389" y="0" type="line"/>
      <point x="464" y="353" type="line" smooth="yes"/>
      <point x="469" y="379"/>
      <point x="473" y="408"/>
      <point x="473" y="431" type="curve" smooth="yes"/>
      <point x="473" y="511"/>
      <point x="431" y="563"/>
      <point x="359" y="563" type="curve" smooth="yes"/>
      <point x="309" y="563"/>
      <point x="275" y="541"/>
      <point x="246" y="500" type="curve"/>
      <point x="243" y="500" type="line"/>
      <point x="257" y="539"/>
      <point x="271" y="583"/>
      <point x="279" y="621" type="curve" smooth="yes"/>
      <point x="309" y="760" type="line"/>
      <point x="149" y="760" type="line"/>
    </contour>
  </outline>
</glyph>
<glyph name="h.serif" format="2">
  <advance width="599"/>
  <unicode hex="0068"/>
  <anchor x="253" y="0" name="bottom"/>
  <anchor x="367" y="268" name="center"/>
  <anchor x="415" y="760" name="top"/>
  <anchor x="684" y="760" name="topright"/>
  <outline>
    <contour>
      <point x="438" y="-10" type="curve" smooth="yes"/>
      <point x="512" y="-10"/>
      <point x="562" y="27"/>
      <point x="589" y="63" type="curve"/>
      <point x="566" y="99" type="line"/>
      <point x="547" y="84"/>
      <point x="538" y="76"/>
      <point x="521" y="76" type="curve" smooth="yes"/>
      <point x="503" y="76"/>
      <point x="494" y="90"/>
      <point x="494" y="116" type="curve" smooth="yes"/>
      <point x="494" y="143"/>
      <point x="502" y="174"/>
      <point x="510" y="213" type="curve" smooth="yes"/>
      <point x="530" y="316" type="line" smooth="yes"/>
      <point x="537" y="354"/>
      <point x="549" y="401"/>
      <point x="549" y="437" type="curve" smooth="yes"/>
      <point x="549" y="495"/>
      <point x="524" y="547"/>
      <point x="449" y="547" type="curve" smooth="yes"/>
      <point x="387" y="547"/>
      <point x="332" y="515"/>
      <point x="290" y="452" type="curve"/>
      <point x="289" y="452" type="line"/>
      <point x="293" y="465"/>
      <point x="299" y="488"/>
      <point x="303" y="505" type="curve" smooth="yes"/>
      <point x="355" y="760" type="line"/>
      <point x="115" y="760" type="line"/>
      <point x="104" y="703" type="line"/>
      <point x="126" y="703" type="line" smooth="yes"/>
      <point x="154" y="703"/>
      <point x="162" y="694"/>
      <point x="162" y="676" type="curve" smooth="yes"/>
      <point x="162" y="658"/>
      <point x="157" y="640"/>
      <point x="154" y="623" type="curve" smooth="yes"/>
      <point x="21" y="0" type="line"/>
      <point x="186" y="0" type="line"/>
      <point x="242" y="242" type="line" smooth="yes"/>
      <point x="259" y="316"/>
      <point x="300" y="453"/>
      <point x="348" y="453" type="curve" smooth="yes"/>
      <point x="369" y="453"/>
      <point x="373" y="426"/>
      <point x="373" y="403" type="curve" smooth="yes"/>
      <point x="373" y="370"/>
      <point x="362" y="314"/>
      <point x="356" y="287" type="curve" smooth="yes"/>
      <point x="339" y="207" type="line" smooth="yes"/>
      <point x="327" y="152"/>
      <point x="324" y="114"/>
      <point x="324" y="92" type="curve" smooth="yes"/>
      <point x="324" y="30"/>
      <point x="365" y="-10"/>
    </contour>
  </outline>
</glyph>
<glyph name="i.serif" format="2">
  <advance width="326"/>
  <unicode hex="0069"/>
  <anchor x="106" y="0" name="bottom"/>
  <anchor x="270" y="773" name="top"/>
  <anchor x="413" y="773" name="topright"/>
  <outline>
    <contour>
      <point x="173" y="-10" type="curve" smooth="yes"/>
      <point x="250" y="-10"/>
      <point x="284" y="26"/>
      <point x="314" y="62" type="curve"/>
      <point x="292" y="98" type="line"/>
      <point x="276" y="83"/>
      <point x="268" y="76"/>
      <point x="252" y="76" type="curve" smooth="yes"/>
      <point x="235" y="76"/>
      <point x="224" y="91"/>
      <point x="224" y="116" type="curve" smooth="yes"/>
      <point x="224" y="142"/>
      <point x="229" y="168"/>
      <point x="238" y="210" type="curve" smooth="yes"/>
      <point x="309" y="536" type="line"/>
      <point x="73" y="536" type="line"/>
      <point x="62" y="479" type="line"/>
      <point x="80" y="479" type="line" smooth="yes"/>
      <point x="108" y="479"/>
      <point x="116" y="472"/>
      <point x="116" y="450" type="curve" smooth="yes"/>
      <point x="116" y="435"/>
      <point x="113" y="405"/>
      <point x="105" y="371" type="curve" smooth="yes"/>
      <point x="79" y="250" type="line" smooth="yes"/>
      <point x="60" y="167"/>
      <point x="53" y="120"/>
      <point x="53" y="91" type="curve" smooth="yes"/>
      <point x="53" y="26"/>
      <point x="96" y="-10"/>
    </contour>
    <contour>
      <point x="223" y="623" type="curve" smooth="yes"/>
      <point x="277" y="623"/>
      <point x="330" y="652"/>
      <point x="330" y="711" type="curve" smooth="yes"/>
      <point x="330" y="756"/>
      <point x="291" y="773"/>
      <point x="249" y="773" type="curve" smooth="yes"/>
      <point x="197" y="773"/>
      <point x="145" y="750"/>
      <point x="145" y="685" type="curve" smooth="yes"/>
      <point x="145" y="642"/>
      <point x="180" y="623"/>
    </contour>
  </outline>
</glyph>
<glyph name="j.serif" format="2">
  <advance width="311"/>
  <unicode hex="006A"/>
  <anchor x="-16" y="-239" name="bottom"/>
  <anchor x="263" y="773" name="top"/>
  <anchor x="398" y="773" name="topright"/>
  <outline>
    <contour>
      <point x="-16" y="-239" type="curve" smooth="yes"/>
      <point x="63" y="-235"/>
      <point x="155" y="-179"/>
      <point x="191" y="-8" type="curve" smooth="yes"/>
      <point x="307" y="536" type="line"/>
      <point x="72" y="536" type="line"/>
      <point x="61" y="479" type="line"/>
      <point x="79" y="479" type="line" smooth="yes"/>
      <point x="107" y="479"/>
      <point x="115" y="470"/>
      <point x="115" y="446" type="curve" smooth="yes"/>
      <point x="115" y="427"/>
      <point x="111" y="410"/>
      <point x="106" y="388" type="curve" smooth="yes"/>
      <point x="23" y="-8" type="line" smooth="yes"/>
      <point x="-5" y="-141"/>
      <point x="-25" y="-180"/>
      <point x="-74" y="-180" type="curve" smooth="yes"/>
      <point x="-84" y="-180"/>
      <point x="-102" y="-176"/>
      <point x="-109" y="-173" type="curve"/>
      <point x="-123" y="-227" type="line"/>
      <point x="-83" y="-237"/>
      <point x="-62" y="-241"/>
    </contour>
    <contour>
      <point x="222" y="623" type="curve" smooth="yes"/>
      <point x="293" y="623"/>
      <point x="329" y="653"/>
      <point x="329" y="711" type="curve" smooth="yes"/>
      <point x="329" y="756"/>
      <point x="290" y="773"/>
      <point x="248" y="773" type="curve" smooth="yes"/>
      <point x="196" y="773"/>
      <point x="144" y="750"/>
      <point x="144" y="685" type="curve" smooth="yes"/>
      <point x="144" y="642"/>
      <point x="179" y="623"/>
    </contour>
  </outline>
</glyph>
<glyph name="k" format="2">
  <advance width="484"/>
  <unicode hex="006B"/>
  <anchor x="186" y="0" name="bottom"/>
  <anchor x="347" y="760" name="top"/>
  <anchor x="499" y="880" name="topright"/>
  <outline>
    <contour>
      <point x="-13" y="0" type="line"/>
      <point x="148" y="0" type="line"/>
      <point x="177" y="152" type="line"/>
      <point x="216" y="185" type="line"/>
      <point x="259" y="0" type="line"/>
      <point x="433" y="0" type="line"/>
      <point x="355" y="314" type="line"/>
      <point x="540" y="553" type="line"/>
      <point x="366" y="553" type="line"/>
      <point x="218" y="354" type="line"/>
      <point x="216" y="354" type="line"/>
      <point x="228" y="393"/>
      <point x="238" y="429"/>
      <point x="246" y="466" type="curve" smooth="yes"/>
      <point x="309" y="760" type="line"/>
      <point x="149" y="760" type="line"/>
    </contour>
  </outline>
</glyph>
<glyph name="k.serif" format="2">
  <advance width="529"/>
  <unicode hex="006B"/>
  <anchor x="218" y="0" name="bottom"/>
  <anchor x="380" y="760" name="top"/>
  <anchor x="514" y="900" name="topright"/>
  <outline>
    <contour>
      <point x="454" y="-5" type="curve" smooth="yes"/>
      <point x="502" y="-5" type="line"/>
      <point x="515" y="51" type="line"/>
      <point x="492" y="51"/>
      <point x="470" y="67"/>
      <point x="439" y="161" type="curve" smooth="yes"/>
      <point x="373" y="360" type="line"/>
      <point x="326" y="277" type="line"/>
      <point x="413" y="375" type="line" smooth="yes"/>
      <point x="482" y="454"/>
      <point x="531" y="483"/>
      <point x="576" y="483" type="curve"/>
      <point x="586" y="536" type="line"/>
      <point x="358" y="536" type="line"/>
      <point x="347" y="483" type="line"/>
      <point x="377" y="483"/>
      <point x="386" y="474"/>
      <point x="386" y="460" type="curve" smooth="yes"/>
      <point x="386" y="447"/>
      <point x="382" y="438"/>
      <point x="332" y="377" type="curve" smooth="yes"/>
      <point x="239" y="270" type="line"/>
      <point x="263" y="343"/>
      <point x="276" y="407"/>
      <point x="290" y="472" type="curve" smooth="yes"/>
      <point x="355" y="760" type="line"/>
      <point x="116" y="760" type="line"/>
      <point x="104" y="703" type="line"/>
      <point x="131" y="703" type="line" smooth="yes"/>
      <point x="153" y="703"/>
      <point x="161" y="699"/>
      <point x="161" y="678" type="curve" smooth="yes"/>
      <point x="161" y="660"/>
      <point x="157" y="641"/>
      <point x="154" y="623" type="curve" smooth="yes"/>
      <point x="21" y="0" type="line"/>
      <point x="185" y="0" type="line"/>
      <point x="229" y="200" type="line"/>
      <point x="314" y="271" type="line"/>
      <point x="241" y="252" type="line"/>
      <point x="287" y="94" type="line" smooth="yes"/>
      <point x="309" y="18"/>
      <point x="357" y="-5"/>
    </contour>
  </outline>
</glyph>
<glyph name="l" format="2">
  <advance width="250"/>
  <unicode hex="006C"/>
  <anchor x="69" y="0" name="bottom"/>
  <anchor x="181" y="265" name="center"/>
  <anchor x="230" y="760" name="top"/>
  <anchor x="335" y="760" name="topright"/>
  <outline>
    <contour>
      <point x="-13" y="0" type="line"/>
      <point x="148" y="0" type="line"/>
      <point x="309" y="760" type="line"/>
      <point x="149" y="760" type="line"/>
    </contour>
  </outline>
</glyph>
<glyph name="l.serif" format="2">
  <advance width="326"/>
  <unicode hex="006C"/>
  <anchor x="106" y="0" name="bottom"/>
  <anchor x="220" y="268" name="center"/>
  <anchor x="268" y="760" name="top"/>
  <anchor x="411" y="760" name="topright"/>
  <outline>
    <contour>
      <point x="160" y="-10" type="curve" smooth="yes"/>
      <point x="237" y="-10"/>
      <point x="273" y="26"/>
      <point x="302" y="62" type="curve"/>
      <point x="280" y="98" type="line"/>
      <point x="262" y="83"/>
      <point x="253" y="76"/>
      <point x="240" y="76" type="curve" smooth="yes"/>
      <point x="223" y="76"/>
      <point x="212" y="91"/>
      <point x="212" y="116" type="curve" smooth="yes"/>
      <point x="212" y="142"/>
      <point x="216" y="168"/>
      <point x="225" y="210" type="curve" smooth="yes"/>
      <point x="347" y="760" type="line"/>
      <point x="112" y="760" type="line"/>
      <point x="100" y="703" type="line"/>
      <point x="124" y="703" type="line" smooth="yes"/>
      <point x="147" y="703"/>
      <point x="155" y="696"/>
      <point x="155" y="679" type="curve" smooth="yes"/>
      <point x="155" y="659"/>
      <point x="149" y="639"/>
      <point x="145" y="621" type="curve" smooth="yes"/>
      <point x="70" y="267" type="line" smooth="yes"/>
      <point x="51" y="176"/>
      <point x="41" y="130"/>
      <point x="41" y="93" type="curve" smooth="yes"/>
      <point x="41" y="28"/>
      <point x="83" y="-10"/>
    </contour>
  </outline>
</glyph>
<glyph name="m" format="2">
  <advance width="725"/>
  <unicode hex="006D"/>
  <anchor x="307" y="0" name="bottom"/>
  <anchor x="419" y="553" name="top"/>
  <anchor x="761" y="553" name="topright"/>
  <outline>
    <contour>
      <point x="-13" y="0" type="line"/>
      <point x="148" y="0" type="line"/>
      <point x="210" y="293" type="line" smooth="yes"/>
      <point x="220" y="345"/>
      <point x="243" y="419"/>
      <point x="279" y="419" type="curve" smooth="yes"/>
      <point x="294" y="419"/>
      <point x="301" y="408"/>
      <point x="301" y="384" type="curve" smooth="yes"/>
      <point x="301" y="366"/>
      <point x="296" y="336"/>
      <point x="290" y="307" type="curve" smooth="yes"/>
      <point x="225" y="0" type="line"/>
      <point x="385" y="0" type="line"/>
      <point x="447" y="293" type="line" smooth="yes"/>
      <point x="458" y="345"/>
      <point x="477" y="419"/>
      <point x="515" y="419" type="curve" smooth="yes"/>
      <point x="531" y="419"/>
      <point x="538" y="407"/>
      <point x="538" y="382" type="curve" smooth="yes"/>
      <point x="538" y="364"/>
      <point x="534" y="336"/>
      <point x="528" y="307" type="curve" smooth="yes"/>
      <point x="463" y="0" type="line"/>
      <point x="623" y="0" type="line"/>
      <point x="698" y="353" type="line" smooth="yes"/>
      <point x="705" y="386"/>
      <point x="709" y="417"/>
      <point x="709" y="441" type="curve" smooth="yes"/>
      <point x="709" y="518"/>
      <point x="670" y="563"/>
      <point x="598" y="563" type="curve" smooth="yes"/>
      <point x="550" y="563"/>
      <point x="503" y="536"/>
      <point x="470" y="495" type="curve"/>
      <point x="467" y="495" type="line"/>
      <point x="449" y="541"/>
      <point x="415" y="563"/>
      <point x="357" y="563" type="curve" smooth="yes"/>
      <point x="308" y="563"/>
      <point x="264" y="534"/>
      <point x="234" y="490" type="curve"/>
      <point x="230" y="490" type="line"/>
      <point x="233" y="553" type="line"/>
      <point x="105" y="553" type="line"/>
    </contour>
  </outline>
</glyph>
<glyph name="m.serif" format="2">
  <advance width="845"/>
  <unicode hex="006D"/>
  <anchor x="366" y="0" name="bottom"/>
  <anchor x="480" y="536" name="top"/>
  <anchor x="882" y="536" name="topright"/>
  <outline>
    <contour>
      <point x="684" y="-8" type="curve" smooth="yes"/>
      <point x="759" y="-8"/>
      <point x="808" y="29"/>
      <point x="835" y="65" type="curve"/>
      <point x="812" y="101" type="line"/>
      <point x="795" y="86"/>
      <point x="784" y="78"/>
      <point x="767" y="78" type="curve" smooth="yes"/>
      <point x="751" y="78"/>
      <point x="741" y="92"/>
      <point x="741" y="118" type="curve" smooth="yes"/>
      <point x="741" y="144"/>
      <point x="748" y="175"/>
      <point x="756" y="215" type="curve" smooth="yes"/>
      <point x="776" y="311" type="line" smooth="yes"/>
      <point x="784" y="349"/>
      <point x="796" y="404"/>
      <point x="796" y="441" type="curve" smooth="yes"/>
      <point x="796" y="495"/>
      <point x="774" y="546"/>
      <point x="702" y="546" type="curve" smooth="yes"/>
      <point x="629" y="546"/>
      <point x="574" y="517"/>
      <point x="534" y="438" type="curve"/>
      <point x="532" y="438" type="line"/>
      <point x="533" y="442"/>
      <point x="533" y="446"/>
      <point x="533" y="449" type="curve" smooth="yes"/>
      <point x="533" y="498"/>
      <point x="513" y="546"/>
      <point x="446" y="546" type="curve" smooth="yes"/>
      <point x="391" y="546"/>
      <point x="342" y="523"/>
      <point x="292" y="451" type="curve"/>
      <point x="288" y="451" type="line"/>
      <point x="300" y="536" type="line"/>
      <point x="76" y="536" type="line"/>
      <point x="66" y="479" type="line"/>
      <point x="88" y="479" type="line" smooth="yes"/>
      <point x="110" y="479"/>
      <point x="118" y="473"/>
      <point x="118" y="454" type="curve" smooth="yes"/>
      <point x="118" y="434"/>
      <point x="112" y="414"/>
      <point x="109" y="397" type="curve" smooth="yes"/>
      <point x="25" y="0" type="line"/>
      <point x="190" y="0" type="line"/>
      <point x="242" y="249" type="line" smooth="yes"/>
      <point x="257" y="321"/>
      <point x="305" y="453"/>
      <point x="346" y="453" type="curve" smooth="yes"/>
      <point x="360" y="453"/>
      <point x="363" y="433"/>
      <point x="363" y="416" type="curve" smooth="yes"/>
      <point x="363" y="384"/>
      <point x="358" y="342"/>
      <point x="347" y="290" type="curve" smooth="yes"/>
      <point x="333" y="223" type="line" smooth="yes"/>
      <point x="319" y="154"/>
      <point x="301" y="60"/>
      <point x="293" y="0" type="curve"/>
      <point x="465" y="0" type="line"/>
      <point x="472" y="62"/>
      <point x="484" y="151"/>
      <point x="493" y="194" type="curve" smooth="yes"/>
      <point x="507" y="264" type="line" smooth="yes"/>
      <point x="525" y="353"/>
      <point x="563" y="457"/>
      <point x="602" y="457" type="curve" smooth="yes"/>
      <point x="618" y="457"/>
      <point x="620" y="434"/>
      <point x="620" y="415" type="curve" smooth="yes"/>
      <point x="620" y="374"/>
      <point x="610" y="324"/>
      <point x="603" y="291" type="curve" smooth="yes"/>
      <point x="586" y="209" type="line" smooth="yes"/>
      <point x="576" y="163"/>
      <point x="571" y="133"/>
      <point x="571" y="105" type="curve" smooth="yes"/>
      <point x="571" y="47"/>
      <point x="600" y="-8"/>
    </contour>
  </outline>
</glyph>
<glyph name="n" format="2">
  <advance width="491"/>
  <unicode hex="006E"/>
  <anchor x="195" y="0" name="bottom"/>
  <anchor x="309" y="556" name="top"/>
  <anchor x="527" y="550" name="topright"/>
  <outline>
    <contour>
      <point x="-13" y="0" type="line"/>
      <point x="148" y="0" type="line"/>
      <point x="208" y="285" type="line" smooth="yes"/>
      <point x="224" y="359"/>
      <point x="245" y="419"/>
      <point x="280" y="419" type="curve" smooth="yes"/>
      <point x="298" y="419"/>
      <point x="305" y="406"/>
      <point x="305" y="384" type="curve" smooth="yes"/>
      <point x="305" y="366"/>
      <point x="300" y="337"/>
      <point x="294" y="308" type="curve" smooth="yes"/>
      <point x="229" y="0" type="line"/>
      <point x="389" y="0" type="line"/>
      <point x="464" y="353" type="line" smooth="yes"/>
      <point x="471" y="388"/>
      <point x="473" y="413"/>
      <point x="473" y="433" type="curve" smooth="yes"/>
      <point x="473" y="533"/>
      <point x="412" y="563"/>
      <point x="353" y="563" type="curve" smooth="yes"/>
      <point x="306" y="563"/>
      <point x="266" y="535"/>
      <point x="234" y="489" type="curve"/>
      <point x="231" y="489" type="line"/>
      <point x="233" y="553" type="line"/>
      <point x="105" y="553" type="line"/>
    </contour>
  </outline>
</glyph>
<glyph name="n.serif" format="2">
  <advance width="613"/>
  <unicode hex="006E"/>
  <anchor x="250" y="0" name="bottom"/>
  <anchor x="364" y="536" name="top"/>
  <anchor x="650" y="536" name="topright"/>
  <outline>
    <contour>
      <point x="442" y="-10" type="curve" smooth="yes"/>
      <point x="517" y="-10"/>
      <point x="566" y="27"/>
      <point x="593" y="63" type="curve"/>
      <point x="570" y="99" type="line"/>
      <point x="552" y="84"/>
      <point x="539" y="76"/>
      <point x="525" y="76" type="curve" smooth="yes"/>
      <point x="509" y="76"/>
      <point x="499" y="90"/>
      <point x="499" y="116" type="curve" smooth="yes"/>
      <point x="499" y="143"/>
      <point x="506" y="174"/>
      <point x="514" y="213" type="curve" smooth="yes"/>
      <point x="533" y="310" type="line" smooth="yes"/>
      <point x="540" y="348"/>
      <point x="552" y="401"/>
      <point x="552" y="437" type="curve" smooth="yes"/>
      <point x="552" y="495"/>
      <point x="528" y="546"/>
      <point x="451" y="546" type="curve" smooth="yes"/>
      <point x="380" y="546"/>
      <point x="334" y="517"/>
      <point x="285" y="449" type="curve"/>
      <point x="283" y="449" type="line"/>
      <point x="284" y="536" type="line"/>
      <point x="77" y="536" type="line"/>
      <point x="66" y="479" type="line"/>
      <point x="88" y="479" type="line" smooth="yes"/>
      <point x="112" y="479"/>
      <point x="119" y="472"/>
      <point x="119" y="456" type="curve" smooth="yes"/>
      <point x="119" y="436"/>
      <point x="113" y="414"/>
      <point x="109" y="397" type="curve" smooth="yes"/>
      <point x="25" y="0" type="line"/>
      <point x="190" y="0" type="line"/>
      <point x="238" y="209" type="line" smooth="yes"/>
      <point x="255" y="299"/>
      <point x="306" y="453"/>
      <point x="351" y="453" type="curve" smooth="yes"/>
      <point x="372" y="453"/>
      <point x="376" y="427"/>
      <point x="376" y="404" type="curve" smooth="yes"/>
      <point x="376" y="370"/>
      <point x="365" y="314"/>
      <point x="359" y="287" type="curve" smooth="yes"/>
      <point x="343" y="207" type="line" smooth="yes"/>
      <point x="334" y="162"/>
      <point x="329" y="133"/>
      <point x="328" y="103" type="curve" smooth="yes"/>
      <point x="325" y="33"/>
      <point x="366" y="-10"/>
    </contour>
  </outline>
</glyph>
<glyph name="o" format="2">
  <advance width="479"/>
  <unicode hex="006F"/>
  <anchor x="184" y="0" name="bottom"/>
  <anchor x="296" y="265" name="center"/>
  <anchor x="296" y="530" name="top"/>
  <anchor x="515" y="530" name="topright"/>
  <outline>
    <contour>
      <point x="193" y="-10" type="curve" smooth="yes"/>
      <point x="386" y="-10"/>
      <point x="462" y="216"/>
      <point x="462" y="372" type="curve" smooth="yes"/>
      <point x="462" y="488"/>
      <point x="398" y="563"/>
      <point x="290" y="563" type="curve" smooth="yes"/>
      <point x="89" y="563"/>
      <point x="18" y="326"/>
      <point x="18" y="181" type="curve" smooth="yes"/>
      <point x="18" y="62"/>
      <point x="83" y="-10"/>
    </contour>
    <contour>
      <point x="212" y="125" type="curve" smooth="yes"/>
      <point x="189" y="125"/>
      <point x="179" y="145"/>
      <point x="179" y="180" type="curve" smooth="yes"/>
      <point x="179" y="261"/>
      <point x="214" y="428"/>
      <point x="269" y="428" type="curve" smooth="yes"/>
      <point x="292" y="428"/>
      <point x="301" y="409"/>
      <point x="301" y="372" type="curve" smooth="yes"/>
      <point x="301" y="292"/>
      <point x="264" y="125"/>
    </contour>
  </outline>
</glyph>
<glyph name="o.serif" format="2">
  <advance width="537"/>
  <unicode hex="006F"/>
  <anchor x="212" y="0" name="bottom"/>
  <anchor x="326" y="268" name="center"/>
  <anchor x="326" y="536" name="top"/>
  <anchor x="574" y="536" name="topright"/>
  <outline>
    <contour>
      <point x="218" y="-10" type="curve" smooth="yes"/>
      <point x="425" y="-10"/>
      <point x="519" y="201"/>
      <point x="519" y="348" type="curve" smooth="yes"/>
      <point x="519" y="488"/>
      <point x="440" y="546"/>
      <point x="342" y="546" type="curve" smooth="yes"/>
      <point x="138" y="546"/>
      <point x="38" y="342"/>
      <point x="38" y="189" type="curve" smooth="yes"/>
      <point x="38" y="56"/>
      <point x="111" y="-10"/>
    </contour>
    <contour>
      <point x="241" y="69" type="curve" smooth="yes"/>
      <point x="214" y="69"/>
      <point x="198" y="96"/>
      <point x="198" y="158" type="curve" smooth="yes"/>
      <point x="198" y="271"/>
      <point x="254" y="473"/>
      <point x="319" y="473" type="curve" smooth="yes"/>
      <point x="345" y="473"/>
      <point x="361" y="447"/>
      <point x="361" y="386" type="curve" smooth="yes"/>
      <point x="361" y="287"/>
      <point x="315" y="69"/>
    </contour>
  </outline>
</glyph>
<glyph name="p" format="2">
  <advance width="487"/>
  <unicode hex="0070"/>
  <anchor x="137" y="-240" name="bottom"/>
  <anchor x="300" y="530" name="top"/>
  <anchor x="523" y="530" name="topright"/>
  <outline>
    <contour>
      <point x="-63" y="-240" type="line"/>
      <point x="96" y="-240" type="line"/>
      <point x="141" y="-30" type="line" smooth="yes"/>
      <point x="144" y="-13"/>
      <point x="150" y="21"/>
      <point x="154" y="58" type="curve"/>
      <point x="157" y="58" type="line"/>
      <point x="175" y="15"/>
      <point x="210" y="-10"/>
      <point x="254" y="-10" type="curve" smooth="yes"/>
      <point x="399" y="-10"/>
      <point x="474" y="237"/>
      <point x="474" y="396" type="curve" smooth="yes"/>
      <point x="474" y="510"/>
      <point x="429" y="563"/>
      <point x="359" y="563" type="curve" smooth="yes"/>
      <point x="313" y="563"/>
      <point x="275" y="542"/>
      <point x="237" y="483" type="curve"/>
      <point x="233" y="483" type="line"/>
      <point x="235" y="553" type="line"/>
      <point x="105" y="553" type="line"/>
    </contour>
    <contour>
      <point x="222" y="129" type="curve" smooth="yes"/>
      <point x="202" y="129"/>
      <point x="192" y="146"/>
      <point x="192" y="183" type="curve" smooth="yes"/>
      <point x="192" y="249"/>
      <point x="230" y="428"/>
      <point x="287" y="428" type="curve" smooth="yes"/>
      <point x="301" y="428"/>
      <point x="309" y="410"/>
      <point x="309" y="372" type="curve" smooth="yes"/>
      <point x="309" y="295"/>
      <point x="272" y="129"/>
    </contour>
  </outline>
</glyph>
<glyph name="p.serif" format="2">
  <advance width="567"/>
  <unicode hex="0070"/>
  <anchor x="78" y="-240" name="bottom"/>
  <anchor x="353" y="536" name="top"/>
  <anchor x="604" y="536" name="topright"/>
  <outline>
    <contour>
      <point x="110" y="399" type="curve" smooth="yes"/>
      <point x="-27" y="-240" type="line"/>
      <point x="230" y="-240" type="line"/>
      <point x="239" y="-183" type="line"/>
      <point x="198" y="-183" type="line" smooth="yes"/>
      <point x="169" y="-183"/>
      <point x="160" y="-178"/>
      <point x="160" y="-154" type="curve" smooth="yes"/>
      <point x="160" y="-138"/>
      <point x="162" y="-123"/>
      <point x="166" y="-104" type="curve" smooth="yes"/>
      <point x="180" y="-35" type="line" smooth="yes"/>
      <point x="184" y="-19"/>
      <point x="187" y="2"/>
      <point x="188" y="13" type="curve"/>
      <point x="212" y="-4"/>
      <point x="244" y="-11"/>
      <point x="269" y="-9" type="curve" smooth="yes"/>
      <point x="455" y="-1"/>
      <point x="551" y="215"/>
      <point x="551" y="377" type="curve" smooth="yes"/>
      <point x="551" y="486"/>
      <point x="498" y="546"/>
      <point x="424" y="546" type="curve" smooth="yes"/>
      <point x="345" y="546"/>
      <point x="307" y="498"/>
      <point x="263" y="425" type="curve"/>
      <point x="256" y="425" type="line"/>
      <point x="279" y="536" type="line"/>
      <point x="77" y="536" type="line"/>
      <point x="66" y="479" type="line"/>
      <point x="87" y="479" type="line" smooth="yes"/>
      <point x="111" y="479"/>
      <point x="118" y="473"/>
      <point x="118" y="454" type="curve" smooth="yes"/>
      <point x="118" y="435"/>
      <point x="114" y="419"/>
    </contour>
    <contour>
      <point x="261" y="61" type="curve" smooth="yes"/>
      <point x="241" y="61"/>
      <point x="220" y="75"/>
      <point x="211" y="86" type="curve"/>
      <point x="246" y="261" type="line" smooth="yes"/>
      <point x="261" y="339"/>
      <point x="310" y="460"/>
      <point x="356" y="460" type="curve" smooth="yes"/>
      <point x="383" y="460"/>
      <point x="391" y="416"/>
      <point x="391" y="370" type="curve" smooth="yes"/>
      <point x="391" y="260"/>
      <point x="338" y="61"/>
    </contour>
  </outline>
</glyph>
<glyph name="q" format="2">
  <advance width="487"/>
  <unicode hex="0071"/>
  <anchor x="137" y="-240" name="bottom"/>
  <anchor x="300" y="530" name="top"/>
  <anchor x="523" y="530" name="topright"/>
  <outline>
    <contour>
      <point x="214" y="-42" type="curve" smooth="yes"/>
      <point x="172" y="-240" type="line"/>
      <point x="332" y="-240" type="line"/>
      <point x="501" y="553" type="line"/>
      <point x="361" y="553" type="line"/>
      <point x="338" y="487" type="line"/>
      <point x="336" y="487" type="line"/>
      <point x="320" y="541"/>
      <point x="294" y="563"/>
      <point x="239" y="563" type="curve" smooth="yes"/>
      <point x="85" y="563"/>
      <point x="13" y="292"/>
      <point x="13" y="148" type="curve" smooth="yes"/>
      <point x="13" y="48"/>
      <point x="58" y="-10"/>
      <point x="125" y="-10" type="curve" smooth="yes"/>
      <point x="169" y="-10"/>
      <point x="201" y="3"/>
      <point x="235" y="47" type="curve"/>
      <point x="238" y="47" type="line"/>
      <point x="227" y="11"/>
      <point x="218" y="-25"/>
    </contour>
    <contour>
      <point x="203" y="129" type="curve" smooth="yes"/>
      <point x="187" y="129"/>
      <point x="179" y="147"/>
      <point x="179" y="184" type="curve" smooth="yes"/>
      <point x="179" y="261"/>
      <point x="217" y="424"/>
      <point x="265" y="424" type="curve" smooth="yes"/>
      <point x="285" y="424"/>
      <point x="296" y="408"/>
      <point x="296" y="381" type="curve" smooth="yes"/>
      <point x="296" y="294"/>
      <point x="262" y="129"/>
    </contour>
  </outline>
</glyph>
<glyph name="q.serif" format="2">
  <advance width="567"/>
  <unicode hex="0071"/>
  <anchor x="176" y="-240" name="bottom"/>
  <anchor x="341" y="536" name="top"/>
  <anchor x="604" y="536" name="topright"/>
  <outline>
    <contour>
      <point x="296" y="-40" type="curve" smooth="yes"/>
      <point x="258" y="-240" type="line"/>
      <point x="480" y="-240" type="line"/>
      <point x="492" y="-183" type="line"/>
      <point x="453" y="-183" type="line" smooth="yes"/>
      <point x="431" y="-183"/>
      <point x="418" y="-173"/>
      <point x="418" y="-150" type="curve" smooth="yes"/>
      <point x="418" y="-139"/>
      <point x="423" y="-119"/>
      <point x="427" y="-101" type="curve" smooth="yes"/>
      <point x="563" y="546" type="line"/>
      <point x="511" y="546" type="line"/>
      <point x="454" y="511" type="line"/>
      <point x="413" y="537"/>
      <point x="362" y="546"/>
      <point x="315" y="544" type="curve" smooth="yes"/>
      <point x="149" y="534"/>
      <point x="37" y="323"/>
      <point x="37" y="160" type="curve" smooth="yes"/>
      <point x="37" y="49"/>
      <point x="86" y="-10"/>
      <point x="162" y="-10" type="curve" smooth="yes"/>
      <point x="237" y="-10"/>
      <point x="273" y="27"/>
      <point x="318" y="91" type="curve"/>
      <point x="323" y="91" type="line"/>
      <point x="317" y="69"/>
      <point x="302" y="-9"/>
    </contour>
    <contour>
      <point x="232" y="76" type="curve" smooth="yes"/>
      <point x="212" y="76"/>
      <point x="198" y="100"/>
      <point x="198" y="163" type="curve" smooth="yes"/>
      <point x="198" y="262"/>
      <point x="247" y="475"/>
      <point x="334" y="475" type="curve" smooth="yes"/>
      <point x="356" y="475"/>
      <point x="371" y="464"/>
      <point x="378" y="450" type="curve"/>
      <point x="344" y="290" type="line" smooth="yes"/>
      <point x="324" y="191"/>
      <point x="273" y="76"/>
    </contour>
  </outline>
</glyph>
<glyph name="r" format="2">
  <advance width="352"/>
  <unicode hex="0072"/>
  <anchor x="120" y="0" name="bottom"/>
  <anchor x="232" y="530" name="top"/>
  <anchor x="388" y="530" name="topright"/>
  <outline>
    <contour>
      <point x="-12" y="0" type="line"/>
      <point x="148" y="0" type="line"/>
      <point x="206" y="278" type="line" smooth="yes"/>
      <point x="218" y="338"/>
      <point x="250" y="389"/>
      <point x="305" y="389" type="curve" smooth="yes"/>
      <point x="323" y="389"/>
      <point x="339" y="386"/>
      <point x="354" y="380" type="curve"/>
      <point x="404" y="556" type="line"/>
      <point x="384" y="562"/>
      <point x="372" y="563"/>
      <point x="359" y="563" type="curve" smooth="yes"/>
      <point x="302" y="563"/>
      <point x="269" y="537"/>
      <point x="233" y="473" type="curve"/>
      <point x="229" y="473" type="line"/>
      <point x="231" y="553" type="line"/>
      <point x="105" y="553" type="line"/>
    </contour>
  </outline>
</glyph>
<glyph name="s" format="2">
  <advance width="387"/>
  <unicode hex="0073"/>
  <anchor x="135" y="0" name="bottom"/>
  <anchor x="253" y="553" name="top"/>
  <anchor x="426" y="553" name="topright"/>
  <outline>
    <contour>
      <point x="144" y="-10" type="curve" smooth="yes"/>
      <point x="270" y="-10"/>
      <point x="343" y="80"/>
      <point x="343" y="183" type="curve" smooth="yes"/>
      <point x="343" y="262"/>
      <point x="316" y="298"/>
      <point x="268" y="337" type="curve" smooth="yes"/>
      <point x="222" y="373"/>
      <point x="219" y="384"/>
      <point x="219" y="403" type="curve" smooth="yes"/>
      <point x="219" y="423"/>
      <point x="230" y="434"/>
      <point x="249" y="434" type="curve" smooth="yes"/>
      <point x="268" y="434"/>
      <point x="309" y="423"/>
      <point x="342" y="394" type="curve"/>
      <point x="403" y="515" type="line"/>
      <point x="364" y="543"/>
      <point x="302" y="563"/>
      <point x="239" y="563" type="curve" smooth="yes"/>
      <point x="116" y="563"/>
      <point x="54" y="481"/>
      <point x="54" y="379" type="curve" smooth="yes"/>
      <point x="54" y="333"/>
      <point x="63" y="289"/>
      <point x="123" y="240" type="curve" smooth="yes"/>
      <point x="167" y="204"/>
      <point x="173" y="183"/>
      <point x="173" y="166" type="curve" smooth="yes"/>
      <point x="173" y="141"/>
      <point x="150" y="129"/>
      <point x="123" y="129" type="curve" smooth="yes"/>
      <point x="88" y="129"/>
      <point x="38" y="144"/>
      <point x="-2" y="171" type="curve"/>
      <point x="-2" y="23" type="line"/>
      <point x="38" y="0"/>
      <point x="73" y="-10"/>
    </contour>
  </outline>
</glyph>
<glyph name="s.serif" format="2">
  <advance width="457"/>
  <unicode hex="0073"/>
  <anchor x="172" y="0" name="bottom"/>
  <anchor x="286" y="536" name="top"/>
  <anchor x="494" y="536" name="topright"/>
  <outline>
    <contour>
      <point x="180" y="-10" type="curve" smooth="yes"/>
      <point x="339" y="-10"/>
      <point x="412" y="59"/>
      <point x="412" y="177" type="curve" smooth="yes"/>
      <point x="412" y="244"/>
      <point x="384" y="287"/>
      <point x="299" y="334" type="curve" smooth="yes"/>
      <point x="245" y="364"/>
      <point x="211" y="395"/>
      <point x="214" y="437" type="curve" smooth="yes"/>
      <point x="217" y="463"/>
      <point x="236" y="486"/>
      <point x="271" y="486" type="curve" smooth="yes"/>
      <point x="318" y="486"/>
      <point x="327" y="425"/>
      <point x="325" y="372" type="curve"/>
      <point x="404" y="372"/>
      <point x="453" y="396"/>
      <point x="453" y="455" type="curve" smooth="yes"/>
      <point x="453" y="504"/>
      <point x="413" y="546"/>
      <point x="286" y="546" type="curve" smooth="yes"/>
      <point x="153" y="546"/>
      <point x="72" y="483"/>
      <point x="72" y="377" type="curve" smooth="yes"/>
      <point x="72" y="304"/>
      <point x="114" y="258"/>
      <point x="192" y="215" type="curve" smooth="yes"/>
      <point x="244" y="186"/>
      <point x="272" y="167"/>
      <point x="272" y="126" type="curve" smooth="yes"/>
      <point x="272" y="82"/>
      <point x="244" y="54"/>
      <point x="202" y="54" type="curve" smooth="yes"/>
      <point x="149" y="54"/>
      <point x="132" y="119"/>
      <point x="135" y="191" type="curve"/>
      <point x="70" y="191"/>
      <point x="12" y="163"/>
      <point x="12" y="96" type="curve" smooth="yes"/>
      <point x="12" y="29"/>
      <point x="78" y="-10"/>
    </contour>
  </outline>
</glyph>
<glyph name="t.serif" format="2">
  <advance width="376"/>
  <unicode hex="0074"/>
  <anchor x="131" y="0" name="bottom"/>
  <anchor x="185" y="268" name="center"/>
  <anchor x="271" y="659" name="top"/>
  <anchor x="363" y="1010" name="topright"/>
  <outline>
    <contour>
      <point x="171" y="-10" type="curve" smooth="yes"/>
      <point x="254" y="-10"/>
      <point x="304" y="26"/>
      <point x="345" y="68" type="curve"/>
      <point x="323" y="106" type="line"/>
      <point x="304" y="91"/>
      <point x="283" y="79"/>
      <point x="261" y="79" type="curve" smooth="yes"/>
      <point x="240" y="79"/>
      <point x="224" y="95"/>
      <point x="224" y="124" type="curve" smooth="yes"/>
      <point x="224" y="144"/>
      <point x="227" y="166"/>
      <point x="234" y="199" type="curve" smooth="yes"/>
      <point x="292" y="464" type="line"/>
      <point x="393" y="464" type="line"/>
      <point x="408" y="536" type="line"/>
      <point x="309" y="536" type="line"/>
      <point x="335" y="659" type="line"/>
      <point x="280" y="659" type="line"/>
      <point x="207" y="556"/>
      <point x="119" y="519"/>
      <point x="72" y="519" type="curve"/>
      <point x="60" y="464" type="line"/>
      <point x="123" y="464" type="line"/>
      <point x="64" y="191" type="line" smooth="yes"/>
      <point x="58" y="164"/>
      <point x="53" y="127"/>
      <point x="53" y="103" type="curve" smooth="yes"/>
      <point x="53" y="28"/>
      <point x="108" y="-10"/>
    </contour>
  </outline>
</glyph>
<glyph name="u" format="2">
  <advance width="491"/>
  <unicode hex="0075"/>
  <anchor x="187" y="0" name="bottom"/>
  <anchor x="305" y="553" name="top"/>
  <anchor x="530" y="553" name="topright"/>
  <outline>
    <contour>
      <point x="139" y="-10" type="curve" smooth="yes"/>
      <point x="187" y="-10"/>
      <point x="227" y="19"/>
      <point x="259" y="64" type="curve"/>
      <point x="262" y="64" type="line"/>
      <point x="260" y="0" type="line"/>
      <point x="388" y="0" type="line"/>
      <point x="505" y="553" type="line"/>
      <point x="345" y="553" type="line"/>
      <point x="284" y="269" type="line" smooth="yes"/>
      <point x="268" y="194"/>
      <point x="247" y="134"/>
      <point x="213" y="134" type="curve" smooth="yes"/>
      <point x="194" y="134"/>
      <point x="188" y="147"/>
      <point x="188" y="169" type="curve" smooth="yes"/>
      <point x="188" y="187"/>
      <point x="192" y="216"/>
      <point x="198" y="246" type="curve" smooth="yes"/>
      <point x="263" y="553" type="line"/>
      <point x="103" y="553" type="line"/>
      <point x="28" y="201" type="line" smooth="yes"/>
      <point x="23" y="172"/>
      <point x="19" y="143"/>
      <point x="19" y="120" type="curve" smooth="yes"/>
      <point x="19" y="40"/>
      <point x="61" y="-10"/>
    </contour>
  </outline>
</glyph>
<glyph name="u.serif" format="2">
  <advance width="605"/>
  <unicode hex="0075"/>
  <anchor x="246" y="0" name="bottom"/>
  <anchor x="360" y="536" name="top"/>
  <anchor x="642" y="536" name="topright"/>
  <outline>
    <contour>
      <point x="443" y="-10" type="curve" smooth="yes"/>
      <point x="523" y="-10"/>
      <point x="564" y="27"/>
      <point x="594" y="64" type="curve"/>
      <point x="571" y="99" type="line"/>
      <point x="554" y="84"/>
      <point x="542" y="76"/>
      <point x="526" y="76" type="curve" smooth="yes"/>
      <point x="509" y="76"/>
      <point x="497" y="91"/>
      <point x="497" y="116" type="curve" smooth="yes"/>
      <point x="497" y="146"/>
      <point x="502" y="174"/>
      <point x="508" y="203" type="curve" smooth="yes"/>
      <point x="579" y="536" type="line"/>
      <point x="412" y="536" type="line"/>
      <point x="363" y="299" type="line" smooth="yes"/>
      <point x="342" y="201"/>
      <point x="296" y="93"/>
      <point x="259" y="93" type="curve" smooth="yes"/>
      <point x="239" y="93"/>
      <point x="230" y="108"/>
      <point x="230" y="133" type="curve" smooth="yes"/>
      <point x="230" y="159"/>
      <point x="235" y="200"/>
      <point x="243" y="237" type="curve" smooth="yes"/>
      <point x="305" y="536" type="line"/>
      <point x="77" y="536" type="line"/>
      <point x="65" y="479" type="line"/>
      <point x="87" y="479" type="line" smooth="yes"/>
      <point x="111" y="479"/>
      <point x="119" y="474"/>
      <point x="119" y="457" type="curve" smooth="yes"/>
      <point x="119" y="441"/>
      <point x="114" y="423"/>
      <point x="108" y="389" type="curve" smooth="yes"/>
      <point x="73" y="212" type="line" smooth="yes"/>
      <point x="66" y="176"/>
      <point x="56" y="130"/>
      <point x="56" y="95" type="curve" smooth="yes"/>
      <point x="56" y="39"/>
      <point x="78" y="-9"/>
      <point x="149" y="-9" type="curve" smooth="yes"/>
      <point x="229" y="-9"/>
      <point x="275" y="31"/>
      <point x="327" y="107" type="curve"/>
      <point x="333" y="107" type="line"/>
      <point x="331" y="98"/>
      <point x="330" y="87"/>
      <point x="330" y="78" type="curve" smooth="yes"/>
      <point x="330" y="30"/>
      <point x="353" y="-10"/>
    </contour>
  </outline>
</glyph>
<glyph name="v" format="2">
  <advance width="457"/>
  <unicode hex="0076"/>
  <anchor x="173" y="0" name="bottom"/>
  <anchor x="285" y="530" name="top"/>
  <anchor x="493" y="530" name="topright"/>
  <outline>
    <contour>
      <point x="85" y="0" type="line"/>
      <point x="255" y="0" type="line"/>
      <point x="513" y="553" type="line"/>
      <point x="344" y="553" type="line"/>
      <point x="238" y="293" type="line" smooth="yes"/>
      <point x="231" y="275"/>
      <point x="222" y="253"/>
      <point x="218" y="236" type="curve"/>
      <point x="214" y="236" type="line"/>
      <point x="219" y="270"/>
      <point x="219" y="303"/>
      <point x="219" y="336" type="curve" smooth="yes"/>
      <point x="222" y="553" type="line"/>
      <point x="62" y="553" type="line"/>
    </contour>
  </outline>
</glyph>
<glyph name="v.serif" format="2">
  <advance width="514"/>
  <unicode hex="0076"/>
  <anchor x="200" y="0" name="bottom"/>
  <anchor x="314" y="536" name="top"/>
  <anchor x="551" y="536" name="topright"/>
  <outline>
    <contour>
      <point x="93" y="426" type="curve" smooth="yes"/>
      <point x="135" y="-9" type="line"/>
      <point x="275" y="1" type="line"/>
      <point x="354" y="94"/>
      <point x="507" y="304"/>
      <point x="507" y="459" type="curve" smooth="yes"/>
      <point x="507" y="519"/>
      <point x="477" y="545"/>
      <point x="439" y="545" type="curve" smooth="yes"/>
      <point x="388" y="545"/>
      <point x="363" y="506"/>
      <point x="361" y="453" type="curve"/>
      <point x="391" y="453"/>
      <point x="416" y="438"/>
      <point x="416" y="395" type="curve" smooth="yes"/>
      <point x="416" y="315"/>
      <point x="346" y="188"/>
      <point x="271" y="93" type="curve"/>
      <point x="269" y="93" type="line"/>
      <point x="270" y="126"/>
      <point x="272" y="173"/>
      <point x="266" y="240" type="curve" smooth="yes"/>
      <point x="240" y="536" type="line"/>
      <point x="46" y="536" type="line"/>
      <point x="31" y="479" type="line"/>
      <point x="40" y="479" type="line" smooth="yes"/>
      <point x="71" y="479"/>
      <point x="89" y="468"/>
    </contour>
  </outline>
</glyph>
<glyph name="w" format="2">
  <advance width="678"/>
  <unicode hex="0077"/>
  <anchor x="283" y="0" name="bottom"/>
  <anchor x="395" y="530" name="top"/>
  <anchor x="714" y="530" name="topright"/>
  <outline>
    <contour>
      <point x="50" y="0" type="line"/>
      <point x="226" y="0" type="line"/>
      <point x="321" y="261" type="line" smooth="yes"/>
      <point x="330" y="287"/>
      <point x="338" y="311"/>
      <point x="347" y="339" type="curve"/>
      <point x="350" y="339" type="line"/>
      <point x="348" y="309"/>
      <point x="345" y="279"/>
      <point x="343" y="249" type="curve" smooth="yes"/>
      <point x="326" y="0" type="line"/>
      <point x="510" y="0" type="line"/>
      <point x="733" y="553" type="line"/>
      <point x="573" y="553" type="line"/>
      <point x="510" y="380" type="line" smooth="yes"/>
      <point x="495" y="339"/>
      <point x="480" y="290"/>
      <point x="468" y="249" type="curve"/>
      <point x="465" y="249" type="line"/>
      <point x="468" y="283"/>
      <point x="472" y="323"/>
      <point x="475" y="366" type="curve" smooth="yes"/>
      <point x="487" y="553" type="line"/>
      <point x="305" y="553" type="line"/>
      <point x="237" y="369" type="line" smooth="yes"/>
      <point x="223" y="331"/>
      <point x="210" y="290"/>
      <point x="201" y="260" type="curve"/>
      <point x="198" y="260" type="line"/>
      <point x="202" y="297"/>
      <point x="207" y="338"/>
      <point x="210" y="380" type="curve" smooth="yes"/>
      <point x="221" y="553" type="line"/>
      <point x="64" y="553" type="line"/>
    </contour>
  </outline>
</glyph>
<glyph name="w.serif" format="2">
  <advance width="755"/>
  <unicode hex="0077"/>
  <anchor x="321" y="0" name="bottom"/>
  <anchor x="435" y="536" name="top"/>
  <anchor x="792" y="536" name="topright"/>
  <outline>
    <contour>
      <point x="400" y="-10" type="curve"/>
      <point x="513" y="1" type="line"/>
      <point x="618" y="130"/>
      <point x="752" y="319"/>
      <point x="752" y="463" type="curve" smooth="yes"/>
      <point x="752" y="515"/>
      <point x="729" y="546"/>
      <point x="686" y="546" type="curve" smooth="yes"/>
      <point x="653" y="546"/>
      <point x="617" y="528"/>
      <point x="611" y="471" type="curve"/>
      <point x="630" y="466"/>
      <point x="655" y="443"/>
      <point x="655" y="399" type="curve" smooth="yes"/>
      <point x="655" y="358"/>
      <point x="657" y="262"/>
      <point x="551" y="123" type="curve"/>
      <point x="545" y="123" type="line"/>
      <point x="548" y="186"/>
      <point x="548" y="431"/>
      <point x="542" y="531" type="curve"/>
      <point x="412" y="527" type="line"/>
      <point x="364" y="381"/>
      <point x="319" y="244"/>
      <point x="259" y="141" type="curve"/>
      <point x="251" y="141" type="line"/>
      <point x="252" y="307"/>
      <point x="258" y="400"/>
      <point x="255" y="536" type="curve"/>
      <point x="65" y="536" type="line"/>
      <point x="50" y="479" type="line"/>
      <point x="55" y="479" type="line" smooth="yes"/>
      <point x="84" y="479"/>
      <point x="107" y="467"/>
      <point x="106" y="406" type="curve" smooth="yes"/>
      <point x="100" y="-5" type="line"/>
      <point x="224" y="3" type="line"/>
      <point x="310" y="130"/>
      <point x="368" y="262"/>
      <point x="408" y="384" type="curve"/>
      <point x="411" y="300"/>
      <point x="406" y="113"/>
    </contour>
  </outline>
</glyph>
<glyph name="x" format="2">
  <advance width="460"/>
  <unicode hex="0078"/>
  <anchor x="174" y="0" name="bottom"/>
  <anchor x="286" y="530" name="top"/>
  <anchor x="496" y="530" name="topright"/>
  <outline>
    <contour>
      <point x="-53" y="0" type="line"/>
      <point x="123" y="0" type="line"/>
      <point x="203" y="145" type="line"/>
      <point x="225" y="0" type="line"/>
      <point x="398" y="0" type="line"/>
      <point x="333" y="282" type="line"/>
      <point x="509" y="553" type="line"/>
      <point x="330" y="553" type="line"/>
      <point x="258" y="421" type="line"/>
      <point x="240" y="553" type="line"/>
      <point x="67" y="553" type="line"/>
      <point x="131" y="282" type="line"/>
    </contour>
  </outline>
</glyph>
<glyph name="x.serif" format="2">
  <advance width="536"/>
  <unicode hex="0078"/>
  <anchor x="211" y="0" name="bottom"/>
  <anchor x="325" y="536" name="top"/>
  <anchor x="573" y="536" name="topright"/>
  <outline>
    <contour>
      <point x="-19" y="0" type="line"/>
      <point x="79" y="0" type="line"/>
      <point x="219" y="196" type="line"/>
      <point x="268" y="0" type="line"/>
      <point x="472" y="0" type="line"/>
      <point x="483" y="57" type="line"/>
      <point x="473" y="57" type="line" smooth="yes"/>
      <point x="441" y="57"/>
      <point x="425" y="72"/>
      <point x="406" y="127" type="curve"/>
      <point x="350" y="294" type="line"/>
      <point x="436" y="409" type="line" smooth="yes"/>
      <point x="480" y="465"/>
      <point x="492" y="479"/>
      <point x="524" y="479" type="curve" smooth="yes"/>
      <point x="542" y="479" type="line"/>
      <point x="553" y="536" type="line"/>
      <point x="453" y="536" type="line"/>
      <point x="329" y="350" type="line"/>
      <point x="283" y="536" type="line"/>
      <point x="89" y="536" type="line"/>
      <point x="76" y="479" type="line"/>
      <point x="85" y="479" type="line" smooth="yes"/>
      <point x="116" y="479"/>
      <point x="135" y="469"/>
      <point x="149" y="422" type="curve" smooth="yes"/>
      <point x="201" y="253" type="line"/>
      <point x="94" y="119" type="line" smooth="yes"/>
      <point x="50" y="65"/>
      <point x="35" y="57"/>
      <point x="4" y="57" type="curve" smooth="yes"/>
      <point x="-6" y="57" type="line"/>
    </contour>
  </outline>
</glyph>
<glyph name="y" format="2">
  <advance width="457"/>
  <unicode hex="0079"/>
  <anchor x="122" y="-240" name="bottom"/>
  <anchor x="285" y="530" name="top"/>
  <anchor x="493" y="530" name="topright"/>
  <outline>
    <contour>
      <point x="16" y="-240" type="curve" smooth="yes"/>
      <point x="127" y="-240"/>
      <point x="177" y="-163"/>
      <point x="225" y="-62" type="curve" smooth="yes"/>
      <point x="513" y="553" type="line"/>
      <point x="345" y="553" type="line"/>
      <point x="255" y="339" type="line" smooth="yes"/>
      <point x="248" y="320"/>
      <point x="234" y="278"/>
      <point x="226" y="245" type="curve"/>
      <point x="223" y="245" type="line"/>
      <point x="224" y="275"/>
      <point x="225" y="306"/>
      <point x="225" y="336" type="curve" smooth="yes"/>
      <point x="224" y="553" type="line"/>
      <point x="62" y="553" type="line"/>
      <point x="96" y="10" type="line"/>
      <point x="66" y="-52" type="line" smooth="yes"/>
      <point x="52" y="-81"/>
      <point x="39" y="-96"/>
      <point x="11" y="-96" type="curve" smooth="yes"/>
      <point x="0" y="-96"/>
      <point x="-14" y="-93"/>
      <point x="-31" y="-87" type="curve"/>
      <point x="-60" y="-230" type="line"/>
      <point x="-40" y="-237"/>
      <point x="-17" y="-240"/>
    </contour>
  </outline>
</glyph>
<glyph name="y.serif" format="2">
  <advance width="522"/>
  <unicode hex="0079"/>
  <anchor x="43" y="-240" name="bottom"/>
  <anchor x="298" y="536" name="top"/>
  <anchor x="549" y="536" name="topright"/>
  <outline>
    <contour>
      <point x="-59" y="-240" type="curve" smooth="yes"/>
      <point x="123" y="-240"/>
      <point x="197" y="-133"/>
      <point x="333" y="70" type="curve" smooth="yes"/>
      <point x="446" y="239"/>
      <point x="513" y="363"/>
      <point x="513" y="466" type="curve" smooth="yes"/>
      <point x="513" y="515"/>
      <point x="489" y="546"/>
      <point x="438" y="546" type="curve" smooth="yes"/>
      <point x="392" y="546"/>
      <point x="360" y="509"/>
      <point x="358" y="456" type="curve"/>
      <point x="390" y="456"/>
      <point x="416" y="434"/>
      <point x="416" y="387" type="curve" smooth="yes"/>
      <point x="416" y="318"/>
      <point x="353" y="213"/>
      <point x="282" y="111" type="curve"/>
      <point x="280" y="111" type="line"/>
      <point x="279" y="142"/>
      <point x="270" y="228"/>
      <point x="263" y="281" type="curve" smooth="yes"/>
      <point x="228" y="536" type="line"/>
      <point x="31" y="536" type="line"/>
      <point x="16" y="479" type="line"/>
      <point x="24" y="479" type="line" smooth="yes"/>
      <point x="56" y="479"/>
      <point x="72" y="466"/>
      <point x="79" y="426" type="curve" smooth="yes"/>
      <point x="159" y="-55" type="line"/>
      <point x="90" y="-140"/>
      <point x="31" y="-176"/>
      <point x="-62" y="-176" type="curve" smooth="yes"/>
      <point x="-96" y="-176"/>
      <point x="-124" y="-168"/>
      <point x="-136" y="-163" type="curve"/>
      <point x="-151" y="-222" type="line"/>
      <point x="-126" y="-233"/>
      <point x="-92" y="-240"/>
    </contour>
  </outline>
</glyph>
<glyph name="z" format="2">
  <advance width="391"/>
  <unicode hex="007A"/>
  <anchor x="140" y="0" name="bottom"/>
  <anchor x="252" y="530" name="top"/>
  <anchor x="427" y="530" name="topright"/>
  <outline>
    <contour>
      <point x="-42" y="0" type="line"/>
      <point x="314" y="0" type="line"/>
      <point x="342" y="135" type="line"/>
      <point x="177" y="135" type="line"/>
      <point x="402" y="449" type="line"/>
      <point x="424" y="553" type="line"/>
      <point x="85" y="553" type="line"/>
      <point x="56" y="418" type="line"/>
      <point x="212" y="418" type="line"/>
      <point x="-22" y="95" type="line"/>
    </contour>
  </outline>
</glyph>
<glyph name="z.serif" format="2">
  <advance width="491"/>
  <unicode hex="007A"/>
  <anchor x="189" y="0" name="bottom"/>
  <anchor x="303" y="536" name="top"/>
  <anchor x="528" y="536" name="topright"/>
  <outline>
    <contour>
      <point x="1" y="0" type="line"/>
      <point x="421" y="0" type="line"/>
      <point x="467" y="188" type="line"/>
      <point x="407" y="188" type="line"/>
      <point x="398" y="165" type="line" smooth="yes"/>
      <point x="382" y="122"/>
      <point x="362" y="72"/>
      <point x="324" y="72" type="curve" smooth="yes"/>
      <point x="203" y="72" type="line"/>
      <point x="489" y="480" type="line"/>
      <point x="502" y="536" type="line"/>
      <point x="111" y="536" type="line"/>
      <point x="66" y="367" type="line"/>
      <point x="129" y="367" type="line"/>
      <point x="131" y="371" type="line" smooth="yes"/>
      <point x="156" y="422"/>
      <point x="170" y="464"/>
      <point x="213" y="464" type="curve" smooth="yes"/>
      <point x="299" y="464" type="line"/>
      <point x="15" y="55" type="line"/>
    </contour>
  </outline>
</glyph>
